{"glyphs":{"0":{"ha":981,"x_min":86,"x_max":875,"o":"m 482 -46 q 178 95 269 -46 q 86 497 86 236 q 182 906 86 757 q 482 1056 278 1056 q 776 919 678 1056 q 875 510 875 782 q 482 -46 875 -46 m 482 35 q 683 165 622 35 q 743 504 743 296 q 683 846 743 713 q 482 979 622 979 q 278 844 340 979 q 217 504 217 710 q 279 166 217 297 q 482 35 342 35 z "},"1":{"ha":981,"x_min":258,"x_max":735,"o":"m 258 -22 l 258 57 l 444 57 l 444 868 l 258 868 l 258 936 q 489 1050 408 938 l 569 1050 l 569 56 l 735 56 l 735 -22 l 258 -22 z "},"2":{"ha":981,"x_min":99,"x_max":840,"o":"m 100 25 q 525 458 103 153 q 664 596 621 528 q 707 756 707 664 q 641 913 707 857 q 472 969 575 969 q 290 922 376 969 q 163 797 204 874 l 143 797 l 143 936 q 467 1049 278 1046 q 733 985 639 1049 q 839 772 826 921 q 840 742 840 763 q 766 531 840 624 q 551 349 692 439 q 352 206 449 283 q 218 72 256 128 l 829 72 l 829 -26 l 99 -26 l 100 25 z "},"3":{"ha":981,"x_min":121,"x_max":864,"o":"m 475 -51 q 121 71 244 -51 l 121 213 l 139 213 q 277 78 188 129 q 467 26 367 26 q 664 90 594 26 q 733 272 733 154 q 674 435 733 375 q 508 496 615 494 l 364 497 l 364 574 l 511 575 q 654 636 606 576 q 697 793 703 696 q 631 926 694 875 q 465 978 568 978 q 292 935 378 978 q 167 826 207 892 l 149 826 l 149 954 q 485 1053 268 1053 q 732 980 642 1053 q 822 785 822 907 q 776 633 822 694 q 642 540 731 571 q 864 267 864 469 q 765 30 864 111 q 475 -51 667 -51 z "},"4":{"ha":981,"x_min":68,"x_max":918,"o":"m 754 -29 l 631 -29 l 631 238 l 68 238 l 68 332 l 617 1022 l 754 1022 l 754 333 l 918 333 l 918 235 l 754 235 l 754 -29 m 632 900 l 175 328 l 632 328 l 632 900 z "},"5":{"ha":981,"x_min":124,"x_max":858,"o":"m 474 -49 q 124 64 240 -49 l 124 200 l 142 200 q 273 72 188 118 q 456 25 358 25 q 649 100 574 25 q 732 317 732 181 q 657 517 732 438 q 493 590 589 590 q 340 559 410 590 q 232 476 269 528 l 144 476 l 164 1025 l 831 1025 l 831 929 l 253 929 l 239 586 q 508 664 350 664 q 753 582 658 664 q 858 315 858 489 q 722 19 858 115 q 474 -49 624 -49 z "},"6":{"ha":981,"x_min":100,"x_max":881,"o":"m 494 -49 q 191 85 282 -47 q 100 479 100 218 q 232 904 100 743 q 547 1050 354 1050 q 818 982 711 1050 l 818 860 l 801 860 q 554 975 707 975 q 314 835 404 975 q 228 536 233 711 q 524 664 329 664 q 789 574 697 664 q 881 310 881 483 q 777 44 881 136 q 494 -49 674 -49 m 501 25 q 637 63 581 25 q 722 167 693 101 q 751 313 751 232 q 689 513 751 435 q 518 592 626 592 q 374 559 438 592 q 276 470 311 526 q 243 349 242 414 q 304 112 239 199 q 501 25 369 25 z "},"7":{"ha":981,"x_min":94,"x_max":882,"o":"m 294 -28 q 481 458 340 174 q 771 919 626 758 l 94 919 l 94 1017 l 882 1017 l 882 926 q 619 494 747 774 q 435 -28 501 236 l 294 -28 z "},"8":{"ha":981,"x_min":75,"x_max":900,"o":"m 482 -54 q 177 24 279 -54 q 82 272 75 101 q 285 544 89 449 q 172 640 214 578 q 131 774 131 703 q 172 925 131 860 q 292 1026 214 990 q 475 1061 369 1061 q 739 991 647 1061 q 831 789 831 921 q 781 652 831 721 q 654 546 732 583 q 828 437 761 510 q 896 272 894 364 q 797 27 900 108 q 482 -54 694 -54 m 575 585 q 721 774 721 658 q 657 926 721 869 q 485 983 593 983 q 366 958 419 983 q 281 888 313 932 q 250 794 250 844 q 294 689 250 736 q 406 622 338 642 q 575 585 463 607 m 488 24 q 685 82 606 24 q 765 242 765 140 q 699 399 765 342 q 508 483 632 456 q 363 515 428 501 q 242 408 289 476 q 194 265 194 339 q 277 86 194 149 q 488 24 360 24 z "},"9":{"ha":981,"x_min":86,"x_max":864,"o":"m 439 -53 q 147 14 254 -53 l 147 138 l 164 138 q 417 22 258 22 q 589 82 518 22 q 696 241 660 142 q 735 460 732 340 q 443 331 633 331 q 86 682 86 333 q 137 880 86 794 q 276 1010 188 965 q 475 1051 365 1056 q 776 908 688 1043 q 864 511 864 774 q 756 101 864 254 q 439 -53 647 -53 m 447 407 q 582 434 521 407 q 680 511 643 461 q 721 625 717 561 q 722 678 722 644 q 708 797 722 754 q 465 975 654 975 q 331 935 388 975 q 244 827 274 894 q 214 679 214 760 q 276 483 214 558 q 447 407 339 407 z "}," ":{"ha":694,"x_min":0,"x_max":0,"o":""},"A":{"ha":1063,"x_min":25,"x_max":1044,"o":"m 126 -28 l 25 -28 l 451 1029 l 608 1029 l 1044 -25 l 904 -25 l 774 311 l 272 311 l 126 -28 m 510 933 l 303 393 l 743 393 l 532 933 l 510 933 z "},"B":{"ha":1029,"x_min":131,"x_max":964,"o":"m 131 -29 l 131 1029 l 592 1029 q 819 954 743 1029 q 892 769 892 886 q 735 546 892 615 q 956 292 947 483 q 865 58 964 136 q 571 -31 785 -31 l 131 -29 m 590 572 q 717 628 672 572 q 763 774 763 685 q 720 902 763 854 q 604 950 678 950 l 257 950 l 257 572 l 590 572 m 565 56 q 769 117 700 56 q 836 275 836 174 q 789 429 836 374 q 626 494 735 494 l 257 494 l 257 56 l 565 56 z "},"C":{"ha":1085,"x_min":92,"x_max":1040,"o":"m 603 -51 q 218 108 353 -51 q 92 496 92 256 q 222 894 92 747 q 639 1058 368 1058 q 831 1033 729 1058 q 997 968 933 1007 l 997 840 l 979 840 q 639 979 850 979 q 342 865 446 979 q 225 497 225 743 q 333 160 225 285 q 622 35 442 35 q 836 89 731 35 q 1000 246 954 147 l 1015 244 l 1040 133 q 603 -51 899 -51 z "},"D":{"ha":1138,"x_min":125,"x_max":1053,"o":"m 125 -29 l 126 1031 l 511 1031 q 920 903 788 1031 q 1053 511 1053 775 q 539 -29 1053 -31 l 125 -29 m 518 54 q 924 500 924 54 q 881 760 924 661 q 747 904 838 858 q 511 950 657 950 l 250 950 l 250 54 l 518 54 z "},"E":{"ha":994,"x_min":129,"x_max":951,"o":"m 951 -22 l 129 -22 l 129 1029 l 940 1029 l 940 947 l 253 947 l 253 569 l 874 569 l 874 485 l 253 485 l 253 64 l 951 64 l 951 -22 z "},"F":{"ha":974,"x_min":124,"x_max":935,"o":"m 249 -29 l 124 -29 l 124 1031 l 935 1031 l 935 949 l 250 947 l 250 579 l 869 579 l 869 496 l 250 494 l 249 -29 z "},"G":{"ha":1125,"x_min":85,"x_max":1033,"o":"m 604 -54 q 211 99 347 -54 q 85 490 85 239 q 251 938 85 790 q 638 1063 393 1063 q 831 1035 725 1063 q 999 972 938 1008 l 999 844 l 985 844 q 640 986 849 986 q 339 872 449 986 q 218 513 222 750 l 218 478 q 332 144 221 264 q 629 26 444 21 q 914 106 810 35 l 914 397 l 722 399 l 722 476 l 1033 476 l 1033 39 q 604 -54 865 -54 z "},"H":{"ha":1154,"x_min":131,"x_max":1011,"o":"m 257 -26 l 131 -26 l 131 1032 l 257 1032 l 257 590 l 883 590 l 883 1032 l 1011 1032 l 1011 -26 l 883 -26 l 883 507 l 257 507 l 257 -26 z "},"I":{"ha":529,"x_min":86,"x_max":432,"o":"m 432 -25 l 86 -25 l 86 49 l 197 49 l 197 960 l 89 960 l 89 1031 l 432 1031 l 432 960 l 325 960 l 325 49 l 432 49 l 432 -25 z "},"J":{"ha":696,"x_min":15,"x_max":551,"o":"m 147 -54 q 15 -33 82 -54 l 18 68 l 35 68 q 171 28 92 28 q 422 264 422 28 l 422 1032 l 551 1032 l 551 267 q 446 13 551 88 q 147 -54 357 -54 z "},"K":{"ha":981,"x_min":135,"x_max":950,"o":"m 261 -28 l 135 -28 l 135 1032 l 261 1032 l 263 493 l 799 1029 l 924 1029 l 924 1018 l 493 593 l 950 -28 l 793 -28 l 406 517 l 263 385 l 261 -28 z "},"L":{"ha":946,"x_min":129,"x_max":919,"o":"m 919 -31 l 129 -31 l 129 1032 l 257 1032 l 257 56 l 919 56 l 919 -31 z "},"M":{"ha":1279,"x_min":132,"x_max":1142,"o":"m 228 -29 l 132 -29 l 132 1032 l 308 1032 l 626 172 l 957 1032 l 1142 1032 l 1142 -29 l 1014 -29 l 1014 914 l 660 19 l 558 19 l 229 915 l 228 -29 z "},"N":{"ha":1144,"x_min":128,"x_max":1010,"o":"m 231 -25 l 128 -25 l 128 1031 l 276 1031 l 907 182 l 907 1032 l 1010 1032 l 1010 -24 l 903 -24 l 231 893 l 231 -25 z "},"O":{"ha":1232,"x_min":79,"x_max":1147,"o":"m 615 -53 q 203 107 339 -53 q 79 496 79 250 q 206 897 79 750 q 608 1063 344 1063 q 1015 900 872 1063 q 1147 504 1144 751 q 1017 111 1147 263 q 615 -53 874 -53 m 608 28 q 793 71 711 28 q 929 194 875 114 q 1015 508 1015 317 q 965 761 1015 653 q 822 928 914 869 q 608 988 731 988 q 397 927 488 988 q 258 755 307 867 q 210 493 210 643 q 259 249 210 354 q 398 85 308 143 q 608 28 488 28 z "},"P":{"ha":981,"x_min":128,"x_max":919,"o":"m 128 -26 l 128 1032 l 576 1032 q 831 956 743 1032 q 919 742 919 879 q 839 518 919 593 q 599 443 758 443 l 257 443 l 257 -26 l 128 -26 m 575 526 q 786 749 786 526 q 730 897 786 842 q 582 953 674 953 l 257 953 l 257 526 l 575 526 z "},"Q":{"ha":1232,"x_min":79,"x_max":1151,"o":"m 939 -158 q 803 -143 861 -157 q 594 -44 719 -122 q 200 110 335 -44 q 79 503 79 251 q 207 897 79 746 q 614 1063 351 1063 q 1021 900 878 1063 q 1151 506 1151 753 q 1052 161 1151 299 q 772 -19 953 24 q 940 -82 843 -68 q 1122 -87 1013 -89 l 1113 -158 q 1013 -160 1075 -160 q 939 -158 960 -160 m 614 32 q 828 92 738 32 q 968 260 919 151 q 1017 510 1017 368 q 967 763 1017 656 q 827 929 918 871 q 614 988 736 988 q 403 927 493 988 q 263 756 313 867 q 214 494 214 644 q 263 251 214 356 q 403 90 313 147 q 614 32 493 32 z "},"R":{"ha":983,"x_min":131,"x_max":954,"o":"m 131 -25 l 131 1033 l 554 1033 q 810 963 724 1033 q 896 757 896 893 q 651 481 896 525 l 954 -24 l 804 -24 l 526 472 l 260 472 l 258 -25 l 131 -25 m 543 551 q 708 606 650 551 q 765 763 765 661 q 710 905 765 854 q 560 956 654 956 l 260 956 l 260 551 l 543 551 z "},"S":{"ha":946,"x_min":89,"x_max":865,"o":"m 439 -57 q 99 10 268 -57 l 100 157 l 114 156 q 467 22 231 22 q 740 225 715 22 q 742 243 742 231 q 722 324 742 281 q 669 389 703 365 q 592 427 636 413 q 442 469 549 442 q 272 517 297 508 q 134 620 179 547 q 97 797 89 693 q 154 933 103 872 q 288 1029 206 994 q 469 1064 371 1064 q 689 1039 593 1064 q 814 983 767 1017 l 814 842 l 800 842 q 663 954 751 914 q 494 986 586 986 q 300 931 379 986 q 221 775 221 875 q 331 622 221 664 q 507 571 436 589 q 689 519 613 546 q 821 424 776 490 q 865 261 865 358 q 740 7 865 85 q 439 -57 639 -57 z "},"T":{"ha":1043,"x_min":29,"x_max":1007,"o":"m 583 -29 l 456 -29 l 456 946 l 29 946 l 29 1028 l 1007 1028 l 1007 946 l 583 946 l 583 -29 z "},"U":{"ha":1154,"x_min":122,"x_max":1031,"o":"m 583 -49 q 235 36 347 -47 q 122 299 122 119 l 122 1032 l 251 1032 l 251 306 q 326 103 251 165 q 582 33 407 33 q 840 107 747 33 q 932 324 932 181 l 932 1031 l 1031 1032 l 1031 322 q 583 -49 1031 -49 z "},"V":{"ha":1043,"x_min":35,"x_max":1006,"o":"m 583 -26 l 447 -26 l 35 1032 l 175 1032 l 519 115 l 544 115 l 896 1029 l 1006 1029 l 583 -26 z "},"W":{"ha":1279,"x_min":28,"x_max":1254,"o":"m 400 -29 l 275 -29 l 28 1033 l 161 1033 l 357 153 l 574 1028 l 725 1028 l 936 154 l 1150 1032 l 1254 1032 l 972 -29 l 853 -29 l 633 896 l 400 -29 z "},"X":{"ha":1043,"x_min":24,"x_max":1017,"o":"m 138 -29 l 24 -29 l 432 503 l 42 1031 l 193 1031 l 518 589 l 840 1031 l 965 1031 l 585 526 l 1017 -28 l 853 -28 l 501 439 l 138 -29 z "},"Y":{"ha":960,"x_min":31,"x_max":933,"o":"m 549 -29 l 422 -29 l 422 436 l 31 1032 l 176 1032 l 506 522 l 821 1032 l 933 1032 l 549 438 l 549 -29 z "},"Z":{"ha":988,"x_min":72,"x_max":917,"o":"m 915 -28 l 72 -28 l 72 82 l 765 946 l 97 946 l 97 1028 l 917 1028 l 917 938 l 204 60 l 915 60 l 915 -28 z "},"a":{"ha":932,"x_min":97,"x_max":915,"o":"m 364 -44 q 193 -6 261 -44 q 100 126 114 38 q 97 174 97 157 q 289 406 97 343 q 428 432 338 424 l 582 449 q 636 475 622 451 l 636 546 q 583 638 636 607 q 425 669 529 669 q 275 638 360 669 q 151 568 200 610 l 140 568 l 140 676 q 243 715 158 685 q 446 742 331 742 q 754 539 754 742 l 754 126 q 769 65 754 88 q 810 43 785 43 q 906 92 850 43 l 915 19 q 775 -43 860 -43 q 668 38 706 -43 q 526 -31 607 -12 q 364 -44 472 -42 m 374 31 q 553 57 475 26 q 640 147 640 92 l 640 404 q 585 383 624 390 q 450 365 517 376 q 329 335 389 357 q 211 179 211 289 q 215 144 211 161 q 272 63 225 93 q 374 31 318 32 z "},"b":{"ha":974,"x_min":119,"x_max":899,"o":"m 504 -56 q 218 33 332 -56 l 196 -33 l 119 -33 l 119 1060 l 243 1060 l 243 644 q 496 740 360 738 q 899 339 899 740 q 801 51 899 150 q 504 -56 701 -56 m 501 22 q 702 113 632 22 q 772 347 772 203 q 715 563 772 483 q 504 661 647 661 q 379 633 440 661 q 279 563 318 606 q 240 475 240 519 l 240 217 q 321 72 240 126 q 501 22 393 22 z "},"c":{"ha":863,"x_min":75,"x_max":824,"o":"m 486 -61 q 183 40 292 -61 q 75 343 75 143 q 214 650 75 540 q 503 746 336 746 q 792 681 661 746 l 792 558 l 771 558 q 514 671 665 671 q 276 568 365 671 q 199 354 199 478 q 271 125 199 211 q 489 31 349 31 q 665 67 578 31 q 797 164 751 103 l 808 164 l 824 85 q 685 -19 783 24 q 486 -61 586 -61 z "},"d":{"ha":974,"x_min":74,"x_max":850,"o":"m 471 -50 q 165 57 269 -50 q 74 314 74 150 q 174 621 74 511 q 489 739 283 739 q 728 653 618 736 l 728 1060 l 850 1060 l 850 -35 l 760 -35 l 744 46 q 613 -29 674 -8 q 471 -50 553 -50 m 483 32 q 660 81 589 32 q 732 217 732 131 l 732 476 q 697 567 732 524 q 603 635 661 610 q 479 661 544 661 q 260 554 335 661 q 200 331 200 467 q 274 112 200 192 q 483 32 349 32 z "},"e":{"ha":918,"x_min":79,"x_max":854,"o":"m 488 -51 q 194 44 303 -51 q 79 328 79 144 q 193 644 79 532 q 482 750 299 747 q 764 639 665 750 q 854 338 854 540 l 207 338 q 238 180 204 247 q 335 76 271 113 q 483 39 399 39 q 665 74 575 39 q 801 169 756 110 l 813 169 l 836 97 q 683 -15 789 25 q 488 -51 592 -51 m 726 418 q 667 594 722 529 q 474 675 599 675 q 289 594 361 675 q 211 418 228 528 l 726 418 z "},"f":{"ha":581,"x_min":47,"x_max":557,"o":"m 214 -29 l 214 638 l 47 638 l 47 717 l 215 717 l 215 801 q 247 990 215 931 q 418 1071 294 1071 q 557 1042 494 1071 l 557 944 l 546 944 q 424 997 490 997 q 359 963 383 997 q 335 872 335 928 l 335 718 l 529 718 l 529 639 l 335 639 l 335 -28 l 214 -29 z "},"g":{"ha":926,"x_min":82,"x_max":879,"o":"m 481 -157 q 196 -126 283 -157 q 82 17 82 -85 q 181 163 82 101 q 136 249 136 196 q 217 372 136 325 q 136 525 136 432 q 229 690 136 632 q 465 744 314 742 q 683 722 538 744 l 879 722 l 879 644 l 765 644 q 807 532 806 586 q 475 313 807 317 q 279 340 363 313 q 242 275 242 306 q 294 231 242 242 q 464 213 353 218 q 639 199 551 207 q 764 178 711 193 q 879 40 878 140 q 769 -124 879 -81 q 481 -157 683 -157 m 468 389 q 628 427 569 389 q 688 532 688 465 q 628 635 688 597 q 469 672 568 672 q 314 635 371 672 q 257 531 257 597 q 314 427 257 465 q 468 389 371 389 m 504 -85 q 671 -72 614 -85 q 756 19 756 -54 q 708 89 756 68 q 593 108 672 103 l 475 117 l 400 122 q 341 126 381 124 q 272 131 301 129 q 217 101 247 132 q 186 33 186 71 q 251 -53 186 -24 q 504 -85 325 -85 z "},"h":{"ha":939,"x_min":117,"x_max":833,"o":"m 713 476 q 525 651 713 651 q 367 616 444 651 q 240 524 289 581 l 240 -26 l 117 -26 l 117 1065 l 240 1065 l 240 631 q 374 711 296 681 q 524 742 451 742 q 768 672 690 742 q 833 469 833 615 l 833 -28 l 713 -28 l 713 476 z "},"i":{"ha":376,"x_min":108,"x_max":289,"o":"m 199 846 q 135 872 161 846 q 108 935 108 897 q 135 1000 108 974 q 199 1026 161 1026 q 262 999 235 1026 q 289 933 289 971 q 262 872 289 897 q 199 846 235 846 m 257 722 l 257 -31 l 128 -31 l 129 722 l 257 722 z "},"j":{"ha":501,"x_min":24,"x_max":414,"o":"m 322 853 q 258 878 285 853 q 232 943 232 904 q 258 1007 232 981 q 322 1033 285 1033 q 385 1007 358 1033 q 414 944 413 981 q 387 879 414 906 q 322 853 360 853 m 24 -160 l 24 -82 q 186 -62 143 -82 q 257 61 257 -32 l 257 719 l 382 719 l 382 67 q 274 -140 382 -100 q 156 -160 219 -160 l 24 -160 z "},"k":{"ha":822,"x_min":132,"x_max":807,"o":"m 253 -31 l 132 -32 l 132 1054 l 254 1056 l 254 404 l 628 722 l 763 722 l 763 711 l 433 439 l 807 -15 l 807 -28 l 658 -28 l 344 375 l 253 294 l 253 -31 z "},"l":{"ha":369,"x_min":122,"x_max":243,"o":"m 243 -29 l 122 -29 l 122 1056 l 243 1056 l 243 -29 z "},"m":{"ha":1279,"x_min":107,"x_max":1171,"o":"m 107 -24 l 107 725 l 219 725 l 219 631 q 456 739 324 739 q 678 631 621 739 q 915 739 785 739 q 1171 500 1171 739 l 1171 -24 l 1049 -24 l 1049 504 q 908 657 1049 657 q 703 535 797 656 l 703 -24 l 581 -24 l 581 529 q 544 624 581 590 q 443 658 507 658 q 333 628 385 658 q 231 536 281 599 l 231 -24 l 107 -24 z "},"n":{"ha":925,"x_min":110,"x_max":817,"o":"m 110 -26 l 110 726 l 225 726 l 225 631 q 500 743 350 743 q 754 663 682 743 q 817 454 817 596 l 817 -25 l 697 -25 l 697 464 q 647 605 697 554 q 506 656 596 656 q 232 535 338 656 l 232 -26 l 110 -26 z "},"o":{"ha":981,"x_min":78,"x_max":894,"o":"m 481 -47 q 196 43 299 -47 q 78 346 78 149 q 192 646 78 543 q 492 744 301 744 q 779 646 671 744 q 894 354 894 540 q 801 65 894 164 q 481 -47 696 -47 m 482 32 q 703 129 631 32 q 765 354 765 213 q 703 576 765 497 q 490 667 633 667 q 269 572 343 667 q 208 354 208 492 q 272 124 208 204 q 482 32 343 32 z "},"p":{"ha":939,"x_min":121,"x_max":869,"o":"m 121 -160 l 121 722 l 240 722 l 240 646 q 506 742 344 742 q 767 651 668 742 q 869 386 869 557 q 489 26 869 26 q 244 92 354 26 l 244 -160 l 121 -160 m 488 108 q 674 186 608 108 q 736 392 736 257 q 668 592 736 517 q 494 665 601 665 q 376 640 435 665 q 281 572 318 614 q 244 485 244 531 l 244 254 q 326 146 244 188 q 488 108 397 108 z "},"q":{"ha":939,"x_min":79,"x_max":821,"o":"m 696 93 q 454 26 582 26 q 79 378 79 26 q 181 644 79 547 q 439 740 281 740 q 704 644 600 740 l 715 724 l 821 724 l 821 -160 l 696 -160 l 696 93 m 456 106 q 618 147 543 106 q 699 263 699 194 l 699 492 q 664 576 699 538 q 572 638 629 615 q 454 661 515 661 q 281 590 347 661 q 207 382 207 514 q 275 181 207 257 q 456 106 343 106 z "},"r":{"ha":640,"x_min":114,"x_max":617,"o":"m 114 -24 l 114 724 l 229 724 l 231 613 q 488 732 338 732 q 617 718 558 732 l 617 600 l 604 600 q 449 636 538 636 q 319 599 382 636 q 236 514 257 561 l 236 -24 l 114 -24 z "},"s":{"ha":771,"x_min":74,"x_max":714,"o":"m 382 -47 q 82 25 231 -47 l 82 149 l 99 149 q 371 29 200 29 q 597 154 579 29 l 599 171 q 574 241 599 211 q 507 281 550 271 q 228 332 383 301 q 74 511 74 369 q 161 682 74 622 q 385 743 243 743 q 667 688 536 743 l 667 571 l 651 571 q 400 669 540 669 q 248 636 306 669 q 188 542 190 603 q 278 435 181 457 l 569 381 q 683 303 644 364 q 714 189 714 251 q 596 -6 714 54 q 382 -47 513 -47 z "},"t":{"ha":614,"x_min":33,"x_max":588,"o":"m 396 -47 q 276 -18 317 -47 q 219 117 219 22 l 219 638 l 33 638 l 33 715 l 221 715 l 221 908 l 340 957 l 340 715 l 569 715 l 569 638 l 340 638 l 340 115 q 372 57 340 78 q 428 43 399 43 q 574 75 501 43 l 578 75 l 588 0 q 396 -47 508 -47 z "},"u":{"ha":907,"x_min":96,"x_max":810,"o":"m 417 -46 q 160 38 238 -46 q 96 246 96 106 l 96 719 l 218 719 l 218 232 q 273 94 218 146 q 419 43 328 43 q 689 169 579 43 l 689 718 l 810 718 l 810 -25 l 693 -26 l 693 65 q 417 -46 567 -46 z "},"v":{"ha":860,"x_min":25,"x_max":833,"o":"m 488 -32 l 363 -32 l 25 721 l 164 721 l 442 75 l 718 721 l 833 721 l 488 -32 z "},"w":{"ha":1140,"x_min":24,"x_max":1111,"o":"m 363 -25 l 253 -25 l 24 721 l 153 721 l 326 128 l 517 718 l 656 718 l 826 129 l 1008 721 l 1111 721 l 863 -25 l 754 -25 l 572 603 l 363 -25 z "},"x":{"ha":904,"x_min":26,"x_max":879,"o":"m 144 -26 l 26 -26 l 26 -19 l 379 357 l 68 713 l 68 724 l 217 724 l 468 424 l 715 724 l 839 724 l 839 718 l 528 369 l 879 -14 l 879 -26 l 722 -26 l 443 296 l 144 -26 z "},"y":{"ha":829,"x_min":25,"x_max":803,"o":"m 350 -160 l 246 -160 l 358 61 l 25 721 l 165 721 l 426 181 l 690 721 l 803 721 l 350 -160 z "},"z":{"ha":835,"x_min":56,"x_max":785,"o":"m 785 -25 l 56 -25 l 56 67 l 604 638 l 79 638 l 79 718 l 768 718 l 768 643 l 201 58 l 785 58 l 785 -25 z "},"一":{"ha":1389,"x_min":69,"x_max":1308,"o":"m 1308 496 l 69 496 l 69 581 l 1308 581 l 1308 496 z "},"丁":{"ha":1389,"x_min":82,"x_max":1303,"o":"m 457 -72 l 439 24 l 594 24 q 658 79 658 24 l 658 944 l 82 944 l 82 1021 l 1303 1021 l 1303 944 l 771 944 l 771 38 q 735 -42 771 -12 q 639 -72 699 -72 l 457 -72 z "},"七":{"ha":1389,"x_min":68,"x_max":1306,"o":"m 824 -50 q 533 -40 640 -50 q 447 2 483 -37 q 411 94 411 42 l 411 614 l 72 585 l 68 661 l 411 692 l 411 1089 l 524 1089 l 524 701 l 1301 767 l 1306 692 l 524 622 l 524 122 q 599 51 524 57 q 839 44 686 44 l 892 44 q 1056 51 1007 44 q 1136 131 1125 61 q 1146 318 1143 165 l 1246 300 l 1246 83 q 1088 -42 1246 -28 q 824 -50 996 -50 z "},"万":{"ha":1389,"x_min":49,"x_max":1303,"o":"m 49 -10 q 352 304 251 97 q 453 779 453 511 l 453 982 l 83 982 l 83 1057 l 1303 1057 l 1303 982 l 568 982 l 568 797 q 565 704 568 768 l 1185 704 q 1182 469 1185 622 q 1101 36 1182 133 q 901 -46 1039 -46 l 744 -46 l 728 49 l 888 49 q 1018 114 981 49 q 1058 238 1049 167 q 1071 451 1067 310 l 1074 629 l 560 629 q 410 201 533 386 q 85 -69 286 17 l 49 -10 z "},"丈":{"ha":1389,"x_min":46,"x_max":1310,"o":"m 46 -8 q 349 96 214 26 q 565 274 485 165 q 308 625 418 417 l 378 660 q 614 354 476 488 q 662 534 651 433 q 672 794 672 635 l 83 794 l 83 869 l 672 869 l 672 1119 l 786 1119 l 786 869 l 1297 869 l 1297 794 l 788 794 q 770 504 790 633 q 699 283 750 375 q 973 126 826 183 q 1310 32 1119 68 l 1243 -69 q 643 206 906 -10 q 71 -76 451 -10 l 46 -8 z "},"三":{"ha":1389,"x_min":85,"x_max":1300,"o":"m 1226 992 l 1226 914 l 154 914 l 154 992 l 1226 992 m 1161 544 l 1161 468 l 207 468 l 207 544 l 1161 544 m 1300 56 l 1300 -22 l 85 -22 l 85 56 l 1300 56 z "},"上":{"ha":1389,"x_min":74,"x_max":1307,"o":"m 1307 -37 l 74 -37 l 74 38 l 599 38 l 599 1111 l 713 1111 l 713 726 l 1194 726 l 1194 650 l 713 650 l 713 38 l 1307 38 l 1307 -37 z "},"下":{"ha":1389,"x_min":82,"x_max":1297,"o":"m 590 -86 l 590 969 l 82 969 l 82 1044 l 1297 1044 l 1297 969 l 703 969 l 703 715 q 1179 490 946 629 l 1097 394 q 703 633 1004 472 l 703 -86 l 590 -86 z "},"不":{"ha":1389,"x_min":57,"x_max":1322,"o":"m 635 707 q 392 473 535 586 q 97 279 249 360 l 57 339 q 510 717 307 483 q 689 985 621 844 l 75 985 l 75 1061 l 1300 1061 l 1300 985 l 824 985 q 685 768 744 846 l 744 768 l 744 -93 l 635 -93 l 635 707 m 1222 297 q 793 651 1043 485 l 842 706 q 1083 564 965 644 q 1322 382 1210 479 l 1222 297 z "},"与":{"ha":1389,"x_min":64,"x_max":1221,"o":"m 678 -72 l 657 17 l 853 17 q 992 107 956 17 q 1024 283 1014 160 q 1033 535 1033 407 l 1033 588 l 208 588 l 300 1118 l 415 1118 l 388 968 l 1221 968 l 1221 896 l 375 896 l 333 660 l 1147 660 l 1147 596 q 1133 258 1147 413 q 1082 33 1118 103 q 892 -72 1025 -72 l 678 -72 m 899 306 l 64 306 l 64 379 l 899 379 l 899 306 z "},"丐":{"ha":1389,"x_min":63,"x_max":1318,"o":"m 771 -81 l 747 18 l 925 18 q 1067 100 1025 18 q 1106 438 1108 181 l 150 438 l 156 900 l 265 900 l 261 511 l 626 511 l 626 1003 l 63 1003 l 63 1074 l 1318 1074 l 1318 1003 l 738 1003 l 738 801 l 1236 801 l 1236 725 l 738 725 l 738 511 l 1217 511 l 1217 446 q 1163 43 1217 146 q 969 -81 1100 -81 l 771 -81 z "},"丑":{"ha":1389,"x_min":81,"x_max":1286,"o":"m 1286 -51 l 81 -51 l 81 22 l 311 22 l 371 515 l 190 515 l 190 589 l 381 589 l 428 978 l 169 978 l 169 1051 l 1139 1051 l 1118 22 l 1286 22 l 1286 -51 m 538 978 l 490 589 l 1019 589 l 1028 978 l 538 978 m 481 515 l 421 22 l 1006 22 l 1017 515 l 481 515 z "},"专":{"ha":1389,"x_min":75,"x_max":1322,"o":"m 1322 622 l 451 622 l 394 442 l 1175 442 l 1217 386 q 885 76 1079 204 q 1057 -4 972 43 l 992 -96 q 688 49 864 -25 q 388 161 511 124 l 421 219 q 804 108 608 179 q 1054 368 967 238 l 257 368 l 339 622 l 75 622 l 75 700 l 364 700 l 421 879 l 142 879 l 142 954 l 444 954 l 499 1121 l 611 1121 l 558 954 l 1256 954 l 1256 879 l 533 879 l 476 700 l 1322 700 l 1322 622 z "},"且":{"ha":1389,"x_min":50,"x_max":1335,"o":"m 1335 -44 l 50 -44 l 50 29 l 192 29 l 192 1081 l 1188 1081 l 1188 29 l 1335 29 l 1335 -44 m 300 1008 l 300 746 l 1076 746 l 1076 1008 l 300 1008 m 300 676 l 300 404 l 1076 404 l 1076 676 l 300 676 m 300 333 l 300 29 l 1076 29 l 1076 333 l 300 333 z "},"世":{"ha":1389,"x_min":61,"x_max":1317,"o":"m 1282 -56 l 219 -56 l 219 699 l 61 699 l 61 774 l 219 774 l 219 1076 l 328 1076 l 328 774 l 603 774 l 603 1099 l 710 1099 l 710 774 l 985 774 l 985 1101 l 1094 1101 l 1094 774 l 1317 774 l 1317 699 l 1094 699 l 1094 289 l 603 289 l 603 699 l 328 699 l 328 19 l 1282 19 l 1282 -56 m 710 699 l 710 363 l 985 363 l 985 699 l 710 699 z "},"丘":{"ha":1389,"x_min":44,"x_max":1335,"o":"m 44 -54 l 44 22 l 222 22 l 222 953 q 657 1013 375 964 q 1058 1100 939 1063 l 1107 1013 q 728 942 988 982 q 333 896 469 903 l 333 656 l 1299 656 l 1299 578 l 1067 578 l 1067 22 l 1335 22 l 1335 -54 l 44 -54 m 333 578 l 333 22 l 956 22 l 956 578 l 333 578 z "},"丙":{"ha":1389,"x_min":69,"x_max":1314,"o":"m 133 -79 l 133 794 l 626 794 l 626 985 l 69 985 l 69 1063 l 1314 1063 l 1314 985 l 739 985 l 739 794 l 1249 794 l 1249 40 q 1213 -35 1249 -4 q 1124 -65 1176 -65 l 954 -65 l 932 35 l 1078 35 q 1138 90 1138 35 l 1138 718 l 731 718 q 724 671 729 700 q 925 491 822 592 q 1100 301 1028 390 l 1000 238 q 864 413 947 314 q 701 592 781 511 q 651 490 682 535 q 317 206 540 310 l 279 265 q 569 547 476 363 q 621 718 613 626 l 244 718 l 244 -79 l 133 -79 z "},"业":{"ha":1389,"x_min":58,"x_max":1324,"o":"m 1324 -49 l 58 -49 l 58 29 l 483 29 l 483 1121 l 592 1121 l 592 29 l 782 29 l 782 1121 l 890 1121 l 890 29 l 1324 29 l 1324 -49 m 990 281 q 1142 843 1054 453 l 1260 814 q 1173 533 1232 699 q 1061 261 1114 368 l 990 281 m 269 269 q 203 558 240 417 q 129 804 167 700 l 201 833 q 304 585 254 729 q 388 294 354 440 l 269 269 z "},"丛":{"ha":1389,"x_min":54,"x_max":1326,"o":"m 425 522 q 101 79 350 231 l 67 128 q 279 398 211 226 q 347 757 347 569 l 347 1101 l 456 1101 l 456 799 q 439 593 456 692 q 692 365 613 474 l 601 304 q 425 522 542 408 m 529 126 q 787 399 688 232 q 886 749 886 565 l 886 1101 l 996 1101 l 996 797 q 994 768 996 778 q 1092 428 1008 588 q 1319 161 1176 269 l 1236 81 q 1059 297 1129 174 q 964 561 989 419 q 820 289 921 408 q 565 76 719 169 l 529 126 m 54 -58 l 54 17 l 1326 17 l 1326 -58 l 54 -58 z "},"东":{"ha":1389,"x_min":51,"x_max":1339,"o":"m 1210 461 l 785 461 l 785 40 q 754 -44 785 -14 q 667 -74 724 -74 l 486 -74 l 467 17 l 622 17 q 663 33 649 17 q 678 76 678 49 l 678 461 l 203 461 l 378 894 l 99 894 l 99 968 l 408 968 l 476 1136 l 590 1133 l 522 968 l 1289 968 l 1289 894 l 493 894 l 344 533 l 678 533 l 678 757 l 785 757 l 785 533 l 1210 533 l 1210 461 m 486 321 q 308 135 421 224 q 89 0 194 46 l 51 54 q 239 196 143 106 q 388 375 335 286 l 486 321 m 1001 369 q 1183 226 1093 307 q 1339 64 1272 146 l 1240 -10 q 1104 165 1181 75 q 953 325 1028 254 l 1001 369 z "},"丝":{"ha":1389,"x_min":67,"x_max":1317,"o":"m 94 668 l 172 671 q 369 1126 290 901 l 478 1096 q 256 674 375 867 l 335 678 l 461 685 q 565 876 522 792 l 672 835 q 494 563 592 704 q 297 299 396 422 l 593 317 l 649 319 l 647 261 q 393 227 526 243 q 113 196 260 211 l 97 286 q 204 293 174 292 q 419 615 301 422 q 299 598 368 606 q 201 586 231 590 q 110 576 138 581 l 94 668 m 649 660 l 732 663 q 849 897 796 778 q 935 1118 901 1015 l 1043 1086 q 815 665 953 874 q 1025 676 914 669 q 1135 879 1088 786 l 1242 836 q 1049 538 1139 672 q 864 289 958 404 q 1050 299 925 293 l 1250 310 l 1249 250 q 806 199 1099 228 l 697 188 l 682 278 q 769 283 711 281 q 982 604 878 429 q 765 579 942 599 l 664 568 l 649 660 m 67 -37 l 67 39 l 1317 39 l 1317 -37 l 67 -37 z "},"丞":{"ha":1389,"x_min":51,"x_max":1326,"o":"m 232 1018 l 231 1089 l 1039 1089 l 1086 1033 q 753 818 947 911 l 753 782 q 888 586 804 688 q 1175 842 1064 717 l 1265 772 q 931 538 1147 667 q 1124 368 1036 432 q 1326 249 1211 304 l 1243 160 q 753 661 913 342 l 753 219 q 717 142 753 169 q 626 114 681 114 l 482 113 l 464 208 l 583 208 q 628 222 613 208 q 643 258 643 235 l 643 869 l 725 869 q 917 1018 825 926 l 232 1018 m 551 764 q 396 413 510 558 q 89 156 282 268 l 51 210 q 294 435 193 300 q 418 711 396 571 l 108 711 l 108 783 l 540 782 l 551 764 m 1246 -46 l 135 -46 l 135 29 l 1246 29 l 1246 -46 z "},"丢":{"ha":1389,"x_min":75,"x_max":1322,"o":"m 633 421 q 364 32 533 222 q 1083 65 865 46 q 882 283 986 188 l 938 326 q 1139 160 1035 258 q 1296 -19 1243 61 l 1186 -82 q 1131 3 1164 -44 q 631 -39 944 -18 q 104 -69 318 -60 l 88 25 l 265 29 q 503 421 410 215 l 75 421 l 75 492 l 626 492 l 626 688 l 144 688 l 144 757 l 626 757 l 626 947 q 124 932 375 932 l 114 999 q 697 1030 383 1003 q 1214 1103 1011 1057 l 1271 1021 q 739 956 1075 979 l 739 757 l 1244 757 l 1244 688 l 739 688 l 739 492 l 1322 492 l 1322 421 l 633 421 z "},"两":{"ha":1389,"x_min":60,"x_max":1326,"o":"m 1326 994 l 928 994 l 928 821 l 1256 821 l 1256 35 q 1220 -37 1256 -8 q 1133 -65 1185 -65 l 972 -65 l 951 28 l 1097 28 q 1133 41 1117 28 q 1149 78 1149 54 l 1149 751 l 925 751 q 907 569 922 656 q 1122 219 1076 351 l 1035 182 q 886 478 974 344 q 679 126 829 272 l 632 163 q 825 751 819 382 l 563 751 q 540 563 561 660 q 697 296 653 383 l 611 260 q 514 469 581 343 q 317 151 453 296 l 268 188 q 463 751 454 425 l 243 751 l 243 -83 l 138 -83 l 138 821 l 460 821 l 460 994 l 60 994 l 60 1068 l 1326 1068 l 1326 994 m 565 821 l 824 821 l 824 994 l 565 994 l 565 821 z "},"严":{"ha":1389,"x_min":56,"x_max":1324,"o":"m 56 -33 q 176 203 146 88 q 207 472 207 319 l 207 647 l 567 647 l 567 1008 l 192 1008 l 192 1079 l 1315 1079 l 1315 1008 l 942 1008 l 942 647 l 1324 647 l 1324 574 l 315 574 l 315 483 q 269 184 315 318 q 110 -78 224 50 l 56 -33 m 671 1008 l 671 647 l 838 647 l 838 1008 l 671 1008 m 1021 696 q 1140 965 1089 821 l 1251 939 q 1090 672 1161 765 l 1021 696 m 382 675 q 333 808 367 733 q 269 925 299 883 l 331 953 q 493 710 425 871 l 382 675 z "},"丧":{"ha":1389,"x_min":68,"x_max":1335,"o":"m 988 164 q 1335 32 1144 72 l 1265 -71 q 876 122 1053 -17 q 606 456 699 261 l 376 456 l 376 39 q 781 86 649 63 l 781 15 q 460 -35 669 -8 q 119 -72 250 -62 l 101 22 q 269 31 174 25 l 269 456 l 68 456 l 68 531 l 638 531 l 638 901 l 90 901 l 90 976 l 638 976 l 638 1133 l 747 1133 l 747 976 l 1304 976 l 1304 901 l 747 901 l 747 531 l 1321 531 l 1321 456 l 683 456 q 925 204 775 307 q 1160 413 1051 293 l 1249 350 q 988 164 1132 247 m 957 596 q 1090 861 1040 729 l 1203 824 q 1024 565 1101 656 l 957 596 m 276 856 q 370 744 319 818 q 449 601 421 669 l 336 567 q 214 824 297 704 l 276 856 z "},"个":{"ha":1389,"x_min":22,"x_max":1361,"o":"m 22 624 q 407 875 224 713 q 618 1118 558 1008 l 747 1118 q 1004 872 799 1029 q 1361 676 1157 756 l 1281 583 q 928 818 1103 672 q 704 1044 793 929 q 429 778 600 901 q 54 567 254 650 l 22 624 m 740 -81 l 631 -81 l 631 786 l 740 786 l 740 -81 z "},"丫":{"ha":1389,"x_min":132,"x_max":1274,"o":"m 1274 1056 q 1026 835 1169 943 q 744 647 882 726 l 744 -86 l 632 -86 l 632 701 l 700 701 q 942 889 815 776 q 1176 1126 1069 1001 l 1274 1056 m 176 1119 q 405 967 293 1053 q 603 781 517 881 l 514 706 q 331 906 433 808 q 132 1075 229 1003 l 176 1119 z "},"中":{"ha":1389,"x_min":122,"x_max":1254,"o":"m 742 -85 l 629 -85 l 629 331 l 232 331 l 232 263 l 122 263 l 122 925 l 629 925 l 629 1128 l 742 1128 l 742 925 l 1254 925 l 1254 263 l 1146 263 l 1146 331 l 742 331 l 742 -85 m 232 851 l 232 404 l 629 404 l 629 851 l 232 851 m 742 851 l 742 404 l 1146 404 l 1146 851 l 742 851 z "},"丰":{"ha":1389,"x_min":85,"x_max":1300,"o":"m 749 290 l 1300 290 l 1300 215 l 749 215 l 749 -85 l 638 -85 l 638 215 l 85 215 l 85 290 l 638 290 l 638 557 l 181 557 l 181 631 l 638 631 l 638 868 l 126 868 l 126 942 l 638 942 l 638 1121 l 749 1121 l 749 942 l 1258 942 l 1258 868 l 749 868 l 749 631 l 1204 631 l 1204 557 l 749 557 l 749 290 z "},"串":{"ha":1389,"x_min":122,"x_max":1257,"o":"m 742 -82 l 632 -82 l 632 163 l 228 163 l 228 117 l 122 117 l 122 538 l 632 538 l 632 668 l 190 668 l 190 1013 l 632 1013 l 632 1124 l 742 1124 l 742 1013 l 1201 1013 l 1201 668 l 742 668 l 742 538 l 1257 538 l 1257 122 l 1146 122 l 1146 163 l 742 163 l 742 -82 m 296 943 l 296 735 l 632 735 l 632 943 l 296 943 m 742 943 l 742 735 l 1092 735 l 1092 943 l 742 943 m 231 469 l 231 232 l 632 232 l 632 469 l 231 469 m 742 469 l 742 232 l 1146 232 l 1146 469 l 742 469 z "},"临":{"ha":1389,"x_min":110,"x_max":1313,"o":"m 446 -81 l 342 -81 l 342 1126 l 446 1126 l 446 -81 m 1313 985 l 1313 914 l 767 914 q 669 741 724 825 q 561 599 615 657 l 506 632 q 640 870 575 725 q 724 1122 706 1015 l 838 1108 q 797 985 825 1051 l 1313 985 m 208 86 l 110 86 l 110 1006 l 208 1006 l 208 86 m 1056 572 q 960 710 1014 640 q 863 824 906 781 l 910 860 q 1031 756 965 818 q 1149 626 1096 694 l 1056 572 m 697 -67 l 596 -67 l 596 517 l 1300 517 l 1300 -67 l 1194 -67 l 1194 -21 l 697 -21 l 697 -67 m 897 450 l 697 450 l 697 47 l 897 47 l 897 450 m 996 47 l 1194 47 l 1194 450 l 996 450 l 996 47 z "},"丸":{"ha":1389,"x_min":64,"x_max":1328,"o":"m 64 -15 q 288 165 190 54 q 429 400 386 275 q 181 571 271 519 l 218 628 q 454 490 339 563 q 482 785 482 621 l 115 785 l 117 857 l 482 857 l 482 1128 l 594 1128 l 594 857 l 1011 857 l 1011 88 q 1064 35 1011 43 q 1107 31 1083 31 q 1168 36 1139 31 q 1225 88 1217 43 q 1236 290 1236 140 l 1328 275 l 1328 60 q 1196 -56 1328 -47 q 1085 -61 1126 -61 q 1003 -54 1044 -61 q 901 63 901 -36 l 901 785 l 593 785 q 549 426 589 563 q 767 250 694 322 l 690 171 q 515 333 618 247 q 349 99 461 210 q 106 -75 238 -11 l 64 -15 z "},"丹":{"ha":1389,"x_min":58,"x_max":1329,"o":"m 74 -37 q 192 186 149 56 q 243 456 235 317 l 58 456 l 58 531 l 246 531 l 246 1065 l 1172 1065 l 1172 531 l 1329 531 l 1329 456 l 1172 456 l 1172 38 q 1136 -42 1172 -14 q 1046 -71 1100 -71 l 847 -71 l 828 25 l 1000 25 q 1047 40 1031 25 q 1063 81 1063 54 l 1063 456 l 347 456 q 131 -85 326 138 l 74 -37 m 350 994 l 350 531 l 1063 531 l 1063 994 l 350 994 m 744 586 q 624 738 700 654 q 496 865 549 822 l 542 913 q 710 794 615 872 q 849 657 806 715 l 744 586 z "},"为":{"ha":1389,"x_min":81,"x_max":1229,"o":"m 639 817 l 1229 817 l 1229 656 q 1167 79 1229 243 q 985 -56 1121 -42 q 782 -58 932 -58 l 760 39 l 931 39 q 1025 71 990 39 q 1079 169 1060 103 q 1115 554 1115 297 l 1115 740 l 639 740 q 115 -65 622 136 l 81 -6 q 525 740 510 196 l 129 740 l 129 817 l 526 817 l 526 1113 l 639 1113 l 639 817 m 357 861 q 185 1057 304 950 l 229 1094 q 345 1022 283 1071 q 444 922 407 972 l 357 861 m 871 246 q 801 400 844 322 q 715 535 758 478 l 772 572 q 885 444 829 521 q 974 292 940 368 l 871 246 z "},"主":{"ha":1389,"x_min":75,"x_max":1310,"o":"m 744 35 l 1310 35 l 1310 -42 l 75 -42 l 75 35 l 629 35 l 629 411 l 178 411 l 178 485 l 629 485 l 629 800 l 142 800 l 142 875 l 694 875 q 475 1107 606 1004 l 529 1151 q 803 940 693 1071 l 699 875 l 1242 875 l 1242 800 l 744 800 l 744 485 l 1197 485 l 1197 411 l 744 411 l 744 35 z "},"丽":{"ha":1389,"x_min":90,"x_max":1319,"o":"m 1319 1017 l 90 1017 l 90 1090 l 1319 1090 l 1319 1017 m 133 -65 l 133 869 l 619 869 l 619 42 q 589 -25 619 1 q 508 -51 558 -51 l 389 -51 l 371 40 l 465 40 q 500 53 483 40 q 517 86 517 67 l 517 801 l 239 801 l 239 -65 l 133 -65 m 774 -65 l 774 869 l 1268 869 l 1268 42 q 1237 -26 1268 -1 q 1157 -51 1206 -51 l 1022 -51 l 1007 40 l 1111 40 q 1147 53 1129 40 q 1164 86 1164 67 l 1164 801 l 878 801 l 878 -65 l 774 -65 m 389 324 q 340 479 368 401 q 279 617 311 557 l 336 643 q 419 506 381 583 q 481 351 457 428 l 389 324 m 1031 324 q 981 478 1011 399 q 918 617 950 557 l 976 643 q 1058 508 1021 586 q 1122 351 1096 431 l 1031 324 z "},"举":{"ha":1389,"x_min":24,"x_max":1367,"o":"m 650 865 q 606 987 638 917 q 546 1103 575 1057 l 547 1108 l 610 1132 q 694 1026 646 1099 q 763 901 742 954 l 650 865 m 536 768 q 324 554 447 653 q 56 388 200 456 l 24 439 q 235 590 132 497 q 400 768 338 682 l 64 768 l 64 840 l 261 840 q 140 1069 214 967 l 142 1075 l 200 1103 q 293 1005 244 1067 q 378 869 342 943 l 293 840 l 967 840 q 1118 1119 1060 978 l 1239 1092 q 1061 840 1146 938 l 1326 840 l 1326 768 l 956 768 q 1367 472 1149 560 l 1286 381 q 1058 548 1167 446 q 864 768 949 650 l 536 768 m 1079 419 l 746 419 l 746 240 l 1311 240 l 1311 171 l 746 171 l 746 -90 l 638 -90 l 638 171 l 74 171 l 74 240 l 638 240 l 638 419 l 281 419 l 281 488 l 638 488 l 638 643 l 746 643 l 746 488 l 1079 488 l 1079 419 z "},"乃":{"ha":1389,"x_min":74,"x_max":1260,"o":"m 74 -15 q 306 268 229 100 q 414 672 383 436 q 429 983 431 801 l 135 983 l 135 1054 l 1046 1054 l 1058 1044 l 975 650 l 1260 650 q 1251 231 1260 351 q 1213 42 1243 110 q 1046 -53 1171 -49 q 844 -56 992 -56 l 824 39 l 990 39 q 1125 146 1104 44 q 1145 310 1140 224 q 1150 578 1150 396 l 861 578 l 850 590 l 931 983 l 542 983 q 490 467 542 664 q 117 -69 397 124 l 74 -15 z "},"久":{"ha":1389,"x_min":61,"x_max":1314,"o":"m 63 -7 q 394 201 232 68 q 660 485 556 335 q 818 850 776 653 l 426 850 q 285 642 360 735 q 108 457 210 549 l 61 501 q 301 832 192 636 q 422 1132 389 994 l 543 1117 q 465 921 511 1015 l 932 921 l 954 899 q 799 504 907 685 q 1021 234 883 360 q 1314 28 1158 108 l 1221 -65 q 948 167 1074 36 q 753 435 822 299 q 469 148 647 283 q 99 -68 292 13 l 63 -7 z "},"么":{"ha":1389,"x_min":97,"x_max":1314,"o":"m 683 1075 q 451 694 592 875 q 147 376 310 513 l 97 428 q 368 744 242 561 q 569 1122 494 928 l 683 1075 m 1194 -76 l 1181 -44 l 1146 29 q 673 -24 956 3 q 178 -60 390 -50 l 157 46 q 331 50 239 46 q 593 409 476 224 q 813 815 710 594 l 932 765 q 704 386 826 558 q 439 54 582 214 q 797 74 614 61 q 1110 100 981 86 q 915 414 1013 289 l 981 456 q 1169 215 1076 349 q 1314 -32 1261 82 l 1194 -76 z "},"义":{"ha":1389,"x_min":74,"x_max":1313,"o":"m 713 807 q 603 972 663 893 q 492 1099 543 1050 l 540 1144 q 682 1027 611 1099 q 810 872 753 956 l 713 807 m 1240 -51 q 701 219 922 57 q 103 -56 454 33 l 74 8 q 626 279 399 99 q 294 740 403 471 q 208 1051 238 879 l 288 1069 q 367 792 313 914 q 706 346 481 521 q 993 751 888 514 q 1088 1083 1057 900 l 1203 1061 q 1094 700 1175 871 q 785 288 985 463 q 1313 49 992 150 l 1240 -51 z "},"之":{"ha":1389,"x_min":38,"x_max":1344,"o":"m 38 -10 q 208 260 114 85 l 282 267 q 318 214 296 240 q 363 169 340 188 q 718 438 517 268 q 1076 807 949 632 l 143 807 l 142 881 l 622 881 l 622 1118 l 731 1118 l 731 881 l 1182 881 l 1238 826 q 850 428 1111 643 q 428 128 642 257 q 522 86 482 97 q 654 57 561 75 q 1042 36 758 36 q 1344 42 1178 36 l 1311 -60 q 933 -57 1025 -60 q 583 -25 697 -53 q 264 176 379 22 q 122 -67 183 10 l 38 -10 z "},"乌":{"ha":1389,"x_min":74,"x_max":1286,"o":"m 1285 507 q 1286 400 1286 471 q 1281 192 1286 267 q 1232 -6 1272 61 q 1097 -76 1192 -74 l 889 -78 l 868 13 l 1046 13 q 1138 55 1113 13 q 1169 189 1164 97 q 1174 339 1174 285 q 1172 432 1174 399 l 228 432 l 228 1011 l 536 1011 q 589 1157 568 1086 l 703 1139 q 619 1011 679 1096 l 1149 1011 l 1149 953 q 1139 710 1149 825 q 1103 631 1133 657 q 1013 604 1072 604 l 851 604 l 831 689 l 968 689 q 1013 701 999 689 q 1029 742 1026 714 q 1039 940 1042 839 l 339 940 l 339 507 l 1285 507 m 74 260 l 1057 260 l 1057 185 l 74 185 l 74 260 z "},"乍":{"ha":1389,"x_min":32,"x_max":1321,"o":"m 590 -83 l 590 857 l 393 857 q 267 681 328 751 q 82 494 206 610 l 32 546 q 253 819 150 654 q 400 1140 356 983 l 522 1121 q 436 931 488 1024 l 1321 931 l 1321 857 l 701 857 l 701 644 l 1231 644 l 1231 572 l 701 572 l 701 349 l 1282 349 l 1282 276 l 701 276 l 701 -83 l 590 -83 z "},"乎":{"ha":1389,"x_min":61,"x_max":1324,"o":"m 449 -83 l 426 14 l 582 14 q 627 31 608 14 q 646 74 646 47 l 646 399 l 61 399 l 61 474 l 646 474 l 646 965 q 129 940 429 947 l 117 1013 q 1157 1131 867 1038 l 1219 1040 q 756 974 1078 1003 l 756 474 l 1324 474 l 1324 399 l 756 399 l 756 32 q 614 -83 756 -83 l 449 -83 m 929 546 q 1094 904 1028 718 l 1214 864 q 997 518 1096 635 l 929 546 m 357 526 q 295 689 339 592 q 217 839 251 786 l 282 871 q 474 564 404 738 l 357 526 z "},"乏":{"ha":1389,"x_min":38,"x_max":1347,"o":"m 1142 1022 q 688 954 975 979 q 150 926 401 929 l 140 994 q 656 1029 389 1001 q 1086 1103 924 1057 l 1142 1022 m 1046 36 q 1347 42 1199 36 l 1313 -57 q 942 -54 1097 -57 q 582 -24 672 -46 q 264 176 381 24 q 124 -67 193 22 l 38 -10 q 215 261 108 68 l 282 268 q 376 161 321 208 q 769 413 556 258 q 1082 675 983 567 l 139 675 l 139 749 l 614 749 l 614 897 l 724 897 l 724 749 l 1179 749 l 1242 685 q 924 408 1161 589 q 440 118 754 281 q 660 53 524 75 q 965 36 776 36 l 1046 36 z "},"乐":{"ha":1389,"x_min":53,"x_max":1350,"o":"m 1278 506 l 782 506 l 782 26 q 747 -51 782 -22 q 658 -81 711 -81 l 486 -81 l 467 13 l 615 13 q 653 28 636 13 q 671 65 671 44 l 671 506 l 165 506 l 265 1015 q 725 1042 492 1017 q 1149 1117 958 1068 l 1201 1022 q 794 967 1042 988 q 361 944 547 946 l 292 582 l 671 582 l 671 839 l 782 839 l 782 582 l 1278 582 l 1278 506 m 501 381 q 312 149 418 258 q 99 -25 206 39 l 53 31 q 242 206 153 101 q 390 422 331 310 l 501 381 m 971 418 q 1167 261 1067 356 q 1350 64 1267 167 l 1246 -3 q 1090 195 1192 79 q 918 371 989 311 l 971 418 z "},"乒":{"ha":1389,"x_min":49,"x_max":1317,"o":"m 64 274 l 64 349 l 240 349 l 240 1008 q 675 1054 399 1015 q 1056 1129 938 1092 l 1113 1044 q 742 985 969 1008 q 351 947 479 954 l 351 810 l 1267 810 l 1267 733 l 1047 733 l 1047 349 l 1317 349 l 1317 274 l 64 274 m 351 733 l 351 349 l 935 349 l 935 733 l 351 733 m 49 -18 q 290 94 174 25 q 474 232 407 164 l 568 165 q 342 16 478 83 q 82 -82 207 -51 l 49 -18 z "},"乓":{"ha":1389,"x_min":64,"x_max":1328,"o":"m 64 274 l 64 349 l 240 349 l 240 1008 q 675 1054 399 1015 q 1056 1129 938 1092 l 1113 1044 q 742 985 969 1008 q 351 947 479 954 l 351 810 l 1267 810 l 1267 733 l 1047 733 l 1047 349 l 1317 349 l 1317 274 l 64 274 m 351 733 l 351 349 l 935 349 l 935 733 l 351 733 m 1251 -86 q 1015 29 1153 -53 q 799 183 878 111 l 860 238 q 1083 110 950 174 q 1328 11 1215 46 l 1251 -86 z "},"乔":{"ha":1389,"x_min":42,"x_max":1354,"o":"m 1274 315 q 998 490 1128 389 q 806 693 868 590 l 582 693 q 352 479 485 575 q 72 326 219 383 l 42 383 q 263 509 151 426 q 458 693 375 592 l 85 693 l 85 767 l 514 767 q 608 961 578 858 q 175 943 385 946 l 164 1013 q 644 1040 397 1014 q 1104 1115 961 1072 l 1154 1032 q 729 971 1031 996 q 635 767 697 864 l 1303 767 l 1303 693 l 896 693 q 1097 530 975 604 q 1354 408 1219 456 l 1274 315 m 993 -82 l 885 -82 l 885 472 l 993 472 l 993 -82 m 158 -40 q 310 93 267 19 q 354 286 354 167 l 354 463 l 460 463 l 460 272 q 394 46 460 138 q 197 -99 329 -46 l 158 -40 z "},"乖":{"ha":1389,"x_min":46,"x_max":1322,"o":"m 628 -93 l 628 772 l 74 772 l 75 846 l 628 846 l 628 979 q 196 963 389 967 l 185 1025 q 1128 1115 799 1051 l 1172 1035 q 736 988 1031 1007 l 736 846 l 1299 846 l 1299 772 l 736 772 l 736 -93 l 628 -93 m 367 183 q 71 81 249 135 l 46 174 q 367 257 179 203 l 367 488 l 99 488 l 99 557 l 367 557 l 367 683 l 474 683 l 474 25 l 367 25 l 367 183 m 1197 36 q 1114 33 1171 33 q 989 39 1046 33 q 909 74 936 44 q 882 158 882 104 l 882 681 l 988 681 l 988 471 q 1257 610 1156 539 l 1321 531 q 988 404 1186 461 l 988 183 q 1043 124 988 132 q 1100 119 1071 119 q 1161 124 1131 119 q 1226 183 1222 132 q 1235 303 1232 246 l 1322 285 l 1322 154 q 1197 36 1322 47 z "},"乘":{"ha":1389,"x_min":42,"x_max":1347,"o":"m 624 301 q 376 108 526 200 q 71 -46 225 15 l 42 8 q 264 133 144 56 q 482 297 383 210 q 624 460 581 383 l 624 804 l 67 804 l 67 876 l 624 876 l 624 979 q 192 964 325 963 l 182 1026 q 1118 1114 736 1035 l 1171 1033 q 732 985 1026 1003 l 732 876 l 1308 876 l 1308 804 l 732 804 l 732 444 q 869 298 774 375 q 1092 154 965 221 q 1347 49 1218 88 l 1274 -44 q 960 123 1101 25 q 732 340 818 221 l 732 -85 l 624 -85 l 624 301 m 61 386 q 389 471 214 417 l 389 594 l 100 594 l 100 658 l 389 658 l 389 746 l 492 746 l 492 331 l 389 331 l 389 404 q 86 304 343 388 l 61 386 m 1194 313 q 1099 310 1128 310 q 971 315 1049 310 q 865 417 865 326 l 865 739 l 968 739 l 968 610 q 1228 715 1124 657 l 1283 639 q 968 547 1085 571 l 968 438 q 1024 388 968 393 q 1101 385 1082 385 q 1165 388 1129 385 q 1231 433 1222 397 q 1238 533 1233 451 l 1318 517 l 1318 403 q 1194 313 1318 321 z "},"乙":{"ha":1389,"x_min":143,"x_max":1251,"o":"m 626 -57 q 286 -33 396 -57 q 143 132 143 -4 q 206 307 143 224 q 564 657 292 424 l 924 961 l 160 961 l 160 1032 l 1083 1032 l 1121 986 q 854 768 967 857 q 651 601 675 621 q 257 157 257 272 q 356 57 257 74 q 700 38 460 38 q 1068 60 954 38 q 1147 139 1139 72 q 1156 335 1153 172 l 1251 321 l 1251 83 q 1101 -39 1251 -24 q 626 -57 935 -57 z "},"九":{"ha":1389,"x_min":65,"x_max":1325,"o":"m 65 -10 q 390 344 297 128 q 458 757 458 506 l 108 757 l 108 833 l 458 833 l 458 1119 l 569 1119 l 569 833 l 1010 833 l 1010 93 q 1065 39 1010 50 q 1108 36 1093 36 q 1188 51 1158 36 q 1221 93 1215 65 q 1232 303 1231 150 l 1325 282 l 1325 69 q 1193 -51 1325 -43 q 1097 -54 1126 -54 q 1003 -50 1044 -54 q 925 -15 951 -44 q 899 65 899 14 l 899 757 l 568 757 q 497 329 563 479 q 104 -71 386 79 l 65 -10 z "},"乞":{"ha":1389,"x_min":42,"x_max":1271,"o":"m 42 671 q 231 896 139 761 q 363 1139 324 1031 l 478 1119 q 411 988 450 1054 l 1271 988 l 1271 913 l 363 913 q 89 625 231 731 l 42 671 m 1086 -54 q 696 -67 917 -67 q 321 -49 433 -67 q 224 2 258 -37 q 189 104 189 42 q 250 232 189 168 q 571 460 335 319 l 906 657 l 271 657 l 271 732 l 1065 732 l 1108 665 q 860 519 1033 617 q 663 407 740 453 q 299 110 297 190 q 392 35 299 44 q 718 21 503 21 q 1051 36 951 21 q 1125 90 1108 44 q 1136 282 1136 125 l 1231 267 l 1231 58 q 1194 -22 1231 7 q 1086 -54 1157 -50 z "},"也":{"ha":1389,"x_min":38,"x_max":1294,"o":"m 726 -62 q 342 -44 460 -62 q 228 81 228 -28 l 228 667 l 57 626 l 38 697 l 228 743 l 228 1043 l 340 1043 l 340 769 l 653 844 l 653 1126 l 758 1126 l 758 869 l 1154 965 l 1183 942 l 1183 389 q 1144 306 1183 339 q 1051 274 1106 274 l 913 274 l 893 368 l 1017 368 q 1058 383 1042 368 q 1075 424 1075 399 l 1075 869 l 758 793 l 758 183 l 653 183 l 653 768 l 340 693 l 340 113 q 403 40 340 53 q 758 25 513 25 q 1121 40 1033 25 q 1193 108 1181 50 q 1201 256 1200 136 l 1294 239 l 1294 85 q 1153 -47 1294 -35 q 726 -62 1000 -62 z "},"习":{"ha":1389,"x_min":100,"x_max":1214,"o":"m 743 42 l 917 42 q 1013 77 976 42 q 1063 172 1050 113 q 1103 589 1103 329 l 1103 986 l 135 986 l 135 1057 l 1214 1057 l 1214 610 q 1197 315 1214 471 q 1153 83 1181 160 q 1085 -10 1132 25 q 967 -51 1038 -44 q 838 -54 917 -54 l 763 -54 l 743 42 m 593 528 q 443 676 524 607 q 290 794 363 746 l 332 844 q 510 740 418 801 q 676 604 601 678 l 593 528 m 100 207 q 517 342 296 257 q 928 522 739 426 l 944 458 q 564 264 782 360 q 138 104 346 168 l 100 207 z "},"乡":{"ha":1389,"x_min":85,"x_max":1278,"o":"m 1278 647 q 988 303 1175 460 q 571 45 801 146 q 110 -79 340 -56 l 85 -11 q 551 135 319 24 q 949 408 782 247 q 207 335 475 344 l 189 425 q 325 431 282 428 q 724 735 514 560 q 175 711 433 713 l 160 800 l 271 799 q 438 952 360 872 q 608 1136 517 1032 l 726 1096 q 544 930 628 1000 q 369 796 461 860 q 632 793 558 793 q 796 796 746 793 q 986 981 928 914 l 1101 933 q 799 681 993 824 q 438 436 604 538 q 1017 479 763 453 q 1161 697 1111 586 l 1278 647 z "},"书":{"ha":1389,"x_min":65,"x_max":1331,"o":"m 1114 899 l 1067 546 l 1276 546 q 1239 178 1276 276 q 1078 74 1200 74 l 917 74 l 896 168 l 1043 168 q 1150 264 1129 168 q 1168 475 1165 346 l 690 475 l 690 -83 l 579 -83 l 579 475 l 65 475 l 65 546 l 579 546 l 579 838 l 203 838 l 203 910 l 579 910 l 579 1122 l 690 1122 l 690 910 l 1103 910 l 1114 899 m 1243 801 q 1121 938 1192 867 q 986 1058 1050 1010 l 1035 1104 q 1194 1001 1100 1071 q 1331 881 1289 932 l 1243 801 m 1000 838 l 690 838 l 690 546 l 961 546 l 1000 838 z "},"买":{"ha":1389,"x_min":75,"x_max":1311,"o":"m 976 790 q 1078 897 1038 849 q 1156 1003 1118 944 l 143 1003 l 143 1075 l 1260 1075 l 1311 1024 q 1189 879 1269 960 q 1029 743 1108 799 l 976 790 m 313 946 q 490 870 403 915 q 642 774 578 825 l 564 693 q 431 805 513 749 q 276 897 349 861 l 313 946 m 831 419 l 831 418 l 1301 418 l 1301 343 l 836 343 q 1294 -6 1092 189 l 1196 -87 q 796 286 1046 78 q 547 56 729 157 q 94 -83 364 -44 l 75 -19 q 374 67 242 8 q 591 199 507 126 q 706 343 675 272 l 85 343 l 85 418 l 721 418 l 721 906 l 831 906 l 831 419 m 224 729 q 406 650 306 701 q 569 550 507 599 l 492 469 q 351 580 444 518 q 188 679 258 642 l 224 729 z "},"乱":{"ha":1389,"x_min":68,"x_max":1333,"o":"m 117 -72 l 117 453 l 379 453 l 379 686 l 68 686 l 68 757 l 379 757 l 379 958 q 111 942 260 949 l 99 1007 q 719 1107 490 1031 l 771 1028 q 485 969 653 992 l 485 757 l 793 757 l 793 686 l 485 686 l 485 453 l 738 453 l 738 -65 l 628 -65 l 628 -11 l 226 -11 l 226 -72 l 117 -72 m 1203 -44 q 1093 -50 1154 -50 q 964 -43 1033 -50 q 865 78 865 -32 l 865 1101 l 975 1101 l 975 104 q 1031 43 975 49 q 1097 42 1053 42 q 1167 43 1143 42 q 1233 107 1224 50 q 1242 288 1240 153 l 1333 274 l 1333 79 q 1203 -44 1333 -35 m 226 381 l 226 60 l 628 60 l 628 381 l 226 381 z "},"乳":{"ha":1389,"x_min":51,"x_max":1335,"o":"m 67 1022 q 422 1058 219 1029 q 733 1119 625 1086 l 783 1040 q 451 988 678 1013 q 79 958 224 963 l 67 1022 m 1197 -54 q 1085 -60 1147 -60 q 947 -51 1014 -60 q 847 72 847 -42 l 847 1108 l 956 1108 l 956 92 q 1021 35 956 40 q 1104 31 1069 31 q 1175 38 1144 31 q 1214 60 1200 43 q 1233 107 1228 76 q 1240 174 1239 132 q 1242 247 1242 217 q 1243 290 1243 276 l 1335 274 l 1335 67 q 1197 -54 1335 -44 m 568 696 q 668 965 624 801 l 778 942 q 631 675 708 781 l 568 696 m 410 704 q 324 926 383 822 l 383 947 q 455 851 422 907 q 508 732 488 794 l 410 704 m 185 665 q 89 888 153 786 l 146 913 q 225 815 189 871 q 283 697 261 758 l 185 665 m 247 -81 l 229 11 l 339 11 q 392 57 392 11 l 392 236 q 72 196 197 208 l 51 285 q 392 314 181 293 l 392 450 l 471 450 q 613 571 540 490 l 100 571 l 101 639 l 728 639 l 768 588 q 500 400 658 481 l 500 326 q 756 361 646 343 l 763 297 q 500 253 672 278 l 500 18 q 467 -52 500 -24 q 388 -81 433 -81 l 247 -81 z "},"乾":{"ha":1389,"x_min":53,"x_max":1329,"o":"m 636 739 q 749 938 700 826 q 815 1144 797 1049 l 925 1128 q 881 990 911 1065 l 1329 990 l 1329 918 l 844 918 q 683 699 782 803 l 636 739 m 404 -83 l 294 -83 l 294 149 l 53 149 l 53 218 l 294 218 l 294 329 l 107 329 l 107 824 l 299 824 l 299 933 l 68 933 l 68 1001 l 299 1001 l 299 1125 l 404 1125 l 404 1001 l 639 1001 l 639 933 l 404 933 l 404 824 l 592 824 l 592 329 l 404 329 l 404 218 l 639 218 l 639 149 l 404 149 l 404 -83 m 206 756 l 206 613 l 490 613 l 490 756 l 206 756 m 1217 -53 q 1004 -62 1117 -62 q 783 -49 858 -62 q 689 104 689 -29 q 725 232 689 172 q 915 467 768 307 q 1040 599 985 543 l 1115 678 l 776 678 l 776 746 l 1222 746 l 1264 685 q 1081 497 1151 572 l 1004 419 q 792 108 785 196 q 804 61 796 71 q 847 38 815 43 q 1017 24 904 24 q 1169 38 1122 24 q 1229 107 1224 56 q 1233 254 1233 140 l 1324 240 l 1324 61 q 1292 -16 1324 17 q 1217 -53 1261 -49 m 206 550 l 206 396 l 490 396 l 490 550 l 206 550 z "},"了":{"ha":1389,"x_min":93,"x_max":1282,"o":"m 457 -78 l 436 15 l 589 15 q 633 31 613 15 q 653 69 653 47 l 653 721 l 744 719 q 1100 982 964 842 l 94 982 l 93 1056 l 1242 1056 l 1282 1003 q 1053 820 1208 924 q 764 654 897 717 l 764 31 q 727 -49 764 -19 q 632 -78 690 -78 l 457 -78 z "},"予":{"ha":1389,"x_min":86,"x_max":1321,"o":"m 1268 644 l 1321 592 q 1169 432 1276 528 q 978 283 1061 336 l 926 332 q 1158 572 1072 447 l 742 572 l 742 29 q 703 -51 742 -21 q 606 -81 665 -81 l 435 -81 l 415 14 l 569 14 q 613 28 594 14 q 632 65 632 43 l 632 572 l 86 572 l 86 644 l 742 644 q 417 879 576 792 l 463 931 q 574 876 525 903 q 703 800 624 849 q 1001 1003 858 883 l 201 1003 l 201 1074 l 1126 1074 l 1176 1015 q 997 887 1114 961 q 769 758 879 813 q 856 699 836 714 l 788 644 l 1268 644 z "},"争":{"ha":1389,"x_min":38,"x_max":1338,"o":"m 439 -83 l 421 7 l 560 7 q 603 24 585 7 q 621 63 621 40 l 621 261 l 156 261 l 156 331 l 621 331 l 621 503 l 122 503 l 122 575 l 621 575 l 621 733 l 231 733 l 231 792 q 74 692 139 725 l 38 742 q 269 928 147 807 q 450 1151 392 1049 l 572 1132 q 510 1044 547 1088 l 957 1044 l 993 1015 q 799 804 931 925 l 1210 804 l 1210 575 l 1338 575 l 1338 503 l 1210 503 l 1210 206 l 1100 206 l 1100 261 l 732 261 l 732 25 q 694 -54 732 -25 q 594 -83 657 -83 l 439 -83 m 690 804 q 828 976 781 899 l 447 976 q 251 804 363 888 l 690 804 m 732 733 l 732 575 l 1100 575 l 1100 733 l 732 733 m 732 503 l 732 331 l 1100 331 l 1100 503 l 732 503 z "},"事":{"ha":1389,"x_min":64,"x_max":1360,"o":"m 443 -86 l 428 4 l 574 4 q 616 17 601 4 q 631 54 631 31 l 631 153 l 140 153 l 140 224 l 631 224 l 631 333 l 64 333 l 64 404 l 631 404 l 631 504 l 151 504 l 153 571 l 631 571 l 631 661 l 185 661 l 185 893 l 631 893 l 631 981 l 85 981 l 85 1051 l 631 1051 l 631 1135 l 735 1133 l 735 1051 l 1306 1051 l 1306 981 l 735 981 l 735 893 l 1190 893 l 1190 661 l 735 661 l 735 571 l 1233 571 l 1233 404 l 1360 404 l 1360 333 l 1233 333 l 1233 153 l 735 153 l 735 24 q 701 -56 735 -25 q 615 -86 667 -86 l 443 -86 m 288 832 l 288 726 l 631 726 l 631 832 l 288 832 m 735 832 l 735 726 l 1086 726 l 1086 832 l 735 832 m 735 504 l 735 404 l 1124 404 l 1124 504 l 735 504 m 735 333 l 735 224 l 1124 224 l 1124 333 l 735 333 z "},"二":{"ha":1389,"x_min":92,"x_max":1293,"o":"m 1203 900 l 1203 824 l 172 824 l 172 900 l 1203 900 m 1293 78 l 1293 0 l 92 0 l 92 78 l 1293 78 z "},"于":{"ha":1389,"x_min":63,"x_max":1331,"o":"m 438 -78 l 417 24 l 585 24 q 626 40 607 24 q 644 76 644 56 l 644 511 l 63 511 l 63 585 l 644 585 l 644 993 l 131 993 l 131 1065 l 1268 1065 l 1268 993 l 756 993 l 756 585 l 1331 585 l 1331 511 l 756 511 l 756 26 q 714 -50 756 -19 q 622 -78 674 -78 l 438 -78 z "},"亏":{"ha":1389,"x_min":68,"x_max":1311,"o":"m 169 1063 l 1231 1063 l 1231 989 l 169 989 l 169 1063 m 1311 664 l 431 664 l 368 443 l 1150 443 q 1138 188 1147 300 q 1111 26 1128 76 q 1047 -52 1094 -24 q 936 -81 1000 -81 l 746 -81 l 726 11 l 892 11 q 1019 106 999 11 q 1033 215 1028 139 q 1040 368 1039 290 l 240 368 l 319 664 l 68 664 l 68 739 l 1311 739 l 1311 664 z "},"云":{"ha":1389,"x_min":85,"x_max":1301,"o":"m 1232 939 l 171 939 l 171 1013 l 1232 1013 l 1232 939 m 1193 -60 q 1124 43 1167 -18 q 108 -47 569 -31 l 90 54 q 264 58 147 54 q 393 289 321 143 q 507 543 465 435 l 85 543 l 85 618 l 1301 618 l 1301 543 l 640 543 q 510 299 597 449 q 360 61 424 150 q 1079 107 799 81 q 966 248 1038 161 q 858 374 894 335 l 914 411 q 1118 221 1004 347 q 1301 -12 1232 94 l 1193 -60 z "},"互":{"ha":1389,"x_min":81,"x_max":1307,"o":"m 1142 760 l 1051 32 l 1307 32 l 1307 -46 l 81 -46 l 81 32 l 936 32 l 969 292 l 264 292 l 253 304 l 400 990 l 131 990 l 131 1065 l 1253 1065 l 1253 990 l 515 990 l 468 769 l 1131 769 l 1142 760 m 381 364 l 979 364 l 1021 696 l 451 696 l 381 364 z "},"五":{"ha":1389,"x_min":83,"x_max":1303,"o":"m 1303 -42 l 83 -42 l 83 35 l 349 35 l 438 532 l 163 532 l 164 607 l 450 607 l 513 957 l 122 957 l 122 1032 l 1250 1032 l 1250 957 l 626 957 l 564 607 l 1119 607 l 1119 35 l 1303 35 l 1303 -42 m 551 532 l 463 35 l 1008 35 l 1008 532 l 551 532 z "},"井":{"ha":1389,"x_min":67,"x_max":1318,"o":"m 99 -28 q 313 199 244 60 q 367 375 347 271 l 67 375 l 67 447 l 378 447 q 382 675 382 500 l 382 801 l 101 801 l 101 874 l 382 874 l 382 1124 l 494 1124 l 494 874 l 942 874 l 942 1126 l 1054 1126 l 1054 874 l 1285 874 l 1285 801 l 1054 801 l 1054 447 l 1318 447 l 1318 375 l 1054 375 l 1054 -72 l 942 -72 l 942 375 l 479 375 q 375 110 453 219 q 140 -82 297 1 l 99 -28 m 942 447 l 942 801 l 494 801 l 494 739 q 488 447 494 504 l 942 447 z "},"亚":{"ha":1389,"x_min":53,"x_max":1332,"o":"m 1332 -64 l 53 -64 l 53 11 l 482 11 l 482 997 l 82 997 l 82 1071 l 1304 1071 l 1304 997 l 890 997 l 890 11 l 1332 11 l 1332 -64 m 589 997 l 589 11 l 785 11 l 785 997 l 589 997 m 983 194 q 1138 804 1069 424 l 1257 776 q 1172 468 1231 644 q 1056 175 1114 292 l 983 194 m 278 183 q 204 519 247 347 q 125 771 161 690 l 197 801 q 311 522 250 710 q 394 208 372 333 l 278 183 z "},"些":{"ha":1389,"x_min":74,"x_max":1301,"o":"m 1165 435 q 1022 428 1082 428 q 868 438 940 428 q 774 546 774 449 l 774 1108 l 879 1108 l 879 860 q 1192 1000 1072 924 l 1247 915 q 879 800 1117 854 l 879 575 q 933 519 879 526 q 1028 513 982 513 q 1138 519 1075 513 q 1201 579 1192 528 q 1207 694 1204 596 l 1289 682 l 1289 536 q 1165 435 1289 446 m 74 489 q 189 499 153 494 l 189 1007 l 289 1007 l 289 510 l 414 525 l 414 1101 l 522 1101 l 522 894 l 692 894 l 692 828 l 522 828 l 522 540 q 694 569 647 560 l 696 501 q 92 397 550 457 l 74 489 m 1197 253 l 186 253 l 186 324 l 1197 324 l 1197 253 m 1301 -47 l 85 -47 l 85 26 l 1301 26 l 1301 -47 z "},"亟":{"ha":1389,"x_min":57,"x_max":1324,"o":"m 711 876 q 971 1019 808 917 l 193 1019 l 193 1088 l 1099 1088 l 1144 1035 q 739 825 1015 921 l 739 201 q 708 131 739 158 q 626 104 676 104 l 449 104 l 428 189 l 582 189 q 621 203 604 189 q 638 238 638 218 l 638 876 l 711 876 m 506 283 l 218 283 l 218 244 l 128 244 l 128 838 l 506 838 l 506 283 m 821 831 l 1275 831 q 1228 594 1271 711 q 1114 372 1186 476 q 1324 179 1204 267 l 1240 103 q 1057 299 1147 181 q 821 96 953 174 l 782 144 q 1004 372 913 243 q 851 701 888 546 l 925 715 q 1054 449 958 583 q 1160 763 1143 603 l 821 763 l 821 831 m 406 772 l 225 772 l 225 350 l 406 350 l 406 772 m 1322 -58 l 57 -58 l 57 18 l 1322 18 l 1322 -58 z "},"亡":{"ha":1389,"x_min":65,"x_max":1321,"o":"m 1239 -42 l 219 -42 l 219 811 l 65 811 l 65 886 l 651 886 l 651 1118 l 763 1118 l 763 886 l 1321 886 l 1321 811 l 332 811 l 332 49 l 1239 49 l 1239 -42 z "},"亢":{"ha":1389,"x_min":58,"x_max":1328,"o":"m 1319 888 l 58 888 l 58 961 l 625 961 l 625 1126 l 735 1126 l 735 961 l 1319 961 l 1319 888 m 68 -28 q 265 228 208 68 q 308 478 308 350 l 308 718 l 1015 718 l 1015 86 q 1069 26 1015 33 q 1111 25 1083 25 q 1160 28 1144 25 q 1226 88 1218 36 q 1238 274 1236 133 l 1328 254 l 1328 54 q 1203 -62 1328 -50 q 1100 -68 1139 -68 q 1019 -62 1053 -68 q 938 -24 968 -54 q 907 57 907 6 l 907 646 l 417 646 l 417 508 q 357 194 417 322 q 111 -81 285 26 l 68 -28 z "},"交":{"ha":1389,"x_min":72,"x_max":1306,"o":"m 1306 893 l 92 893 l 92 968 l 625 968 l 625 1128 l 738 1128 l 738 968 l 1306 968 l 1306 893 m 1208 513 q 1031 657 1147 572 q 817 803 915 742 l 863 850 q 1088 733 967 806 q 1297 590 1210 661 l 1208 513 m 72 546 q 270 678 168 594 q 429 842 372 761 l 540 801 q 352 628 476 717 q 110 489 228 540 l 72 546 m 79 -14 q 365 70 215 11 q 613 200 515 129 q 360 543 449 331 l 436 571 q 683 258 521 374 q 896 583 828 393 l 1011 556 q 764 206 929 353 q 1293 35 992 76 l 1225 -69 q 690 143 932 -11 q 426 7 579 64 q 107 -81 274 -50 l 79 -14 z "},"亥":{"ha":1389,"x_min":94,"x_max":1303,"o":"m 94 251 q 428 383 267 299 q 719 578 589 467 q 344 554 626 571 l 239 549 l 225 647 l 343 647 q 539 897 447 751 l 107 897 l 107 969 l 628 969 l 628 1135 l 739 1135 l 739 969 l 1282 969 l 1281 897 l 674 897 q 438 647 560 750 q 800 653 649 647 q 936 819 879 735 l 1038 772 q 649 410 890 561 q 125 189 407 260 l 94 251 m 940 257 q 1132 140 1028 213 q 1303 4 1236 67 l 1208 -71 q 1069 64 1163 -15 q 879 211 975 143 q 139 -89 561 -19 l 111 -24 q 694 203 424 36 q 1126 613 964 371 l 1229 560 q 940 257 1107 392 z "},"亦":{"ha":1389,"x_min":64,"x_max":1335,"o":"m 113 -28 q 386 219 293 64 q 479 581 479 374 l 479 822 l 68 822 l 68 897 l 635 897 l 635 1125 l 744 1125 l 744 897 l 1314 897 l 1314 822 l 921 822 l 921 38 q 885 -40 921 -12 q 797 -68 850 -68 l 646 -67 l 628 22 l 754 22 q 793 37 776 22 q 810 75 810 51 l 810 822 l 590 822 l 589 599 q 481 181 589 351 q 149 -86 372 11 l 113 -28 m 1221 179 q 1011 649 1150 397 l 1074 681 q 1217 457 1138 597 q 1335 224 1297 317 l 1221 179 m 64 256 q 188 447 128 329 q 278 671 247 565 l 386 644 q 276 417 349 532 q 117 214 203 303 l 64 256 z "},"产":{"ha":1389,"x_min":42,"x_max":1325,"o":"m 1281 922 l 163 922 l 163 993 l 668 993 l 668 1133 l 782 1133 l 782 993 l 1281 993 l 1281 922 m 42 -33 q 159 199 129 90 q 189 475 189 308 l 189 628 l 461 628 q 360 828 436 719 l 424 856 q 515 751 467 819 q 586 628 564 683 l 883 628 q 994 857 958 761 l 1111 826 q 972 628 1056 732 l 1325 628 l 1325 554 l 297 554 l 297 488 q 253 181 297 307 q 96 -78 208 54 l 42 -33 z "},"亨":{"ha":1389,"x_min":78,"x_max":1294,"o":"m 1294 950 l 78 950 l 78 1025 l 631 1025 l 631 1139 l 744 1139 l 744 1025 l 1294 1025 l 1294 950 m 1143 592 l 233 592 l 233 861 l 1142 861 l 1143 592 m 339 799 l 339 658 l 1036 658 l 1035 799 l 339 799 m 428 -82 l 407 11 l 583 11 q 622 27 606 11 q 638 64 638 43 l 638 308 l 718 308 q 875 363 775 322 q 1022 431 975 403 l 111 431 l 111 500 l 1176 500 l 1224 436 q 1013 334 1151 389 q 746 247 874 279 l 746 19 q 711 -52 746 -22 q 626 -82 676 -82 l 428 -82 z "},"亩":{"ha":1389,"x_min":68,"x_max":1314,"o":"m 1314 864 l 68 864 l 68 936 l 635 936 l 635 1119 l 744 1119 l 744 936 l 1314 936 l 1314 864 m 267 -69 l 163 -69 l 163 700 l 1219 700 l 1219 -64 l 1114 -64 l 1114 1 l 267 1 l 267 -69 m 267 629 l 267 397 l 640 397 l 640 629 l 267 629 m 740 629 l 740 397 l 1114 397 l 1114 629 l 740 629 m 267 329 l 267 72 l 640 72 l 640 329 l 267 329 m 740 329 l 740 72 l 1114 72 l 1114 329 l 740 329 z "},"享":{"ha":1389,"x_min":61,"x_max":1322,"o":"m 1306 972 l 92 972 l 92 1047 l 636 1047 l 636 1140 l 746 1140 l 746 1047 l 1306 1047 l 1306 972 m 1124 626 l 238 626 l 238 888 l 1124 888 l 1124 626 m 342 826 l 342 692 l 1018 692 l 1018 826 l 342 826 m 443 -83 l 425 8 l 582 8 q 624 24 604 8 q 643 58 643 40 l 643 201 l 61 201 l 63 275 l 643 275 l 643 367 l 706 367 q 985 474 803 390 l 167 474 l 167 543 l 1115 543 l 1171 481 q 976 390 1103 438 q 751 319 850 342 l 751 275 l 1322 275 l 1322 201 l 751 201 l 751 19 q 715 -54 751 -25 q 619 -83 678 -83 l 443 -83 z "},"京":{"ha":1389,"x_min":35,"x_max":1326,"o":"m 1311 917 l 72 917 l 72 993 l 629 993 l 629 1129 l 743 1129 l 743 993 l 1311 993 l 1311 917 m 456 -81 l 438 13 l 583 13 q 622 28 604 13 q 640 65 640 44 l 640 414 l 199 414 l 199 796 l 1165 796 l 1165 414 l 751 414 l 751 26 q 715 -51 751 -22 q 628 -81 679 -81 l 456 -81 m 306 725 l 306 488 l 1057 488 l 1057 725 l 306 725 m 35 36 q 231 174 133 90 q 388 344 328 258 l 493 289 q 299 113 419 204 q 75 -24 178 22 l 35 36 m 1233 -10 q 1070 144 1182 50 q 879 290 958 238 l 925 344 q 1138 219 1032 290 q 1326 72 1244 147 l 1233 -10 z "},"亭":{"ha":1389,"x_min":85,"x_max":1300,"o":"m 1300 976 l 85 976 l 85 1049 l 625 1049 l 625 1143 l 736 1143 l 736 1049 l 1300 1049 l 1300 976 m 1139 638 l 225 638 l 225 892 l 1139 892 l 1139 638 m 331 831 l 331 701 l 1033 701 l 1033 831 l 331 831 m 189 349 l 94 349 l 94 549 l 1286 549 l 1286 357 l 1190 357 l 1190 479 l 189 479 l 189 349 m 444 -82 l 428 10 l 579 10 q 642 64 642 10 l 642 303 l 276 303 l 276 374 l 1106 374 l 1106 303 l 751 303 l 751 28 q 713 -52 751 -22 q 615 -82 674 -82 l 444 -82 z "},"亮":{"ha":1389,"x_min":72,"x_max":1306,"o":"m 1306 953 l 72 953 l 72 1026 l 636 1026 l 636 1128 l 744 1128 l 744 1026 l 1306 1026 l 1306 953 m 1143 594 l 243 594 l 243 868 l 1143 868 l 1143 594 m 349 801 l 349 663 l 1038 663 l 1038 801 l 349 801 m 211 317 l 111 317 l 111 506 l 1271 506 l 1271 318 l 1169 318 l 1169 433 l 211 433 l 211 317 m 81 -24 q 307 92 225 14 q 389 294 389 171 l 389 343 l 978 343 l 978 82 q 1032 28 978 36 q 1074 25 1049 25 q 1124 29 1094 25 q 1188 82 1176 35 q 1196 215 1194 115 l 1288 199 l 1288 56 q 1256 -22 1288 6 q 1160 -56 1224 -49 q 1072 -61 1115 -61 q 964 -53 1026 -61 q 868 61 868 -40 l 868 274 l 499 274 q 381 35 489 131 q 106 -86 272 -60 l 81 -24 z "},"亲":{"ha":1389,"x_min":47,"x_max":1325,"o":"m 739 996 l 1257 996 l 1257 921 l 128 921 l 128 996 l 626 996 l 626 1128 l 739 1128 l 739 996 m 1313 663 l 1313 590 l 68 590 l 68 663 l 399 663 q 297 878 361 778 l 369 900 q 452 793 408 860 q 525 663 496 726 l 843 663 q 960 910 901 776 l 1074 878 q 931 663 1010 769 l 1313 663 m 1290 350 l 749 350 l 749 18 q 716 -56 749 -29 q 629 -82 683 -82 l 483 -82 l 464 10 l 582 10 q 622 24 607 10 q 638 60 638 38 l 638 350 l 96 350 l 96 422 l 638 422 l 638 547 l 749 547 l 749 422 l 1290 422 l 1290 350 m 478 238 q 302 81 404 153 q 86 -39 200 10 l 47 18 q 231 142 146 69 q 381 294 317 214 l 478 238 m 953 282 q 1325 39 1158 188 l 1233 -40 q 906 233 1071 124 l 953 282 z "},"亳":{"ha":1389,"x_min":61,"x_max":1321,"o":"m 1321 979 l 61 979 l 61 1049 l 626 1049 l 626 1129 l 739 1129 l 739 1049 l 1321 1049 l 1321 979 m 1142 682 l 233 682 l 233 910 l 1142 910 l 1142 682 m 332 853 l 332 743 l 1042 743 l 1042 853 l 332 853 m 183 411 l 93 411 l 93 601 l 1289 601 l 1289 411 l 1197 411 l 1197 533 l 183 533 l 183 411 m 1122 -62 q 901 -69 993 -69 q 657 -58 775 -69 q 561 39 561 -50 l 561 183 l 113 156 l 108 225 l 561 251 l 561 361 q 260 336 368 342 l 244 396 q 975 507 740 439 l 1024 438 q 669 374 908 406 l 669 260 l 1244 294 l 1247 226 l 669 190 l 669 74 q 725 18 669 22 q 904 11 825 11 q 1086 18 985 11 q 1157 68 1149 22 q 1163 151 1160 88 l 1249 139 l 1249 36 q 1215 -31 1249 -4 q 1122 -62 1181 -58 z "},"亵":{"ha":1389,"x_min":36,"x_max":1342,"o":"m 749 1058 l 1313 1058 l 1313 988 l 82 988 l 82 1058 l 639 1058 l 639 1135 l 749 1135 l 749 1058 m 264 435 q 319 483 319 435 l 319 561 q 100 529 169 536 l 83 610 q 319 633 192 619 l 319 756 l 106 756 l 106 822 l 319 822 l 319 944 l 419 944 l 419 822 l 599 822 l 599 756 l 419 756 l 419 646 q 608 679 551 665 l 613 622 q 419 579 547 603 l 419 439 q 388 377 419 403 q 317 351 357 351 l 188 351 l 172 435 l 264 435 m 1125 399 q 1075 419 1099 400 q 1051 463 1051 439 l 1051 758 l 908 758 q 871 626 900 688 q 999 550 953 586 l 926 482 q 825 560 897 508 q 631 413 758 478 l 589 457 q 754 606 703 526 q 642 669 692 643 l 674 708 q 786 667 710 699 q 807 758 803 717 l 653 758 l 653 828 l 810 828 l 810 944 l 911 944 l 911 828 l 1147 828 l 1147 510 q 1193 479 1147 479 q 1247 511 1244 479 l 1251 613 l 1325 599 l 1325 483 q 1247 397 1325 406 l 1207 396 q 1125 399 1192 396 m 693 313 q 463 215 582 258 l 463 14 q 832 46 679 28 l 832 -19 q 208 -85 585 -60 l 192 1 l 356 8 l 356 182 q 54 114 225 142 l 36 175 q 404 274 222 204 q 751 442 586 344 l 829 383 q 751 342 794 363 q 860 232 803 278 q 1082 383 974 293 l 1165 319 q 908 194 1074 264 q 1342 21 1089 63 l 1283 -74 q 947 64 1096 -36 q 693 313 799 164 z "},"人":{"ha":1389,"x_min":68,"x_max":1319,"o":"m 68 -6 q 432 265 283 83 q 569 501 521 371 q 618 772 618 631 l 618 1114 l 733 1114 l 733 765 q 856 451 733 632 q 1067 200 943 307 q 1319 33 1192 93 l 1225 -64 q 874 254 1025 57 q 704 576 753 403 q 561 264 679 413 q 104 -65 394 47 l 68 -6 z "},"亿":{"ha":1389,"x_min":33,"x_max":1303,"o":"m 440 1113 q 301 736 396 932 l 339 751 l 339 -86 l 232 -86 l 232 607 q 85 385 167 494 l 33 431 q 209 754 135 571 q 324 1132 283 938 l 440 1113 m 1303 303 l 1303 94 q 1274 -4 1303 33 q 1193 -49 1244 -42 q 869 -68 1043 -68 q 596 -46 676 -68 q 516 12 543 -31 q 489 115 489 54 q 501 201 489 158 q 590 381 521 279 q 764 607 658 483 q 1017 897 913 781 q 1043 928 1029 911 q 1074 963 1057 944 l 529 963 l 529 1032 l 1183 1032 l 1218 986 q 1035 774 1174 933 q 842 551 892 611 q 596 158 601 263 q 606 81 593 107 q 657 43 618 56 q 878 22 719 22 q 1122 38 1024 22 q 1203 139 1194 54 q 1210 319 1208 218 l 1303 303 z "},"什":{"ha":1389,"x_min":26,"x_max":1321,"o":"m 440 1103 q 294 724 389 914 l 328 724 l 328 -86 l 219 -86 l 219 590 q 75 385 158 488 l 26 429 q 208 759 128 574 q 328 1122 289 944 l 440 1103 m 917 1114 l 917 701 l 1321 701 l 1321 626 l 917 626 l 917 -72 l 806 -72 l 806 626 l 414 626 l 414 701 l 806 701 l 806 1114 l 917 1114 z "},"仁":{"ha":1389,"x_min":40,"x_max":1314,"o":"m 439 1113 q 299 735 393 925 l 331 735 l 331 -86 l 221 -86 l 221 589 q 86 393 157 482 l 40 435 q 213 765 135 574 q 326 1131 292 957 l 439 1113 m 479 964 l 1258 964 l 1258 889 l 479 889 l 479 964 m 413 -8 l 413 68 l 1314 68 l 1314 -8 l 413 -8 z "},"仃":{"ha":1389,"x_min":28,"x_max":1311,"o":"m 439 1104 q 290 728 392 925 l 314 728 l 314 -86 l 210 -86 l 210 582 q 78 389 146 475 l 28 433 q 204 764 122 571 q 319 1122 286 957 l 439 1104 m 461 1049 l 1311 1049 l 1311 975 l 993 975 l 993 40 q 953 -41 993 -10 q 849 -72 913 -72 l 690 -72 l 671 26 l 818 26 q 865 42 846 26 q 883 83 883 57 l 883 975 l 461 975 l 461 1049 z "},"仄":{"ha":1389,"x_min":24,"x_max":1328,"o":"m 24 -29 q 128 260 94 88 q 161 611 161 433 l 161 1072 l 1306 1072 l 1306 1001 l 267 1001 l 267 674 q 226 262 267 433 q 78 -71 186 90 l 24 -29 m 240 -15 q 547 189 431 58 q 667 399 624 275 q 711 647 711 524 q 713 914 713 731 l 821 914 l 821 689 q 884 449 821 576 q 1039 232 947 322 q 1328 26 1174 94 l 1249 -64 q 974 157 1097 6 q 797 471 846 299 q 644 160 756 288 q 272 -74 513 1 l 240 -15 z "},"仅":{"ha":1389,"x_min":46,"x_max":1336,"o":"m 453 1104 q 308 728 403 917 l 332 728 l 332 -86 l 228 -86 l 228 583 q 96 390 169 486 l 46 433 q 221 763 140 571 q 335 1122 301 954 l 453 1104 m 958 297 q 1336 49 1111 149 l 1265 -57 q 890 222 1042 63 q 454 -65 718 50 l 414 1 q 825 297 657 113 q 560 971 606 569 l 485 971 l 485 1042 l 1247 1042 q 958 297 1199 583 m 647 971 q 888 374 690 613 q 1122 971 1081 628 l 647 971 z "},"仆":{"ha":1389,"x_min":25,"x_max":1338,"o":"m 889 743 q 1134 615 994 697 q 1338 476 1274 533 l 1260 394 q 889 668 1121 518 l 889 -83 l 781 -83 l 781 1119 l 889 1119 l 889 743 m 553 1076 q 342 728 474 904 l 382 728 l 382 -92 l 275 -92 l 275 642 q 69 426 171 514 l 25 479 q 258 765 146 593 q 440 1113 369 938 l 553 1076 z "},"仇":{"ha":1389,"x_min":29,"x_max":1349,"o":"m 431 1106 q 294 728 383 910 l 328 728 l 328 -83 l 224 -83 l 224 597 q 79 383 163 490 l 29 426 q 204 758 125 567 q 318 1122 283 949 l 431 1106 m 1349 275 l 1349 72 q 1236 -47 1349 -35 q 1157 -50 1183 -50 q 1074 -46 1111 -50 q 1003 -8 1031 -39 q 975 68 975 24 l 975 753 l 750 753 q 743 506 750 593 q 656 169 729 310 q 432 -74 582 28 l 385 -19 q 561 200 503 76 q 635 499 619 324 q 642 753 642 582 l 415 753 l 417 826 l 642 826 l 642 1118 l 753 1118 l 753 826 l 1083 826 l 1083 94 q 1115 46 1083 57 q 1161 39 1139 39 q 1206 44 1175 39 q 1251 97 1243 53 q 1261 290 1257 129 l 1349 275 z "},"仉":{"ha":1389,"x_min":31,"x_max":1346,"o":"m 469 1113 q 304 729 413 925 l 357 729 l 357 -90 l 250 -90 l 250 635 q 81 400 163 494 l 31 446 q 220 763 135 579 q 354 1132 306 946 l 469 1113 m 1346 263 l 1346 67 q 1236 -51 1346 -40 q 1165 -54 1186 -54 q 1078 -50 1119 -54 q 989 61 989 -37 l 989 1004 l 701 1004 l 701 574 q 485 -74 701 149 l 431 -29 q 557 247 521 99 q 593 589 593 396 l 593 1076 l 1100 1076 l 1100 89 q 1165 38 1100 38 l 1204 38 q 1251 89 1249 38 q 1257 221 1254 133 l 1260 279 l 1346 263 z "},"今":{"ha":1389,"x_min":31,"x_max":1360,"o":"m 31 642 q 406 892 242 744 q 614 1132 553 1019 l 747 1132 q 1004 888 806 1035 q 1360 692 1171 764 l 1281 604 q 971 799 1136 665 q 704 1064 806 929 q 429 794 600 921 q 60 588 249 665 l 31 642 m 768 549 q 663 674 721 613 q 554 774 604 735 l 597 817 q 745 724 669 779 q 869 613 821 668 l 768 549 m 529 -40 q 857 148 725 33 q 1039 407 989 263 l 210 407 l 210 481 l 1147 481 l 1178 446 q 1092 268 1154 363 q 960 113 1029 174 q 568 -100 796 -33 l 529 -40 z "},"介":{"ha":1389,"x_min":19,"x_max":1365,"o":"m 19 629 q 365 850 185 701 q 611 1121 544 996 l 746 1121 q 911 953 803 1042 q 1142 792 1019 864 q 1365 686 1265 719 l 1285 592 q 969 788 1142 651 q 701 1053 797 925 q 425 781 614 918 q 50 572 229 639 l 19 629 m 1028 -75 l 915 -75 l 915 699 l 1028 699 l 1028 -75 m 131 -37 q 308 169 251 43 q 365 469 365 294 l 365 692 l 476 692 l 476 463 q 403 132 476 269 q 174 -90 329 -6 l 131 -37 z "},"仍":{"ha":1389,"x_min":18,"x_max":1300,"o":"m 422 1111 q 289 751 376 936 l 329 751 l 329 -87 l 224 -87 l 224 625 q 71 390 161 513 l 18 433 q 192 756 117 571 q 307 1129 267 940 l 422 1111 m 1299 651 q 1251 54 1300 186 q 1185 -33 1228 -4 q 1075 -61 1142 -61 l 881 -61 l 863 33 l 1022 33 q 1160 124 1135 33 q 1190 585 1189 247 l 953 585 l 942 596 l 1026 1000 l 757 1000 q 707 410 760 650 q 453 -72 640 111 l 400 -26 q 535 200 481 71 q 613 469 589 329 q 649 922 649 682 l 647 1000 l 500 1000 l 500 1071 l 1135 1071 l 1149 1060 l 1065 651 l 1299 651 z "},"从":{"ha":1389,"x_min":26,"x_max":1358,"o":"m 26 -25 q 273 294 185 100 q 361 703 361 488 l 361 1101 l 471 1101 l 471 753 q 451 511 471 628 q 685 249 593 393 l 590 186 q 431 425 533 297 q 294 142 383 265 q 67 -76 206 19 l 26 -25 m 511 -28 q 690 169 613 50 q 810 425 768 288 q 853 694 853 563 l 853 1101 l 964 1101 l 964 763 q 1074 362 964 564 q 1358 15 1183 160 l 1274 -78 q 1060 188 1150 35 q 929 503 971 340 q 803 179 899 326 q 553 -79 708 32 l 511 -28 z "},"仑":{"ha":1389,"x_min":65,"x_max":1325,"o":"m 747 1125 q 885 967 786 1050 q 1103 813 983 883 q 1325 701 1224 742 l 1243 604 q 948 797 1104 671 q 703 1046 792 922 q 442 782 599 896 q 101 590 286 668 l 65 647 q 276 773 164 693 q 481 947 388 853 q 618 1125 574 1040 l 747 1125 m 1124 97 q 1132 240 1132 131 l 1132 286 l 1229 268 l 1229 60 q 1083 -57 1229 -43 q 763 -65 994 -65 q 397 -56 486 -65 q 297 60 297 -46 l 297 618 l 406 618 l 406 361 q 754 442 561 385 q 1050 554 947 499 l 1118 463 q 792 360 1004 408 q 406 292 579 311 l 406 97 q 474 29 406 38 q 756 19 561 19 q 1056 31 974 19 q 1124 97 1111 40 z "},"仓":{"ha":1389,"x_min":31,"x_max":1367,"o":"m 935 306 q 992 363 992 306 l 992 635 l 404 635 l 404 82 q 456 28 404 32 q 769 21 524 21 l 840 21 q 1089 29 1033 21 q 1153 85 1143 35 q 1160 231 1157 107 l 1249 215 l 1249 46 q 1218 -22 1249 4 q 1124 -60 1185 -56 q 753 -68 1022 -68 q 542 -65 647 -68 q 392 -57 438 -62 q 323 -24 347 -51 q 299 49 299 3 l 299 681 q 64 554 182 604 l 31 608 q 367 835 200 688 q 622 1131 533 983 l 746 1131 q 911 951 806 1044 q 1139 781 1017 858 q 1367 664 1261 704 l 1281 568 q 1097 681 1197 608 l 1097 322 q 1063 249 1097 279 q 981 219 1028 219 l 768 219 l 749 306 l 935 306 m 1065 704 q 871 877 964 782 q 707 1065 778 972 q 553 882 651 976 q 335 704 454 788 l 1065 704 z "},"仔":{"ha":1389,"x_min":31,"x_max":1324,"o":"m 446 1115 q 299 736 394 922 l 317 736 l 317 -86 l 210 -86 l 210 582 q 78 399 151 488 l 31 443 q 208 772 128 582 q 326 1135 289 961 l 446 1115 m 918 579 l 1324 579 l 1324 504 l 918 504 l 918 44 q 881 -37 918 -6 q 792 -69 843 -69 l 611 -69 l 596 26 l 749 26 q 788 40 771 26 q 804 78 804 54 l 804 504 l 399 504 l 399 579 l 804 579 l 804 771 l 881 771 q 1097 1004 1025 882 l 494 1004 l 494 1076 l 1208 1076 l 1256 1025 q 918 714 1144 869 l 918 579 z "},"仕":{"ha":1389,"x_min":31,"x_max":1325,"o":"m 450 1103 q 301 728 396 910 l 321 728 l 321 -86 l 217 -86 l 217 579 q 81 388 157 483 l 31 433 q 211 764 126 569 q 331 1122 296 958 l 450 1103 m 1325 725 l 1325 650 l 908 650 l 908 38 l 1281 38 l 1281 -36 l 449 -36 l 449 38 l 794 38 l 794 650 l 403 650 l 403 725 l 794 725 l 794 1107 l 908 1107 l 908 725 l 1325 725 z "},"他":{"ha":1389,"x_min":21,"x_max":1311,"o":"m 421 1108 q 285 733 372 917 l 307 733 l 307 -86 l 200 -86 l 200 575 q 69 389 135 467 l 21 432 q 190 757 108 563 q 307 1126 272 951 l 421 1108 m 1311 219 l 1311 68 q 1272 -15 1311 18 q 1164 -54 1232 -49 q 904 -62 1047 -62 q 619 -51 750 -62 q 538 -15 567 -46 q 510 72 510 17 l 510 665 l 386 632 l 368 703 l 510 739 l 510 1049 l 614 1049 l 614 765 l 808 815 l 808 1125 l 914 1125 l 914 843 l 1210 917 l 1236 890 l 1236 401 q 1104 288 1236 288 l 999 288 l 982 378 l 1071 378 q 1129 431 1129 378 l 1129 825 l 914 768 l 914 176 l 808 176 l 808 742 l 614 692 l 614 111 q 683 36 614 44 q 900 26 779 26 q 1140 36 1024 26 q 1210 96 1197 40 q 1217 238 1215 126 l 1311 219 z "},"仗":{"ha":1389,"x_min":22,"x_max":1344,"o":"m 469 1106 q 313 747 417 932 l 354 747 l 354 -89 l 247 -89 l 247 639 q 71 399 163 506 l 22 446 q 217 760 129 579 q 354 1128 304 942 l 469 1106 m 885 263 q 1344 32 1067 117 l 1275 -69 q 1042 39 1163 -31 q 835 183 922 108 q 447 -75 700 1 l 415 -14 q 760 251 654 81 q 514 657 599 418 l 583 679 q 673 501 617 589 q 803 338 729 414 q 868 779 868 496 l 433 779 l 433 853 l 868 853 l 868 1122 l 979 1122 l 979 853 l 1332 853 l 1332 779 l 979 779 q 956 484 979 610 q 885 263 933 358 z "},"付":{"ha":1389,"x_min":35,"x_max":1331,"o":"m 472 1117 q 321 736 414 915 l 354 736 l 354 -87 l 247 -87 l 247 606 q 89 385 171 483 l 35 432 q 228 767 143 581 q 357 1136 313 953 l 472 1117 m 1142 842 l 1331 842 l 1331 765 l 1142 765 l 1142 47 q 1104 -33 1142 0 q 1015 -65 1067 -65 l 828 -65 l 808 35 l 975 35 q 1013 49 996 35 q 1031 85 1031 64 l 1031 765 l 446 765 l 446 842 l 1031 842 l 1031 1124 l 1142 1124 l 1142 842 m 586 640 q 721 483 650 581 q 828 310 792 385 l 713 260 q 524 601 651 428 l 586 640 z "},"仙":{"ha":1389,"x_min":39,"x_max":1258,"o":"m 419 1119 q 288 731 381 940 l 319 731 l 319 -83 l 213 -83 l 213 581 q 90 386 150 468 l 39 431 q 204 770 129 574 q 307 1135 279 967 l 419 1119 m 1147 94 l 1147 868 l 1258 868 l 1258 -61 l 1147 -61 l 1147 21 l 583 21 l 583 -61 l 472 -61 l 472 868 l 583 868 l 583 94 l 803 94 l 803 1114 l 915 1114 l 915 94 l 1147 94 z "},"仝":{"ha":1389,"x_min":65,"x_max":1325,"o":"m 65 635 q 276 765 164 681 q 482 945 389 849 q 618 1125 575 1042 l 747 1125 q 885 965 786 1051 q 1105 803 985 878 q 1325 689 1225 728 l 1243 593 q 953 786 1111 653 q 703 1046 796 919 q 441 775 599 896 q 101 578 283 654 l 65 635 m 1285 -36 l 125 -36 l 124 40 l 632 40 l 632 533 l 247 533 l 246 607 l 1125 607 l 1125 533 l 746 533 l 746 40 l 1285 40 l 1285 -36 z "},"仟":{"ha":1389,"x_min":19,"x_max":1336,"o":"m 457 1110 q 310 751 406 935 l 344 751 l 344 -90 l 239 -90 l 239 625 q 69 390 160 493 l 19 438 q 208 756 124 571 q 340 1129 293 942 l 457 1110 m 925 596 l 1336 596 l 1336 524 l 925 524 l 925 -82 l 815 -82 l 815 524 l 403 524 l 403 596 l 815 596 l 815 957 q 494 933 649 940 l 483 1000 q 888 1041 703 1011 q 1204 1115 1072 1071 l 1264 1035 q 925 969 1139 994 l 925 596 z "},"仡":{"ha":1389,"x_min":33,"x_max":1324,"o":"m 1324 989 l 1324 918 l 654 918 q 469 683 564 774 l 415 728 q 547 928 489 817 q 631 1139 606 1040 l 747 1119 q 694 989 726 1058 l 1324 989 m 440 1113 q 306 746 394 929 l 339 746 l 339 -86 l 232 -86 l 232 607 q 85 385 160 483 l 33 431 q 209 754 135 571 q 324 1132 283 938 l 440 1113 m 1201 104 q 1208 251 1207 165 l 1301 239 l 1301 56 q 1271 -19 1301 11 q 1193 -56 1240 -49 q 886 -69 1086 -69 q 619 -53 693 -69 q 540 -2 567 -42 q 513 101 513 38 q 556 213 513 139 q 794 463 604 294 q 928 576 854 511 q 1040 679 1001 640 l 574 679 l 574 751 l 1161 751 l 1199 688 q 1105 599 1165 651 q 897 424 1044 547 q 624 107 624 188 q 635 57 624 72 q 682 35 647 42 q 900 19 742 19 q 1125 31 1050 19 q 1201 104 1196 40 z "},"代":{"ha":1389,"x_min":19,"x_max":1314,"o":"m 474 1108 q 314 743 413 919 l 332 743 l 332 -97 l 224 -97 l 224 594 q 71 397 157 494 l 19 446 q 228 792 138 610 q 351 1132 318 974 l 474 1108 m 1314 292 q 1301 107 1306 154 q 1285 10 1296 60 q 1165 -76 1265 -76 q 1058 -35 1107 -76 q 743 643 814 181 l 407 615 l 400 689 l 731 717 q 715 1122 719 819 l 829 1122 q 843 726 829 961 l 1307 767 l 1313 693 l 851 654 q 933 339 881 474 q 1082 97 986 204 q 1154 53 1122 53 q 1204 126 1196 53 q 1222 315 1214 197 l 1314 292 m 1139 829 q 935 1047 1036 965 l 989 1092 q 1122 1004 1044 1065 q 1238 896 1199 943 l 1139 829 z "},"令":{"ha":1389,"x_min":31,"x_max":1367,"o":"m 1025 879 q 1367 700 1199 763 l 1281 604 q 956 815 1115 682 q 707 1068 806 939 q 467 822 631 949 q 64 590 282 679 l 31 644 q 406 890 238 740 q 622 1133 547 1014 l 746 1133 q 1025 879 829 1011 m 764 593 q 669 708 725 649 q 564 808 614 768 l 607 847 q 742 767 674 815 q 861 660 810 718 l 764 593 m 204 554 l 1147 554 l 1176 526 q 1040 284 1139 393 q 807 94 940 175 q 1000 -4 922 42 l 918 -90 q 619 65 792 -15 q 314 189 447 144 l 354 247 q 715 132 535 203 q 913 298 826 204 q 1033 481 1000 392 l 204 481 l 204 554 z "},"以":{"ha":1389,"x_min":51,"x_max":1328,"o":"m 421 -25 q 932 414 779 104 q 1056 1047 1056 657 l 1056 1122 l 1167 1122 l 1167 1047 q 1013 335 1167 606 q 1185 159 1085 275 q 1328 -29 1285 43 l 1217 -79 q 969 271 1140 71 q 456 -90 771 3 l 421 -25 m 51 157 q 189 207 110 174 l 189 1092 l 300 1092 l 300 254 q 697 464 560 369 l 728 394 q 445 228 656 336 q 89 60 235 121 l 51 157 m 688 593 q 465 993 617 789 l 525 1028 q 676 849 592 968 q 803 639 760 729 l 688 593 z "},"仨":{"ha":1389,"x_min":40,"x_max":1318,"o":"m 439 1113 q 310 756 394 932 l 331 764 l 331 -86 l 221 -86 l 221 590 q 86 393 160 486 l 40 435 q 213 765 135 574 q 326 1131 292 957 l 439 1113 m 479 999 l 1264 999 l 1264 924 l 479 924 l 479 999 m 1215 547 l 1215 474 l 511 474 l 511 547 l 1215 547 m 417 -22 l 417 53 l 1318 53 l 1318 -22 l 417 -22 z "},"仪":{"ha":1389,"x_min":38,"x_max":1347,"o":"m 863 847 q 711 1107 792 1010 l 765 1142 q 968 897 894 1039 l 863 847 m 447 1104 q 300 726 397 917 l 324 726 l 324 -86 l 219 -86 l 219 581 q 86 388 160 482 l 38 432 q 214 763 132 569 q 329 1121 296 956 l 447 1104 m 949 290 q 1347 19 1118 128 l 1269 -75 q 879 214 1054 31 q 457 -82 701 32 l 421 -17 q 815 285 658 114 q 600 634 683 444 q 496 1021 517 824 l 572 1036 q 879 361 621 650 q 1149 1053 1096 638 l 1257 1035 q 949 290 1206 597 z "},"们":{"ha":1389,"x_min":33,"x_max":1301,"o":"m 429 1114 q 297 746 386 935 l 331 747 l 331 -85 l 226 -85 l 226 606 q 86 389 157 482 l 33 432 q 203 754 129 569 q 314 1129 276 939 l 429 1114 m 522 1114 q 626 1044 574 1089 q 721 942 679 1000 l 632 878 q 483 1076 558 1010 l 522 1114 m 775 1061 l 1301 1061 l 1301 29 q 1276 -45 1301 -15 q 1217 -75 1251 -75 l 1040 -75 l 1021 25 l 1154 25 q 1196 71 1196 25 l 1196 989 l 775 989 l 775 1061 m 586 -89 l 483 -89 l 483 826 l 586 826 l 586 -89 z "},"仰":{"ha":1389,"x_min":29,"x_max":1274,"o":"m 418 1110 q 290 736 381 929 l 319 736 l 319 -87 l 213 -87 l 213 586 q 82 382 157 486 l 29 429 q 199 760 117 554 q 311 1126 282 967 l 418 1110 m 821 1031 q 581 963 728 988 l 581 258 q 806 324 733 297 l 815 251 q 629 183 758 224 q 414 122 500 143 l 388 211 l 475 232 l 475 1007 l 478 1007 q 771 1103 636 1039 l 821 1031 m 876 1056 l 1274 1056 l 1274 221 q 1240 151 1274 179 q 1158 122 1206 122 l 1051 122 l 1033 207 l 1121 207 q 1156 220 1142 207 q 1169 256 1169 233 l 1169 992 l 983 992 l 983 -74 l 876 -74 l 876 1056 z "},"仲":{"ha":1389,"x_min":26,"x_max":1276,"o":"m 456 1107 q 300 732 404 925 l 336 732 l 336 -90 l 231 -90 l 231 614 q 74 400 158 499 l 26 446 q 216 767 133 588 q 344 1128 299 946 l 456 1107 m 924 1128 l 924 921 l 1276 921 l 1276 282 l 1167 282 l 1167 347 l 924 347 l 924 -74 l 814 -74 l 814 347 l 575 347 l 575 282 l 469 282 l 469 921 l 814 921 l 814 1128 l 924 1128 m 575 419 l 814 419 l 814 849 l 575 849 l 575 419 m 924 419 l 1167 419 l 1167 849 l 924 849 l 924 419 z "},"仵":{"ha":1389,"x_min":38,"x_max":1332,"o":"m 460 1103 q 306 726 408 918 l 325 726 l 325 -86 l 221 -86 l 221 578 q 86 389 157 478 l 38 433 q 219 765 133 569 q 339 1122 304 961 l 460 1103 m 932 488 l 1332 488 l 1332 414 l 932 414 l 932 -72 l 821 -72 l 821 414 l 433 414 l 433 488 l 821 488 l 821 857 l 624 857 q 471 614 557 717 l 415 653 q 522 858 475 733 q 599 1118 569 983 l 714 1104 q 658 933 694 1025 l 1276 933 l 1276 857 l 932 857 l 932 488 z "},"件":{"ha":1389,"x_min":26,"x_max":1336,"o":"m 938 460 l 1336 460 l 1336 388 l 938 388 l 938 -75 l 826 -75 l 826 388 l 413 388 l 413 460 l 826 460 l 826 797 l 614 797 q 474 563 558 661 l 417 600 q 535 872 478 690 q 586 1081 572 993 l 697 1068 q 643 871 685 986 l 826 871 l 826 1131 l 938 1131 l 938 871 l 1282 871 l 1282 797 l 938 797 l 938 460 m 429 1101 q 294 731 383 911 l 319 731 l 319 -85 l 214 -85 l 214 579 q 76 376 156 479 l 26 421 q 199 746 119 560 q 317 1118 279 932 l 429 1101 z "},"价":{"ha":1389,"x_min":19,"x_max":1376,"o":"m 457 1113 q 299 739 397 917 l 344 739 l 344 -90 l 239 -90 l 239 636 q 69 400 163 511 l 19 446 q 212 769 131 596 q 340 1132 293 943 l 457 1113 m 1133 901 q 1376 763 1260 815 l 1299 672 q 1097 808 1183 739 q 865 1058 944 931 q 681 839 797 943 q 435 665 565 735 l 399 719 q 614 892 510 783 q 781 1121 718 1001 l 907 1121 q 1005 1008 936 1074 q 1133 901 1074 942 m 607 693 l 714 693 l 714 478 q 669 174 714 285 q 458 -79 604 7 l 418 -29 q 569 185 521 53 q 607 468 607 292 l 607 693 m 1146 -64 l 1039 -64 l 1039 692 l 1146 692 l 1146 -64 z "},"任":{"ha":1389,"x_min":24,"x_max":1319,"o":"m 444 1107 q 290 729 393 924 l 325 729 l 325 -82 l 224 -82 l 224 611 q 72 399 150 490 l 24 444 q 209 774 125 588 q 332 1126 293 960 l 444 1107 m 1319 496 l 914 496 l 914 38 l 1285 38 l 1285 -35 l 453 -35 l 453 38 l 803 38 l 803 496 l 404 496 l 404 568 l 803 568 l 803 914 q 474 885 692 901 l 458 949 q 843 999 613 961 q 1197 1082 1065 1035 l 1260 1000 q 914 928 1161 961 l 914 568 l 1319 568 l 1319 496 z "},"份":{"ha":1389,"x_min":36,"x_max":1342,"o":"m 439 1106 q 296 728 392 921 l 321 728 l 321 -86 l 217 -86 l 217 582 q 86 390 161 488 l 36 433 q 210 763 131 572 q 322 1122 289 954 l 439 1106 m 1025 1121 q 1158 891 1067 1014 q 1342 693 1250 768 l 1254 617 q 1080 843 1168 699 q 960 1101 992 988 l 1025 1121 m 399 656 q 565 872 485 736 q 671 1115 644 1008 l 778 1090 q 647 831 742 965 q 446 608 553 697 l 399 656 m 528 575 l 529 643 l 1182 643 l 1182 365 q 1144 44 1182 132 q 1081 -36 1121 -8 q 990 -64 1042 -64 l 839 -64 l 818 29 l 943 29 q 1058 126 1038 29 q 1076 376 1076 199 l 1076 575 l 793 575 q 701 192 786 350 q 436 -74 617 35 l 394 -21 q 618 233 551 92 q 686 575 685 375 l 528 575 z "},"仿":{"ha":1389,"x_min":25,"x_max":1322,"o":"m 424 1110 q 290 736 379 921 l 315 736 l 315 -86 l 206 -86 l 206 578 q 75 385 139 467 l 25 429 q 195 752 114 560 q 313 1126 276 944 l 424 1110 m 1322 840 l 774 840 l 774 621 l 1235 621 l 1235 375 q 1188 42 1232 132 q 1011 -65 1135 -65 l 863 -65 l 835 26 l 958 26 q 1099 115 1065 26 q 1125 390 1125 181 l 1125 553 l 772 553 q 677 185 763 350 q 429 -78 592 21 l 383 -25 q 598 253 533 90 q 663 635 663 417 l 663 840 l 449 840 l 449 913 l 825 913 l 825 1121 l 938 1121 l 938 913 l 1322 913 l 1322 840 z "},"企":{"ha":1389,"x_min":29,"x_max":1363,"o":"m 29 633 q 252 764 135 682 q 469 942 369 846 q 624 1126 568 1038 l 749 1126 q 1006 884 836 1003 q 1363 686 1176 765 l 1281 597 q 970 794 1132 665 q 707 1056 808 924 q 422 785 618 928 q 60 576 261 665 l 29 633 m 1290 -53 l 75 -53 l 75 22 l 290 22 l 290 586 l 400 586 l 400 22 l 676 22 l 676 826 l 789 826 l 789 522 l 1199 522 l 1199 447 l 789 447 l 789 22 l 1290 22 l 1290 -53 z "},"伊":{"ha":1389,"x_min":29,"x_max":1365,"o":"m 429 1117 q 288 733 382 924 l 317 733 l 317 -90 l 211 -90 l 211 590 q 78 393 144 481 l 29 439 q 199 762 118 571 q 315 1135 279 953 l 429 1117 m 1239 772 l 1365 772 l 1365 700 l 1239 700 l 1239 303 l 1131 303 l 1131 381 l 839 381 q 767 172 822 276 q 519 -82 686 19 l 475 -29 q 675 200 608 67 q 731 381 714 275 l 438 381 l 438 450 l 739 450 q 743 553 743 500 l 743 700 l 396 700 l 396 772 l 743 772 l 743 1003 l 481 1003 l 481 1071 l 1239 1071 l 1239 772 m 853 772 l 1131 772 l 1131 1003 l 853 1003 l 853 772 m 1131 450 l 1131 700 l 853 700 l 853 560 l 849 486 l 847 450 l 1131 450 z "},"伍":{"ha":1389,"x_min":26,"x_max":1353,"o":"m 425 1113 q 290 739 379 928 l 318 739 l 318 -86 l 214 -86 l 214 593 q 76 386 143 471 l 26 432 q 198 755 121 572 q 314 1129 275 938 l 425 1113 m 1199 615 l 1199 28 l 1353 28 l 1353 -47 l 383 -47 l 383 28 l 557 28 l 644 543 l 447 543 l 447 615 l 657 615 l 719 989 l 458 989 l 458 1061 l 1283 1061 l 1283 989 l 833 989 l 768 615 l 1199 615 m 668 28 l 1088 28 l 1088 543 l 756 543 l 668 28 z "},"伎":{"ha":1389,"x_min":25,"x_max":1324,"o":"m 956 172 q 1324 29 1108 83 l 1250 -68 q 875 110 1046 -8 q 407 -75 683 -15 l 379 -12 q 609 64 489 14 q 800 167 729 114 q 635 338 706 235 q 531 553 564 440 l 440 553 l 440 626 l 794 626 l 794 843 l 413 843 l 413 917 l 794 917 l 794 1133 l 906 1133 l 906 917 l 1321 917 l 1321 843 l 906 843 l 906 626 l 1217 626 l 1231 611 q 956 172 1179 363 m 424 1110 q 292 736 381 924 l 315 736 l 315 -86 l 206 -86 l 206 572 q 75 385 149 474 l 25 429 q 194 751 114 560 q 313 1126 275 943 l 424 1110 m 871 225 q 1090 553 1040 372 l 618 553 q 871 225 679 351 z "},"伏":{"ha":1389,"x_min":29,"x_max":1328,"o":"m 433 1108 q 294 732 385 918 l 326 732 l 326 -87 l 221 -87 l 221 594 q 81 392 146 471 l 29 436 q 204 769 122 572 q 318 1126 286 965 l 433 1108 m 1072 272 q 1328 31 1158 157 l 1236 -62 q 985 224 1085 64 q 857 539 889 375 q 793 332 838 435 q 644 101 738 207 q 431 -74 550 -4 l 386 -18 q 676 331 590 129 q 763 664 750 501 l 418 664 l 418 740 l 772 740 l 772 1115 l 888 1115 l 888 740 l 1293 740 l 1293 664 l 899 664 q 1072 272 928 463 m 1138 811 q 978 1042 1083 932 l 1035 1082 q 1249 864 1167 989 l 1138 811 z "},"伐":{"ha":1389,"x_min":35,"x_max":1308,"o":"m 468 1103 q 311 726 410 907 l 340 726 l 340 -90 l 236 -90 l 236 601 q 85 396 174 503 l 35 444 q 228 766 146 590 q 357 1124 311 942 l 468 1103 m 1308 283 q 1299 137 1304 194 q 1282 22 1294 79 q 1242 -48 1274 -22 q 1174 -74 1210 -74 q 1056 -19 1118 -74 q 893 197 972 49 q 501 -75 685 10 l 461 -22 q 851 283 668 94 q 743 683 776 453 l 406 658 l 399 732 l 735 757 q 721 1117 721 881 l 831 1117 q 843 764 831 922 l 1304 797 l 1306 725 l 850 692 q 929 368 871 536 q 1106 626 1038 496 l 1208 579 q 971 271 1124 425 q 1100 83 1024 168 q 1157 49 1129 49 q 1199 101 1188 49 q 1222 304 1214 175 l 1308 283 m 1118 851 q 929 1044 1036 961 l 981 1088 q 1103 1012 1032 1063 q 1215 918 1175 961 l 1118 851 z "},"休":{"ha":1389,"x_min":21,"x_max":1353,"o":"m 422 1107 q 285 728 375 918 l 318 728 l 318 -83 l 210 -83 l 210 588 q 71 381 142 471 l 21 426 q 199 762 119 572 q 311 1124 278 951 l 422 1107 m 918 742 q 1090 435 963 600 q 1353 165 1217 271 l 1264 85 q 1060 319 1158 181 q 906 588 963 457 l 906 -75 l 793 -75 l 793 539 q 632 288 728 407 q 422 74 536 168 l 375 122 q 610 415 508 253 q 763 742 713 576 l 418 742 l 418 817 l 793 817 l 793 1119 l 906 1119 l 906 817 l 1321 817 l 1321 742 l 918 742 z "},"众":{"ha":1389,"x_min":57,"x_max":1336,"o":"m 707 1056 q 550 850 651 949 q 327 677 449 751 q 88 563 206 603 l 57 618 q 272 736 163 658 q 475 915 382 814 q 624 1126 568 1017 l 749 1126 q 1000 854 840 978 q 1333 672 1160 731 l 1251 583 q 956 769 1103 640 q 707 1056 808 899 m 619 78 q 433 346 543 232 q 320 90 404 201 q 92 -86 236 -21 l 64 -33 q 272 180 203 39 q 342 482 342 321 l 342 663 l 450 663 l 450 513 q 444 417 450 460 q 708 126 624 283 l 619 78 m 1042 493 q 1124 208 1051 343 q 1336 -7 1196 74 l 1260 -86 q 1095 81 1158 -24 q 1008 306 1032 186 q 867 78 965 178 q 624 -86 768 -21 l 593 -35 q 837 182 742 43 q 932 475 932 321 l 932 663 l 1042 663 l 1042 511 l 1042 493 z "},"优":{"ha":1389,"x_min":28,"x_max":1325,"o":"m 431 1108 q 290 731 382 914 l 324 731 l 324 -86 l 217 -86 l 217 594 q 78 393 156 492 l 28 436 q 201 767 119 571 q 314 1128 282 964 l 431 1108 m 853 824 l 1325 824 l 1325 753 l 853 753 q 752 273 846 468 q 451 -71 658 78 l 400 -14 q 654 315 574 136 q 740 753 735 494 l 438 753 l 438 824 l 742 824 l 742 1124 l 853 1124 l 853 824 m 1135 872 q 976 1064 1067 983 l 1024 1103 q 1138 1028 1083 1075 q 1228 932 1193 982 l 1135 872 m 1228 92 q 1236 244 1236 147 l 1322 228 l 1322 64 q 1193 -58 1322 -46 q 1096 -62 1143 -62 q 965 -57 1051 -62 q 868 51 868 -47 l 868 643 l 975 643 l 975 75 q 1031 28 975 35 q 1078 25 1046 25 q 1151 31 1110 25 q 1204 51 1183 35 q 1228 92 1225 67 z "},"伙":{"ha":1389,"x_min":29,"x_max":1346,"o":"m 433 1108 q 296 732 382 910 l 326 732 l 326 -87 l 221 -87 l 221 596 q 81 392 160 493 l 29 436 q 203 767 122 572 q 318 1126 285 963 l 433 1108 m 917 733 q 974 458 917 597 q 1130 201 1032 318 q 1346 14 1228 85 l 1267 -76 q 1028 177 1132 22 q 889 486 925 332 q 802 258 868 369 q 637 58 736 146 q 422 -78 538 -29 l 383 -24 q 610 157 514 43 q 756 410 706 271 q 807 694 807 550 l 807 1118 l 917 1118 l 917 733 m 1300 888 q 1223 676 1272 793 q 1121 457 1174 558 l 1053 483 q 1129 701 1093 588 q 1188 908 1165 814 l 1300 888 m 644 869 q 610 649 633 753 q 551 469 586 546 l 450 511 q 526 690 497 601 q 569 879 556 779 l 644 869 z "},"会":{"ha":1389,"x_min":43,"x_max":1351,"o":"m 43 636 q 229 740 136 679 q 403 872 322 801 q 618 1121 557 1006 l 747 1121 q 1000 875 815 1015 q 1351 683 1131 775 l 1267 589 q 960 788 1126 651 q 706 1053 793 925 q 431 779 599 903 q 75 579 263 656 l 43 636 m 1044 614 l 342 614 l 342 689 l 1044 689 l 1044 614 m 1151 -78 q 1085 7 1115 -28 q 628 -39 956 -11 q 128 -76 301 -67 l 110 25 q 303 29 182 25 q 481 344 400 169 l 86 344 l 86 419 l 1297 419 l 1297 344 l 610 344 q 400 33 513 175 q 1028 71 781 50 q 839 243 951 150 l 900 286 q 1084 154 990 233 q 1261 -21 1178 75 l 1151 -78 z "},"伞":{"ha":1389,"x_min":31,"x_max":1353,"o":"m 703 1046 q 428 802 597 908 q 63 626 258 696 l 31 683 q 258 797 140 725 q 474 953 376 868 q 618 1119 571 1039 l 746 1119 q 1003 905 835 1008 q 1353 736 1172 801 l 1272 643 q 960 821 1113 713 q 703 1046 807 929 m 636 821 l 740 821 l 740 292 l 1307 292 l 1307 221 l 740 221 l 740 -87 l 636 -87 l 636 221 l 69 221 l 69 292 l 636 292 l 636 821 m 926 375 q 1057 657 993 476 l 1168 615 q 1087 469 1133 540 q 992 342 1040 397 l 926 375 m 363 342 q 306 490 339 417 q 238 617 274 563 l 299 651 q 397 526 350 600 q 472 382 444 453 l 363 342 z "},"伟":{"ha":1389,"x_min":31,"x_max":1304,"o":"m 426 1118 q 289 738 383 938 l 319 738 l 319 -90 l 213 -90 l 213 593 q 81 393 150 482 l 31 438 q 206 772 129 585 q 317 1133 282 958 l 426 1118 m 1303 478 l 1304 369 q 1292 176 1304 258 q 1252 99 1285 126 q 1165 71 1219 71 l 1028 71 l 1010 164 l 1126 164 q 1167 176 1153 164 q 1185 214 1181 189 q 1197 339 1197 272 l 1196 404 l 894 404 l 894 -78 l 782 -78 l 782 404 l 414 404 l 414 478 l 782 478 l 782 651 l 482 651 l 482 722 l 782 722 l 782 889 l 446 889 l 446 963 l 782 963 l 782 1125 l 894 1125 l 894 963 l 1283 963 l 1283 889 l 894 889 l 894 722 l 1240 722 l 1240 651 l 894 651 l 894 478 l 1303 478 z "},"传":{"ha":1389,"x_min":25,"x_max":1322,"o":"m 447 1107 q 296 736 394 922 l 329 736 l 329 -82 l 228 -82 l 228 614 q 74 397 156 494 l 25 444 q 211 772 125 583 q 336 1126 297 961 l 447 1107 m 1322 617 l 725 617 l 679 442 l 1239 442 l 1276 399 q 1165 225 1236 306 q 1014 83 1094 144 q 1161 10 1099 47 l 1097 -82 q 836 58 1004 -21 q 556 178 668 136 l 583 235 q 746 187 647 219 q 942 114 844 154 q 1053 242 1001 172 q 1131 368 1106 311 l 554 368 l 618 617 l 421 617 l 421 693 l 638 693 l 683 867 l 469 867 l 469 943 l 703 943 l 749 1121 l 857 1119 l 811 943 l 1274 943 l 1274 867 l 790 867 l 744 693 l 1322 693 l 1322 617 z "},"伤":{"ha":1389,"x_min":36,"x_max":1318,"o":"m 1318 971 l 1318 903 l 640 903 q 490 697 571 778 l 438 738 q 549 924 504 819 q 615 1133 593 1028 l 729 1119 q 674 971 713 1054 l 1318 971 m 468 1103 q 308 725 411 908 l 340 725 l 340 -90 l 236 -90 l 236 603 q 85 396 171 501 l 36 444 q 229 765 146 589 q 358 1124 313 942 l 468 1103 m 868 654 l 1275 654 l 1275 583 q 1267 313 1275 433 q 1222 49 1256 135 q 1046 -60 1178 -57 l 907 -61 l 882 32 l 1006 32 q 1129 110 1104 32 q 1161 353 1150 169 q 1168 586 1165 422 l 867 586 q 471 -79 851 149 l 428 -26 q 671 235 590 93 q 760 586 751 376 l 501 586 l 501 654 l 760 654 l 760 817 l 868 817 l 868 654 z "},"伥":{"ha":1389,"x_min":29,"x_max":1344,"o":"m 433 1108 q 294 732 386 919 l 326 732 l 326 -87 l 221 -87 l 221 596 q 81 392 160 493 l 29 436 q 204 769 122 572 q 318 1126 286 965 l 433 1108 m 947 521 q 1104 227 993 365 q 1344 7 1215 89 l 1258 -85 q 1026 165 1132 0 q 868 521 919 329 l 704 521 l 704 33 q 986 76 838 49 l 994 6 q 511 -83 793 -43 l 493 13 l 594 21 l 594 521 l 419 521 l 419 594 l 594 594 l 594 1104 l 704 1104 l 704 594 l 1308 594 l 1308 521 l 947 521 m 1256 1035 q 1061 840 1186 939 q 825 690 936 742 l 789 747 q 997 901 890 804 q 1161 1092 1104 999 l 1256 1035 z "},"伦":{"ha":1389,"x_min":40,"x_max":1349,"o":"m 454 1104 q 306 726 407 926 l 326 726 l 326 -86 l 222 -86 l 222 579 q 90 389 160 475 l 40 433 q 219 764 136 571 q 335 1122 301 957 l 454 1104 m 911 1122 q 1082 901 956 1018 q 1349 699 1208 785 l 1267 610 q 1047 803 1161 678 q 875 1035 932 928 q 436 613 736 786 l 400 667 q 639 876 531 753 q 789 1122 747 1000 l 911 1122 m 1158 94 q 1164 217 1161 124 l 1164 257 l 1257 240 l 1257 53 q 1135 -54 1257 -39 q 919 -61 1072 -61 q 758 -58 836 -61 q 653 -51 681 -56 q 578 -12 607 -46 q 550 71 550 22 l 550 650 l 658 650 l 658 394 q 1150 575 883 447 l 1217 496 q 940 394 1093 442 q 658 321 786 346 l 658 93 q 710 32 658 40 q 900 26 747 26 q 1090 32 1053 26 q 1158 94 1149 39 z "},"伪":{"ha":1389,"x_min":29,"x_max":1256,"o":"m 436 1104 q 293 729 390 922 l 315 729 l 315 -86 l 213 -86 l 213 583 q 81 389 150 481 l 29 433 q 205 761 125 569 q 319 1122 285 953 l 436 1104 m 1256 821 l 1256 758 q 1235 219 1256 393 q 1201 43 1225 113 q 1139 -35 1182 -8 q 1035 -62 1096 -62 l 871 -62 l 851 33 l 993 33 q 1069 58 1039 33 q 1113 133 1100 83 q 1149 453 1143 249 q 1150 558 1150 475 q 1149 746 1150 669 l 854 746 q 747 253 847 456 q 429 -78 647 50 l 388 -21 q 655 298 572 111 q 744 746 738 485 l 442 746 l 442 821 l 746 821 l 746 1118 l 856 1118 l 856 821 l 1256 821 m 600 854 q 482 1056 551 969 l 531 1089 q 692 897 638 999 l 600 854 m 944 558 q 1082 296 1039 435 l 978 263 q 885 529 943 406 l 944 558 z "},"伯":{"ha":1389,"x_min":31,"x_max":1254,"o":"m 451 1114 q 300 742 400 931 l 339 742 l 339 -86 l 231 -86 l 231 618 q 78 401 154 494 l 31 447 q 209 766 124 579 q 339 1135 294 953 l 451 1114 m 1254 910 l 1254 -58 l 1144 -58 l 1144 19 l 614 19 l 614 -61 l 503 -61 l 503 910 l 767 910 q 828 1121 815 1053 l 957 1101 q 860 910 922 1014 l 1254 910 m 614 514 l 1144 514 l 1144 838 l 614 838 l 614 514 m 614 92 l 1144 92 l 1144 444 l 614 444 l 614 92 z "},"估":{"ha":1389,"x_min":19,"x_max":1326,"o":"m 453 1104 q 306 739 401 925 l 343 739 l 343 -89 l 239 -89 l 239 621 q 69 385 160 492 l 19 432 q 208 751 122 564 q 339 1125 293 939 l 453 1104 m 1326 854 l 1326 781 l 926 781 l 926 503 l 1242 503 l 1242 -68 l 1135 -68 l 1135 -10 l 626 -10 l 626 -71 l 519 -71 l 519 503 l 817 503 l 817 781 l 439 781 l 439 854 l 817 854 l 817 1115 l 926 1115 l 926 854 l 1326 854 m 1135 60 l 1135 433 l 626 433 l 626 60 l 1135 60 z "},"伴":{"ha":1389,"x_min":26,"x_max":1331,"o":"m 426 1117 q 286 733 379 926 l 315 733 l 315 -90 l 208 -90 l 208 589 q 76 393 142 476 l 26 439 q 196 760 115 569 q 314 1135 276 951 l 426 1117 m 899 558 l 899 339 l 1331 339 l 1331 265 l 899 265 l 899 -79 l 788 -79 l 788 265 l 386 265 l 386 339 l 788 339 l 788 558 l 426 558 l 426 632 l 788 632 l 788 1129 l 899 1129 l 899 632 l 1281 632 l 1281 558 l 899 558 m 1272 1014 q 1088 692 1181 814 l 1022 718 q 1150 1043 1110 890 l 1272 1014 m 563 696 q 454 1006 521 874 l 519 1031 q 672 725 621 893 l 563 696 z "},"伶":{"ha":1389,"x_min":18,"x_max":1351,"o":"m 457 1114 q 294 733 400 921 l 321 733 l 321 -79 l 213 -79 l 213 594 q 69 399 144 490 l 18 446 q 203 754 114 568 q 340 1132 292 940 l 457 1114 m 889 1118 q 1008 977 926 1054 q 1183 837 1089 900 q 1351 746 1276 774 l 1274 657 q 1026 838 1139 733 q 853 1049 914 942 q 662 817 783 925 q 403 643 540 710 l 368 696 q 606 882 490 760 q 768 1118 722 1004 l 889 1118 m 890 590 q 733 797 801 738 l 778 835 q 893 747 831 803 q 989 644 956 692 l 890 590 m 1225 515 q 1119 276 1190 379 q 933 88 1047 174 q 1094 -10 1028 40 l 1011 -92 q 765 60 906 -15 q 508 178 624 135 l 549 236 q 849 128 693 197 q 1002 287 940 203 q 1092 469 1064 371 l 464 469 l 464 543 l 1197 543 l 1225 515 z "},"伸":{"ha":1389,"x_min":29,"x_max":1281,"o":"m 431 1117 q 290 735 383 926 l 321 735 l 321 -87 l 214 -87 l 214 593 q 79 393 156 492 l 29 439 q 206 769 131 588 q 318 1132 282 951 l 431 1117 m 919 1132 l 919 967 l 1281 967 l 1281 246 l 1171 246 l 1171 303 l 919 303 l 919 -76 l 810 -76 l 810 303 l 569 303 l 569 240 l 465 240 l 465 967 l 810 967 l 810 1132 l 919 1132 m 572 671 l 810 671 l 810 896 l 572 896 l 572 671 m 919 671 l 1172 671 l 1172 896 l 919 896 l 919 671 m 572 372 l 810 372 l 810 603 l 572 603 l 572 372 m 919 372 l 1172 372 l 1172 603 l 919 603 l 919 372 z "},"伺":{"ha":1389,"x_min":25,"x_max":1253,"o":"m 399 1113 q 272 736 363 938 l 297 736 l 297 -90 l 192 -90 l 192 576 q 75 393 129 468 l 25 436 q 183 771 110 574 q 282 1126 257 968 l 399 1113 m 453 1081 l 1253 1081 l 1253 40 q 1217 -40 1253 -8 q 1131 -72 1181 -72 l 960 -72 l 943 25 l 1090 25 q 1130 39 1114 25 q 1146 76 1146 53 l 1146 1010 l 453 1010 l 453 1081 m 393 853 l 1049 853 l 1049 779 l 393 779 l 393 853 m 471 622 l 968 622 l 968 188 l 575 188 l 575 126 l 471 126 l 471 622 m 578 256 l 860 256 l 860 554 l 578 554 l 578 256 z "},"似":{"ha":1389,"x_min":36,"x_max":1350,"o":"m 419 1113 q 292 736 385 939 l 325 736 l 325 -85 l 222 -85 l 222 599 q 85 382 160 483 l 36 424 q 204 763 124 558 q 313 1129 285 968 l 419 1113 m 1096 343 q 1350 3 1264 172 l 1244 -40 q 1061 281 1185 110 q 646 -79 917 47 l 610 -25 q 978 326 851 110 q 1067 551 1032 422 q 1115 1063 1115 728 l 1115 1090 l 1226 1090 l 1226 1067 q 1096 343 1226 603 m 918 378 q 688 233 833 311 q 425 106 543 154 l 392 196 q 494 236 458 219 l 494 1058 l 600 1058 l 600 282 q 892 435 758 357 l 918 378 m 865 631 q 688 1008 803 831 l 743 1035 q 876 863 815 958 q 978 668 936 768 l 865 631 z "},"伽":{"ha":1389,"x_min":24,"x_max":1271,"o":"m 389 1111 q 265 738 353 940 l 294 738 l 294 -90 l 193 -90 l 193 585 q 76 393 133 469 l 24 433 q 181 769 106 565 q 281 1126 257 972 l 389 1111 m 596 1110 l 596 842 l 825 842 l 825 661 q 824 397 825 449 l 824 351 q 793 35 817 157 q 658 -65 775 -65 l 551 -65 l 538 22 l 619 22 q 699 103 685 22 q 722 482 722 219 l 722 771 l 590 771 l 590 664 q 579 487 590 583 q 550 313 568 390 q 385 -74 500 79 l 329 -32 q 471 407 440 156 q 489 660 489 528 l 489 771 l 364 771 l 364 842 l 489 842 l 489 1110 l 596 1110 m 918 -58 l 918 1008 l 1271 1008 l 1271 -50 l 1167 -50 l 1167 19 l 1018 19 l 1018 -58 l 918 -58 m 1018 89 l 1167 89 l 1167 936 l 1018 936 l 1018 89 z "},"佃":{"ha":1389,"x_min":22,"x_max":1268,"o":"m 428 1114 q 282 732 382 929 l 313 732 l 313 -86 l 203 -86 l 203 586 q 72 392 143 485 l 22 436 q 193 760 113 569 q 310 1132 274 951 l 428 1114 m 464 -60 l 464 1057 l 1268 1057 l 1268 -57 l 1160 -57 l 1160 13 l 574 13 l 574 -60 l 464 -60 m 574 590 l 808 590 l 808 986 l 574 986 l 574 590 m 913 590 l 1160 590 l 1160 986 l 913 986 l 913 590 m 574 86 l 808 86 l 808 519 l 574 519 l 574 86 m 913 86 l 1160 86 l 1160 519 l 913 519 l 913 86 z "},"但":{"ha":1389,"x_min":25,"x_max":1336,"o":"m 446 1110 q 300 743 394 926 l 338 743 l 338 -89 l 232 -89 l 232 622 q 72 397 153 493 l 25 444 q 211 769 131 590 q 335 1129 292 949 l 446 1110 m 1121 221 l 624 221 l 624 171 l 514 171 l 514 1068 l 1233 1068 l 1233 172 l 1121 172 l 1121 221 m 1121 994 l 624 994 l 624 697 l 1121 697 l 1121 994 m 1121 294 l 1121 625 l 624 625 l 624 294 l 1121 294 m 417 -43 l 417 31 l 1336 31 l 1336 -43 l 417 -43 z "},"位":{"ha":1389,"x_min":13,"x_max":1322,"o":"m 451 1115 q 288 729 406 940 l 315 729 l 315 -96 l 210 -96 l 210 600 q 60 400 140 493 l 13 446 q 207 772 115 576 q 335 1133 299 967 l 451 1115 m 1306 824 l 422 824 l 422 894 l 792 894 l 792 1132 l 903 1132 l 903 894 l 1306 894 l 1306 824 m 1322 21 l 1322 -51 l 403 -51 l 403 21 l 892 21 q 995 374 932 129 q 1081 746 1058 618 l 1203 722 q 1095 354 1163 565 q 976 21 1028 143 l 1322 21 m 614 110 q 577 399 604 243 q 513 690 550 554 l 585 708 q 735 129 715 365 l 614 110 z "},"低":{"ha":1389,"x_min":28,"x_max":1329,"o":"m 426 1117 q 286 733 378 918 l 317 733 l 317 -86 l 211 -86 l 211 593 q 76 393 147 486 l 28 436 q 196 762 114 567 q 314 1133 278 957 l 426 1117 m 1329 285 q 1314 56 1324 158 q 1285 -20 1311 8 q 1218 -49 1258 -49 q 1092 18 1154 -49 q 929 281 982 132 q 864 594 879 410 l 597 594 l 597 74 q 786 110 699 90 q 726 225 756 178 l 781 254 q 958 -26 896 131 l 849 -60 q 808 54 833 -12 q 616 -2 728 26 q 401 -49 504 -31 l 382 43 l 492 57 l 492 1018 q 863 1058 649 1028 q 1168 1121 1078 1089 l 1215 1040 q 963 996 1146 1021 l 963 878 q 967 667 963 733 l 1306 667 l 1306 594 l 971 594 q 1039 293 986 424 q 1151 106 1082 181 q 1196 81 1176 81 q 1232 136 1228 81 l 1236 186 l 1246 303 l 1329 285 m 597 667 l 858 667 q 851 982 851 790 q 597 960 692 964 l 597 667 z "},"住":{"ha":1389,"x_min":22,"x_max":1328,"o":"m 710 1133 q 971 946 863 1058 l 871 874 q 664 1089 808 967 l 710 1133 m 464 1103 q 306 735 414 928 l 340 735 l 340 -90 l 235 -90 l 235 619 q 68 397 153 492 l 22 443 q 215 761 124 576 q 353 1124 307 946 l 464 1103 m 901 411 l 901 26 l 1328 26 l 1328 -46 l 406 -46 l 406 26 l 793 26 l 793 411 l 456 411 l 456 483 l 793 483 l 793 801 l 433 801 l 433 874 l 1292 874 l 1292 801 l 901 801 l 901 483 l 1257 483 l 1257 411 l 901 411 z "},"佐":{"ha":1389,"x_min":26,"x_max":1332,"o":"m 440 1111 q 288 731 389 921 l 315 731 l 315 -86 l 210 -86 l 210 596 q 71 404 150 501 l 26 443 q 210 783 132 607 q 326 1128 288 958 l 440 1111 m 1332 792 l 771 792 q 694 531 742 647 l 1274 531 l 1274 460 l 993 460 l 993 28 l 1324 28 l 1324 -44 l 497 -44 l 497 28 l 883 28 l 883 460 l 664 460 q 414 103 569 261 l 364 146 q 613 592 539 356 q 665 792 646 697 l 410 792 l 410 864 l 678 864 q 706 1126 700 1015 l 819 1121 q 785 864 804 965 l 1332 864 l 1332 792 z "},"佑":{"ha":1389,"x_min":33,"x_max":1343,"o":"m 1343 815 l 793 815 q 688 533 753 660 l 1263 533 l 1263 -64 l 1154 -64 l 1154 1 l 735 1 l 735 -67 l 626 -67 l 626 431 q 436 206 549 307 l 389 250 q 600 567 514 383 q 685 815 649 667 l 435 815 l 435 889 l 699 889 q 728 1129 722 1004 l 842 1121 q 810 889 832 999 l 1343 889 l 1343 815 m 464 1107 q 303 728 411 925 l 333 728 l 333 -90 l 226 -90 l 226 599 q 81 403 158 494 l 33 449 q 225 771 142 593 q 353 1128 308 949 l 464 1107 m 1154 463 l 735 463 l 735 75 l 1154 75 l 1154 463 z "},"体":{"ha":1389,"x_min":28,"x_max":1371,"o":"m 461 1107 q 300 735 410 938 l 333 735 l 333 -85 l 225 -85 l 225 608 q 74 400 151 490 l 28 446 q 218 771 132 586 q 346 1126 304 956 l 461 1107 m 931 763 q 1107 463 979 621 q 1371 204 1235 304 l 1278 121 q 1071 354 1169 215 q 913 632 972 493 l 913 256 l 1108 256 l 1108 186 l 913 186 l 913 -78 l 808 -78 l 808 186 l 617 186 l 617 256 l 808 256 l 808 586 q 634 330 736 453 q 421 118 532 207 l 375 164 q 612 447 507 290 q 774 763 717 603 l 436 763 l 436 836 l 804 836 l 804 1122 l 911 1122 l 911 836 l 1318 836 l 1318 763 l 931 763 z "},"何":{"ha":1389,"x_min":29,"x_max":1344,"o":"m 439 1115 q 294 733 385 914 l 324 733 l 324 -90 l 215 -90 l 215 589 q 78 397 149 479 l 29 440 q 202 759 115 561 q 326 1135 289 957 l 439 1115 m 469 1056 l 1344 1056 l 1344 982 l 1228 982 l 1228 47 q 1192 -37 1228 -4 q 1104 -71 1157 -71 l 919 -71 l 901 25 l 1063 25 q 1101 39 1085 25 q 1117 76 1117 53 l 1117 982 l 469 982 l 469 1056 m 488 768 l 951 768 l 951 267 l 592 267 l 592 189 l 488 189 l 488 768 m 592 335 l 846 335 l 846 700 l 592 700 l 592 335 z "},"佘":{"ha":1389,"x_min":28,"x_max":1351,"o":"m 28 689 q 383 897 196 758 q 607 1126 517 994 l 743 1126 q 1004 911 817 1033 q 1351 740 1163 808 l 1269 649 q 963 827 1132 704 q 700 1065 794 950 q 422 819 585 928 q 57 633 260 710 l 28 689 m 1032 667 l 339 667 l 339 740 l 1032 740 l 1032 667 m 464 -81 l 446 7 l 578 7 q 619 22 599 7 q 639 57 639 36 l 639 417 l 104 417 l 104 490 l 1272 490 l 1272 417 l 749 417 l 749 26 q 714 -53 749 -26 q 613 -81 679 -81 l 464 -81 m 54 22 q 381 342 246 144 l 483 294 q 301 110 419 208 q 96 -31 186 15 l 54 22 m 1225 -19 q 1058 147 1157 56 q 886 292 960 238 l 938 339 q 1144 200 1028 286 q 1319 51 1260 114 l 1225 -19 z "},"余":{"ha":1389,"x_min":28,"x_max":1351,"o":"m 28 689 q 383 897 196 758 q 607 1126 517 994 l 743 1126 q 1004 911 817 1033 q 1351 740 1163 808 l 1269 649 q 963 827 1132 704 q 700 1065 794 950 q 57 633 465 786 l 28 689 m 464 -81 l 446 7 l 578 7 q 619 22 599 7 q 639 57 639 36 l 639 407 l 104 407 l 104 482 l 639 482 l 639 667 l 339 667 l 339 740 l 1032 740 l 1032 667 l 749 667 l 749 482 l 1272 482 l 1272 407 l 749 407 l 749 26 q 714 -53 749 -26 q 613 -81 679 -81 l 464 -81 m 54 22 q 381 342 246 144 l 483 294 q 308 116 422 211 q 96 -31 193 21 l 54 22 m 1225 -19 q 1058 147 1157 56 q 886 292 960 238 l 938 339 q 1144 200 1028 286 q 1319 51 1260 114 l 1225 -19 z "},"佛":{"ha":1389,"x_min":17,"x_max":1307,"o":"m 417 1113 q 276 736 369 929 l 304 736 l 304 -90 l 200 -90 l 200 593 q 69 394 143 494 l 17 439 q 184 749 103 558 q 304 1126 265 940 l 417 1113 m 1306 444 q 1307 338 1307 404 q 1303 215 1307 265 q 1286 117 1299 164 q 1244 57 1279 81 q 1164 33 1210 33 l 1079 33 l 1063 121 l 1122 119 q 1196 192 1189 117 q 1204 318 1204 253 q 1203 378 1204 357 l 1015 378 l 1015 -71 l 914 -71 l 914 378 l 764 378 q 689 150 750 242 q 401 -74 590 -3 l 369 -17 q 565 135 483 33 q 661 378 643 231 l 415 378 l 447 724 l 668 724 l 668 907 l 432 907 l 432 976 l 668 976 l 668 1117 l 771 1117 l 771 976 l 914 976 l 914 1119 l 1015 1119 l 1015 976 l 1264 976 l 1264 657 l 1015 657 l 1015 444 l 1306 444 m 771 724 l 914 724 l 914 907 l 771 907 l 771 724 m 1164 907 l 1015 907 l 1015 724 l 1164 724 l 1164 907 m 668 657 l 540 657 l 522 444 l 667 444 q 668 492 668 460 l 668 657 m 914 444 l 914 657 l 771 657 l 771 500 l 769 444 l 914 444 z "},"作":{"ha":1389,"x_min":32,"x_max":1336,"o":"m 1336 825 l 889 825 l 889 607 l 1272 607 l 1272 539 l 889 539 l 889 317 l 1288 317 l 1288 246 l 889 246 l 889 -75 l 779 -75 l 779 825 l 701 825 q 454 472 608 642 l 404 515 q 583 805 507 649 q 699 1129 658 961 l 817 1115 q 736 896 789 1018 l 1336 896 l 1336 825 m 468 1108 q 315 739 421 936 l 340 739 l 340 -92 l 235 -92 l 235 601 q 82 392 156 476 l 32 436 q 227 770 139 581 q 353 1126 315 960 l 468 1108 z "},"你":{"ha":1389,"x_min":18,"x_max":1340,"o":"m 457 1114 q 296 733 401 925 l 321 733 l 321 -79 l 213 -79 l 213 594 q 69 399 151 501 l 18 446 q 203 754 114 568 q 340 1132 292 940 l 457 1114 m 404 658 q 543 879 482 754 q 635 1128 604 1004 l 756 1113 q 688 935 733 1025 l 1290 935 l 1315 910 q 1251 773 1293 843 q 1158 644 1210 703 l 1099 676 q 1179 861 1147 764 l 649 861 q 458 613 563 714 l 404 658 m 826 775 l 936 775 l 936 46 q 906 -38 936 -6 q 819 -71 876 -71 l 669 -71 l 647 24 l 776 24 q 814 40 801 24 q 826 82 826 57 l 826 775 m 703 572 q 601 316 668 440 q 447 104 535 192 l 392 149 q 514 356 463 240 q 590 592 565 471 l 703 572 m 1121 575 q 1250 365 1193 475 q 1340 147 1307 254 l 1222 110 q 1054 549 1157 354 l 1121 575 z "},"佣":{"ha":1389,"x_min":26,"x_max":1278,"o":"m 421 1117 q 282 736 376 932 l 311 736 l 311 -90 l 206 -90 l 206 589 q 78 397 149 489 l 26 440 q 193 762 113 568 q 308 1135 274 956 l 421 1117 m 508 1067 l 1278 1067 l 1278 56 q 1244 -27 1278 3 q 1154 -57 1211 -57 l 1050 -57 l 1028 40 l 1111 40 q 1169 96 1169 40 l 1169 369 l 935 369 l 935 -65 l 831 -65 l 831 369 l 607 369 q 550 121 593 231 q 424 -85 507 11 l 368 -40 q 481 219 453 81 q 508 565 508 358 l 508 1067 m 615 756 l 831 756 l 831 993 l 615 993 l 615 756 m 1169 993 l 935 993 l 935 756 l 1169 756 l 1169 993 m 831 439 l 831 685 l 615 685 l 615 578 q 611 439 615 506 l 831 439 m 935 685 l 935 439 l 1169 439 l 1169 685 l 935 685 z "},"佥":{"ha":1389,"x_min":19,"x_max":1371,"o":"m 706 1060 q 422 764 600 908 q 56 542 244 619 l 19 600 q 247 737 128 647 q 463 932 365 826 q 611 1131 561 1038 l 747 1131 q 905 949 797 1047 q 1140 771 1013 851 q 1371 657 1267 690 l 1286 560 q 974 769 1136 625 q 706 1060 811 913 m 335 686 l 1036 686 l 1036 614 l 335 614 l 335 686 m 678 161 q 618 325 658 232 q 528 506 578 418 l 594 535 q 706 380 647 478 q 796 201 765 282 l 678 161 m 1250 490 q 1127 250 1201 379 q 979 22 1053 121 l 1306 22 l 1306 -53 l 92 -53 l 92 22 l 892 22 q 1021 271 958 136 q 1126 528 1083 406 l 1250 490 m 235 471 q 354 325 289 419 q 461 144 419 231 l 344 100 q 169 439 283 269 l 235 471 z "},"佩":{"ha":1389,"x_min":22,"x_max":1376,"o":"m 408 1113 q 279 740 371 933 l 307 740 l 307 -86 l 207 -86 l 207 600 q 71 390 138 476 l 22 428 q 188 760 107 560 q 300 1126 269 961 l 408 1113 m 1376 242 q 1360 15 1372 115 q 1285 -72 1347 -64 q 1234 -55 1264 -74 q 1194 -17 1204 -36 q 1142 164 1154 71 q 1125 433 1131 257 q 1124 464 1124 443 q 1119 763 1119 601 l 1119 1014 l 544 1014 l 544 621 q 510 241 544 426 q 406 -67 476 56 l 353 -25 q 429 258 407 106 q 451 596 451 411 l 451 1082 l 1215 1082 l 1215 771 l 1215 401 q 1253 68 1215 182 q 1275 42 1261 42 q 1303 78 1296 42 q 1319 258 1314 149 l 1376 242 m 607 838 l 607 903 l 1054 903 l 1054 838 l 871 838 l 871 693 l 1049 693 l 1049 206 q 1024 151 1049 172 q 963 129 1000 129 l 907 129 l 896 193 l 928 193 q 967 229 967 193 l 967 632 l 871 632 l 871 -62 l 789 -62 l 789 632 l 696 632 l 696 113 l 618 113 l 618 693 l 789 693 l 789 838 l 607 838 z "},"佯":{"ha":1389,"x_min":19,"x_max":1321,"o":"m 454 1111 q 297 739 401 932 l 332 739 l 332 -90 l 226 -90 l 226 618 q 69 399 154 501 l 19 444 q 207 760 122 576 q 339 1131 292 944 l 454 1111 m 919 288 l 1321 288 l 1321 215 l 919 215 l 919 -75 l 808 -75 l 808 215 l 415 215 l 415 288 l 808 288 l 808 515 l 475 515 l 475 588 l 808 588 l 808 800 l 446 800 l 446 874 l 675 874 q 561 1094 628 1000 l 619 1122 q 715 1012 665 1085 q 794 874 765 939 l 951 874 q 1071 1126 1013 979 l 1186 1094 q 1031 874 1122 983 l 1300 874 l 1300 800 l 919 800 l 919 588 l 1263 588 l 1263 515 l 919 515 l 919 288 z "},"佰":{"ha":1389,"x_min":15,"x_max":1331,"o":"m 449 1113 q 292 739 394 926 l 332 739 l 332 -89 l 226 -89 l 226 626 q 65 400 150 506 l 15 446 q 209 774 118 581 q 335 1132 300 968 l 449 1113 m 1331 1071 l 1331 999 l 974 999 l 883 797 l 1253 797 l 1253 -65 l 1146 -67 l 1146 -11 l 640 -11 l 640 -68 l 533 -68 l 533 797 l 806 797 l 857 999 l 483 999 l 483 1071 l 1331 1071 m 1146 446 l 1146 726 l 640 726 l 640 446 l 1146 446 m 640 60 l 1146 60 l 1146 376 l 640 376 l 640 60 z "},"佳":{"ha":1389,"x_min":38,"x_max":1328,"o":"m 449 1115 q 300 733 396 922 l 333 733 l 333 -87 l 225 -87 l 225 596 q 86 396 164 494 l 38 440 q 217 772 138 586 q 335 1135 297 958 l 449 1115 m 419 664 l 794 664 l 794 886 l 488 886 l 488 958 l 794 958 l 794 1128 l 904 1128 l 904 958 l 1249 958 l 1249 886 l 904 886 l 904 664 l 1306 664 l 1306 593 l 419 593 l 419 664 m 908 306 l 908 15 l 1328 15 l 1328 -58 l 403 -58 l 403 15 l 796 15 l 796 306 l 456 306 l 456 378 l 796 378 l 796 517 l 908 517 l 908 378 l 1271 378 l 1271 306 l 908 306 z "},"佼":{"ha":1389,"x_min":32,"x_max":1319,"o":"m 910 958 l 1310 958 l 1310 885 l 431 885 l 431 958 l 797 958 l 797 1129 l 910 1129 l 910 958 m 429 1111 q 293 733 392 936 l 325 733 l 325 -86 l 219 -86 l 219 594 q 82 383 160 489 l 32 429 q 208 767 129 576 q 318 1128 286 957 l 429 1111 m 393 572 q 551 701 475 625 q 664 847 626 776 l 767 804 q 429 524 653 640 l 393 572 m 1226 546 q 942 803 1140 651 l 988 847 q 1156 744 1060 814 q 1310 617 1251 675 l 1226 546 m 931 196 q 1319 25 1079 92 l 1246 -71 q 867 132 1026 6 q 664 4 783 60 q 413 -81 544 -51 l 386 -21 q 800 192 625 47 q 672 353 736 247 q 581 549 608 460 l 649 574 q 726 408 681 474 q 861 253 771 343 q 1029 564 979 386 l 1140 532 q 931 196 1071 333 z "},"使":{"ha":1389,"x_min":28,"x_max":1356,"o":"m 404 1118 q 276 738 371 953 l 303 738 l 303 -93 l 200 -93 l 200 582 q 79 393 140 471 l 28 432 q 188 762 115 571 q 289 1133 261 953 l 404 1118 m 828 146 q 1071 65 958 92 q 1356 18 1183 39 l 1299 -82 q 769 76 1025 -42 q 414 -89 644 -44 l 389 -28 q 686 121 586 21 q 468 294 564 197 l 521 344 q 739 190 606 264 q 806 382 796 278 l 458 382 l 458 789 l 813 789 l 813 928 l 418 928 l 418 1001 l 813 1001 l 813 1133 l 922 1133 l 922 1001 l 1335 1001 l 1335 928 l 922 928 l 922 789 l 1282 789 l 1282 382 l 914 382 q 828 146 896 249 m 813 718 l 567 718 l 567 454 l 811 454 q 813 532 813 482 l 813 718 m 922 522 q 919 454 922 504 l 1176 454 l 1176 718 l 922 718 l 922 522 z "},"侄":{"ha":1389,"x_min":33,"x_max":1324,"o":"m 439 1117 q 296 733 388 919 l 324 733 l 324 -86 l 214 -86 l 214 583 q 83 393 156 486 l 33 439 q 206 759 126 572 q 325 1135 286 946 l 439 1117 m 474 672 q 583 675 494 672 q 711 996 664 836 l 489 996 l 489 1068 l 1311 1068 l 1311 996 l 840 996 q 667 678 758 819 q 913 692 781 683 q 1119 708 1044 701 q 990 871 1057 801 l 1047 907 q 1192 778 1121 854 q 1304 629 1264 703 l 1204 576 l 1158 649 q 492 582 875 607 l 474 672 m 932 311 l 932 21 l 1324 21 l 1324 -54 l 413 -54 l 413 21 l 822 21 l 822 311 l 489 311 l 489 382 l 822 382 l 822 533 l 932 533 l 932 382 l 1256 382 l 1256 311 l 932 311 z "},"來":{"ha":1389,"x_min":51,"x_max":1347,"o":"m 633 371 q 85 -6 403 128 l 51 53 q 267 178 146 93 q 490 360 388 263 q 633 533 592 457 l 633 914 l 83 914 l 83 988 l 633 988 l 633 1129 l 742 1129 l 742 988 l 1299 988 l 1299 914 l 742 914 l 742 519 q 1012 272 842 393 q 1347 86 1182 151 l 1271 -6 q 974 186 1121 67 q 742 428 828 306 l 742 -96 l 633 -96 l 633 371 m 65 415 q 166 513 119 451 q 235 636 213 574 q 267 842 265 710 l 369 842 q 347 667 367 733 q 540 474 469 567 l 456 421 q 322 599 417 486 q 231 469 293 532 q 100 368 169 407 l 65 415 m 1247 389 q 1090 594 1175 503 q 921 394 1039 482 l 881 439 q 1008 646 972 519 q 1032 842 1032 721 l 1138 842 q 1114 661 1136 739 q 1333 444 1265 536 l 1247 389 z "},"侈":{"ha":1389,"x_min":24,"x_max":1338,"o":"m 431 550 q 838 686 671 600 q 631 869 764 768 q 465 789 543 818 l 432 838 q 642 969 546 893 q 807 1138 738 1046 l 918 1113 q 851 1033 888 1067 l 1253 1033 l 1282 1007 q 977 669 1189 792 q 457 483 765 547 l 431 550 m 451 1115 q 299 739 396 921 l 336 739 l 336 -89 l 231 -89 l 231 618 q 74 397 161 504 l 24 442 q 208 762 125 575 q 335 1133 292 949 l 451 1115 m 689 907 q 925 739 826 826 q 1142 965 1069 838 l 772 965 q 689 907 733 935 m 1307 521 l 1338 488 q 1229 301 1306 396 q 1067 143 1153 207 q 789 0 946 58 q 472 -82 632 -58 l 446 -15 q 885 142 678 28 q 668 317 800 226 q 492 224 563 251 l 456 275 q 676 419 564 329 q 858 597 789 508 l 965 574 q 924 521 944 543 l 1307 521 m 971 196 q 1194 451 1122 306 l 854 451 q 726 354 794 400 q 971 196 865 282 z "},"例":{"ha":1389,"x_min":28,"x_max":1261,"o":"m 406 1122 q 278 735 361 921 l 300 735 l 300 -93 l 200 -93 l 200 579 q 81 390 144 479 l 28 432 q 188 759 117 567 q 289 1135 258 951 l 406 1122 m 1154 1115 l 1261 1115 l 1261 51 q 1226 -35 1261 -6 q 1124 -64 1190 -64 l 1007 -64 l 988 29 l 1088 29 q 1135 46 1117 29 q 1154 89 1154 63 l 1154 1115 m 428 990 l 428 1060 l 879 1060 l 879 990 l 643 990 q 613 811 631 878 l 861 811 q 789 381 861 558 q 636 126 735 247 q 421 -71 538 6 l 378 -21 q 660 335 553 115 q 490 508 606 413 q 399 376 446 438 l 351 413 q 489 718 435 540 q 536 990 528 851 l 428 990 m 942 1017 l 1043 1017 l 1043 264 l 942 264 l 942 1017 m 594 743 q 517 557 563 642 q 699 428 636 490 q 753 743 750 567 l 594 743 z "},"侍":{"ha":1389,"x_min":33,"x_max":1310,"o":"m 433 1117 q 292 733 383 924 l 324 733 l 324 -86 l 214 -86 l 214 588 q 83 393 157 490 l 33 439 q 203 761 125 575 q 319 1135 282 947 l 433 1117 m 904 910 l 904 724 l 1310 724 l 1310 649 l 403 649 l 403 724 l 792 724 l 792 910 l 464 910 l 464 982 l 792 982 l 792 1131 l 904 1131 l 904 982 l 1254 982 l 1254 910 l 904 910 m 1117 596 l 1117 476 l 1307 476 l 1307 404 l 1117 404 l 1117 33 q 1079 -44 1117 -14 q 989 -75 1042 -75 l 824 -75 l 806 21 l 946 21 q 989 35 972 21 q 1006 75 1006 50 l 1006 404 l 428 404 l 428 476 l 1006 476 l 1006 596 l 1117 596 m 556 346 q 782 131 697 250 l 675 71 q 500 304 619 183 l 556 346 z "},"侗":{"ha":1389,"x_min":29,"x_max":1268,"o":"m 415 1107 q 281 731 371 917 l 307 731 l 307 -86 l 206 -86 l 206 585 q 81 393 143 475 l 29 436 q 194 763 119 572 q 301 1122 269 953 l 415 1107 m 453 1088 l 1268 1088 l 1268 33 q 1234 -37 1268 -11 q 1156 -64 1200 -64 l 1007 -64 l 988 26 l 1107 26 q 1145 40 1129 26 q 1161 78 1161 54 l 1161 1018 l 556 1018 l 556 -75 l 453 -75 l 453 1088 m 619 860 l 1099 860 l 1099 789 l 619 789 l 619 860 m 671 644 l 1049 644 l 1049 233 l 764 233 l 764 164 l 671 164 l 671 644 m 764 300 l 954 300 l 954 578 l 764 578 l 764 300 z "},"供":{"ha":1389,"x_min":32,"x_max":1333,"o":"m 433 1113 q 290 732 390 932 l 321 732 l 321 -82 l 217 -82 l 217 597 q 79 392 146 479 l 32 435 q 202 765 121 568 q 318 1129 283 963 l 433 1113 m 1100 783 l 1100 453 l 1333 453 l 1333 378 l 386 378 l 386 453 l 597 453 l 597 783 l 401 783 l 401 857 l 597 857 l 597 1113 l 707 1113 l 707 857 l 990 857 l 990 1115 l 1100 1115 l 1100 857 l 1297 857 l 1297 783 l 1100 783 m 707 453 l 990 453 l 990 783 l 707 783 l 707 453 m 1006 303 q 1153 153 1050 243 q 1319 22 1243 72 l 1226 -58 q 1058 102 1133 18 q 936 267 983 186 l 1006 303 m 535 135 q 664 301 624 226 l 771 260 q 621 85 710 169 q 429 -58 517 -11 l 382 -1 q 535 135 442 40 z "},"依":{"ha":1389,"x_min":29,"x_max":1361,"o":"m 429 1117 q 289 733 383 928 l 319 733 l 319 -90 l 214 -90 l 214 593 q 79 393 157 494 l 29 439 q 206 770 128 583 q 319 1133 283 957 l 429 1117 m 1049 432 q 1182 211 1106 314 q 1361 11 1258 108 l 1269 -69 q 1072 178 1160 29 q 931 495 985 326 q 864 824 876 664 l 839 824 q 718 585 789 692 l 718 69 q 1021 138 940 111 l 1031 68 q 804 1 960 39 q 508 -65 649 -37 l 482 29 q 615 51 536 36 l 615 442 q 414 243 531 339 l 372 292 q 592 561 492 404 q 722 824 675 692 l 415 824 l 415 896 l 792 896 l 792 1132 l 903 1132 l 903 896 l 1311 896 l 1311 824 l 938 824 q 1019 496 964 636 q 1221 707 1151 615 l 1304 636 q 1049 432 1214 542 z "},"侠":{"ha":1389,"x_min":29,"x_max":1339,"o":"m 428 1119 q 288 732 382 926 l 318 732 l 318 -85 l 213 -85 l 213 593 q 78 393 142 476 l 29 439 q 198 761 118 569 q 315 1136 278 953 l 428 1119 m 915 407 q 1083 182 968 283 q 1339 24 1199 81 l 1260 -74 q 1014 115 1118 4 q 861 358 910 225 q 694 88 814 200 q 401 -82 575 -25 l 371 -25 q 619 145 513 28 q 758 407 726 263 l 388 407 l 388 481 l 781 481 l 781 886 l 425 886 l 425 960 l 781 960 l 781 1128 l 892 1128 l 892 960 l 1293 960 l 1293 886 l 892 886 l 892 481 l 1336 481 l 1336 407 l 915 407 m 1014 554 q 1125 824 1086 688 l 1239 793 q 1081 528 1146 614 l 1014 554 m 532 819 q 614 704 571 778 q 682 561 657 631 l 568 531 q 467 790 540 668 l 532 819 z "},"侣":{"ha":1389,"x_min":22,"x_max":1276,"o":"m 471 1114 q 304 733 411 922 l 332 733 l 332 -96 l 225 -96 l 225 604 q 74 399 147 486 l 22 446 q 217 764 128 578 q 353 1133 306 950 l 471 1114 m 522 1053 l 1213 1053 l 1213 628 l 522 628 l 522 1053 m 629 700 l 1103 700 l 1103 983 l 629 983 l 629 700 m 478 -67 l 478 465 l 1276 465 l 1276 -67 l 1167 -67 l 1167 -6 l 588 -6 l 588 -67 l 478 -67 m 588 67 l 1167 67 l 1167 397 l 588 397 l 588 67 z "},"侥":{"ha":1389,"x_min":29,"x_max":1326,"o":"m 428 1119 q 292 742 378 921 l 318 742 l 318 -85 l 213 -85 l 213 593 q 78 393 147 483 l 29 439 q 197 759 117 567 q 315 1136 276 951 l 428 1119 m 447 617 q 817 725 647 651 q 721 911 753 806 l 460 879 l 450 946 l 703 976 q 685 1115 689 1039 l 790 1119 q 807 990 793 1050 l 1242 1043 l 1250 975 l 826 924 q 911 772 854 842 q 1122 922 1033 840 l 1211 878 q 974 710 1126 785 q 1082 639 1022 668 q 1132 626 1106 626 q 1172 637 1156 626 q 1193 667 1189 647 l 1207 761 l 1283 743 q 1263 606 1282 671 q 1224 551 1254 569 q 1153 533 1194 533 q 1060 551 1104 533 q 872 665 949 596 q 481 554 692 592 l 447 617 m 1326 396 l 1010 396 l 1010 61 q 1058 17 1010 24 q 1108 14 1092 14 q 1165 18 1140 14 q 1217 64 1208 24 q 1222 171 1219 76 l 1310 157 l 1310 42 q 1193 -62 1310 -53 q 1101 -65 1132 -65 q 993 -61 1050 -65 q 904 35 904 -53 l 904 396 l 758 396 l 758 367 q 671 73 753 179 q 400 -83 589 -33 l 369 -29 q 529 56 471 4 q 614 181 588 107 q 643 363 640 256 l 643 396 l 408 396 l 408 465 l 1326 465 l 1326 396 z "},"侦":{"ha":1389,"x_min":29,"x_max":1307,"o":"m 1122 738 l 572 738 l 572 194 l 465 194 l 465 810 l 765 810 l 765 1131 l 875 1131 l 875 1022 l 1300 1022 l 1300 953 l 875 953 l 875 810 l 1231 810 l 1231 196 l 1122 196 l 1122 738 m 436 1104 q 292 728 390 925 l 315 728 l 315 -86 l 211 -86 l 211 582 q 81 390 146 474 l 29 433 q 206 763 125 571 q 318 1122 286 954 l 436 1104 m 933 275 q 1080 116 979 182 q 1307 8 1181 50 l 1243 -85 q 1080 4 1168 -57 q 943 128 992 65 q 858 278 879 211 q 803 166 840 222 q 719 69 765 110 q 567 -31 647 8 q 407 -86 486 -71 l 378 -28 q 570 57 483 1 q 711 196 657 113 q 789 490 789 315 l 789 628 l 896 628 l 896 425 q 933 275 896 343 z "},"侧":{"ha":1389,"x_min":24,"x_max":1275,"o":"m 396 1110 q 271 735 353 921 l 297 735 l 297 -86 l 200 -86 l 200 593 q 75 394 140 483 l 24 436 q 184 760 114 572 q 285 1124 254 949 l 396 1110 m 1171 1117 l 1275 1117 l 1275 42 q 1240 -40 1275 -12 q 1140 -68 1206 -68 l 1026 -68 l 1008 19 l 1104 19 q 1152 35 1133 19 q 1171 79 1171 51 l 1171 1117 m 774 994 l 519 994 l 519 250 l 424 250 l 424 1065 l 869 1065 l 869 250 l 774 250 l 774 994 m 965 1022 l 1067 1022 l 1067 243 l 965 243 l 965 1022 m 671 278 q 802 137 746 204 q 914 -10 858 69 l 829 -58 q 650 214 743 94 q 372 -79 574 40 l 336 -33 q 492 110 432 35 q 578 276 551 185 q 603 536 603 361 l 603 915 l 693 915 l 693 531 q 671 278 693 367 z "},"侨":{"ha":1389,"x_min":31,"x_max":1340,"o":"m 464 1110 q 310 738 419 938 l 336 738 l 336 -92 l 231 -92 l 231 601 q 81 393 153 478 l 31 436 q 225 771 138 582 q 349 1128 313 960 l 464 1110 m 1015 729 q 1164 585 1076 653 q 1340 475 1251 517 l 1256 396 q 1078 549 1161 461 q 940 729 994 636 l 810 729 q 433 393 683 524 l 396 447 q 568 571 490 499 q 700 729 646 643 l 440 729 l 440 804 l 743 804 q 803 965 783 886 q 506 951 622 951 l 488 1018 q 857 1049 647 1019 q 1174 1119 1067 1079 l 1225 1031 q 915 976 1126 997 q 851 804 890 883 l 1308 804 l 1308 729 l 1015 729 m 1118 -82 l 1010 -82 l 1010 463 l 1118 463 l 1118 -82 m 621 453 l 725 453 l 725 310 q 463 -85 725 26 l 425 -37 q 575 109 529 21 q 621 324 621 197 l 621 453 z "},"侮":{"ha":1389,"x_min":24,"x_max":1332,"o":"m 1332 414 l 1207 414 q 1199 175 1206 282 l 1304 175 l 1304 101 l 1193 101 q 1143 -32 1186 14 q 1028 -78 1100 -78 l 890 -78 l 871 14 l 981 14 q 1078 101 1064 14 l 442 101 l 468 414 l 363 414 l 363 488 l 476 488 l 500 763 q 404 661 458 711 l 357 708 q 498 911 433 792 q 592 1140 563 1031 l 707 1122 q 654 993 694 1075 l 1306 993 l 1306 918 l 613 918 q 521 786 574 854 l 1211 786 l 1210 488 l 1332 488 l 1332 414 m 400 1125 q 271 735 363 939 l 304 735 l 304 -82 l 196 -82 l 196 582 q 75 392 143 483 l 24 433 q 186 774 113 576 q 288 1139 260 972 l 400 1125 m 582 488 l 1101 488 l 1101 714 l 603 714 l 582 488 m 878 494 q 714 667 818 586 l 758 703 q 869 633 817 672 q 958 549 922 593 l 878 494 m 1088 175 q 1094 319 1089 192 q 1097 414 1094 344 l 576 414 l 554 175 l 1088 175 m 876 188 q 711 363 819 275 l 756 399 q 868 327 814 368 q 957 242 922 286 l 876 188 z "},"侯":{"ha":1389,"x_min":32,"x_max":1321,"o":"m 424 1121 q 285 732 386 940 l 321 732 l 321 -90 l 215 -90 l 215 599 q 79 392 151 485 l 32 436 q 203 767 121 571 q 314 1136 285 964 l 424 1121 m 1118 864 l 1311 864 l 1311 793 l 396 793 l 396 864 l 1014 864 l 1014 1017 l 515 1017 l 515 1088 l 1118 1088 l 1118 864 m 1321 372 l 1321 300 l 921 300 q 1078 137 979 203 q 1313 21 1178 71 l 1235 -71 q 1019 61 1114 -21 q 869 247 924 143 q 707 35 822 118 q 439 -82 592 -49 l 413 -24 q 778 300 711 72 l 414 300 l 414 372 l 797 372 l 797 567 l 607 567 q 472 426 539 483 l 425 468 q 531 609 476 519 q 606 767 585 699 l 714 746 q 656 638 693 696 l 1233 638 l 1233 567 l 907 567 l 907 372 l 1321 372 z "},"侵":{"ha":1389,"x_min":24,"x_max":1317,"o":"m 421 1114 q 281 733 371 918 l 314 733 l 314 -86 l 207 -86 l 207 593 q 72 393 142 483 l 24 439 q 195 769 115 574 q 310 1132 275 964 l 421 1114 m 479 1082 l 1228 1082 l 1228 676 l 475 676 l 475 743 l 1122 743 l 1122 850 l 496 850 l 496 914 l 1122 914 l 1122 1017 l 479 1017 l 479 1082 m 950 90 q 1317 10 1079 39 l 1265 -83 q 860 36 1053 -54 q 422 -81 693 -54 l 399 -19 q 774 83 614 7 q 637 198 704 126 q 539 335 569 269 l 475 335 l 475 381 l 388 381 l 388 581 l 1307 581 l 1307 383 l 1214 383 l 1214 514 l 478 514 l 478 400 l 1165 400 l 1203 371 q 1097 217 1172 299 q 950 90 1022 136 m 854 129 q 1060 335 992 219 l 624 335 q 854 129 694 217 z "},"便":{"ha":1389,"x_min":19,"x_max":1342,"o":"m 415 1118 q 283 738 378 932 l 317 738 l 317 -92 l 210 -92 l 210 597 q 68 386 144 485 l 19 429 q 193 766 117 576 q 301 1131 269 956 l 415 1118 m 833 154 q 1342 28 1047 54 l 1286 -74 q 778 85 1004 -40 q 432 -85 661 -35 l 404 -22 q 696 136 603 35 q 503 293 561 226 l 558 333 q 746 201 622 275 q 799 371 783 265 l 464 371 l 464 882 l 808 882 l 808 1013 l 444 1013 l 444 1086 l 1315 1086 l 1315 1013 l 915 1013 l 915 882 l 1269 882 l 1269 371 l 906 371 q 833 154 889 240 m 572 668 l 808 668 l 808 810 l 572 810 l 572 668 m 1157 810 l 915 810 l 915 668 l 1157 668 l 1157 810 m 808 597 l 572 597 l 572 442 l 806 442 q 808 526 808 506 l 808 597 m 915 514 q 913 442 915 469 l 1157 442 l 1157 597 l 915 597 l 915 514 z "},"促":{"ha":1389,"x_min":38,"x_max":1344,"o":"m 436 1117 q 296 733 392 935 l 326 733 l 326 -90 l 219 -90 l 219 589 q 86 393 153 475 l 38 436 q 206 760 125 567 q 324 1135 288 954 l 436 1117 m 936 54 q 1206 33 1038 33 q 1344 35 1294 33 l 1318 -58 q 1042 -50 1129 -58 q 793 15 874 -33 q 611 197 681 78 q 428 -71 563 51 l 381 -25 q 518 242 485 81 q 544 539 547 354 l 653 539 q 646 367 650 419 q 633 279 642 321 q 825 94 697 158 l 825 646 l 508 646 l 508 1078 l 1254 1078 l 1254 646 l 936 646 l 936 436 l 1306 436 l 1306 364 l 936 364 l 936 54 m 614 1008 l 614 718 l 1144 718 l 1144 1008 l 614 1008 z "},"俄":{"ha":1389,"x_min":31,"x_max":1326,"o":"m 396 1107 q 271 733 351 919 l 300 733 l 300 -86 l 197 -86 l 197 581 q 81 390 147 485 l 31 433 q 185 765 111 563 q 285 1124 260 968 l 396 1107 m 1326 226 q 1299 -8 1325 121 q 1271 -60 1294 -40 q 1213 -79 1247 -79 q 1138 -49 1172 -79 q 1017 139 1067 19 q 771 -54 901 24 l 733 -3 q 985 229 864 88 q 921 656 935 404 l 685 656 l 685 446 q 849 485 806 472 l 853 422 q 685 372 808 404 l 685 21 q 651 -48 685 -21 q 578 -75 618 -75 l 442 -75 l 424 15 l 525 15 q 579 60 579 15 l 579 344 q 382 301 467 317 l 358 392 q 579 426 446 401 l 579 656 l 371 656 l 371 728 l 579 728 l 579 949 q 419 928 486 933 l 403 990 q 608 1031 490 1001 q 796 1089 726 1060 l 846 1008 q 685 968 783 988 l 685 728 l 918 728 q 915 1117 915 875 l 1022 1117 l 1021 986 q 1025 728 1021 868 l 1325 728 l 1325 656 l 1026 656 l 1029 621 q 1041 452 1036 496 q 1063 326 1046 408 q 1188 554 1147 449 l 1282 517 q 1090 219 1219 375 q 1161 72 1121 125 q 1197 51 1181 51 q 1231 97 1225 51 q 1250 250 1239 144 l 1326 226 m 1204 799 q 1088 1015 1172 886 l 1146 1042 q 1296 836 1238 950 l 1204 799 z "},"俊":{"ha":1389,"x_min":21,"x_max":1339,"o":"m 454 886 q 576 888 529 886 q 711 1136 653 1007 l 825 1111 q 665 890 735 976 q 1122 908 963 899 q 999 1040 1058 986 l 999 1047 l 1050 1078 q 1182 974 1104 1044 q 1301 847 1260 903 l 1207 801 q 1168 854 1196 818 q 467 803 917 825 l 454 886 m 440 1107 q 292 743 392 933 l 326 743 l 326 -85 l 222 -85 l 222 622 q 67 408 150 504 l 21 453 q 194 763 103 567 q 329 1129 285 949 l 440 1107 m 990 783 q 1158 703 1067 756 q 1310 601 1250 651 l 1233 524 q 951 738 1114 639 l 990 783 m 422 529 q 565 645 497 576 q 672 778 633 714 l 765 735 q 457 478 653 581 l 422 529 m 1274 -74 q 903 69 1068 -31 q 414 -86 696 -51 l 392 -25 q 615 28 503 -10 q 825 124 728 67 q 635 332 707 214 q 449 204 543 254 l 411 251 q 593 404 510 314 q 713 571 676 494 l 815 550 q 760 463 796 514 l 1200 463 l 1228 436 q 986 125 1156 250 q 1339 22 1139 54 l 1274 -74 m 688 382 q 899 174 763 256 q 1085 390 1029 271 l 696 390 l 688 382 z "},"俏":{"ha":1389,"x_min":36,"x_max":1283,"o":"m 918 1136 l 918 763 l 1238 763 l 1238 29 q 1205 -44 1238 -18 q 1124 -69 1172 -69 l 976 -69 l 958 22 l 1078 22 q 1131 74 1131 22 l 1131 235 l 608 235 l 608 -82 l 499 -82 l 499 763 l 810 763 l 810 1136 l 918 1136 m 444 1104 q 299 728 393 914 l 322 728 l 322 -86 l 218 -86 l 218 582 q 88 390 163 488 l 36 433 q 213 763 132 571 q 326 1122 293 954 l 444 1104 m 1283 1056 q 1107 792 1190 886 l 1044 819 q 1171 1089 1119 944 l 1283 1056 m 586 797 q 463 1057 535 946 l 524 1088 q 693 833 619 996 l 586 797 m 1131 535 l 1131 692 l 608 692 l 608 535 l 1131 535 m 608 301 l 1131 301 l 1131 468 l 608 468 l 608 301 z "},"俐":{"ha":1389,"x_min":24,"x_max":1272,"o":"m 392 1111 q 268 735 351 936 l 296 735 l 296 -87 l 193 -87 l 193 579 q 72 392 138 475 l 24 433 q 183 761 114 571 q 282 1129 251 951 l 392 1111 m 699 615 q 883 422 769 521 l 829 351 q 700 517 749 440 l 700 -79 l 599 -79 l 599 467 q 400 158 518 304 l 353 206 q 493 441 433 317 q 588 693 553 565 l 413 693 l 413 761 l 599 761 l 599 989 q 428 964 515 974 l 410 1024 q 619 1066 494 1035 q 811 1126 743 1097 l 853 1049 q 700 1008 783 1025 l 700 761 l 868 761 l 868 693 l 700 693 l 699 615 m 1165 1114 l 1272 1114 l 1272 43 q 1238 -40 1272 -11 q 1136 -68 1203 -68 l 1010 -68 l 990 24 l 1100 24 q 1147 40 1128 24 q 1165 81 1165 56 l 1165 1114 m 940 1017 l 1043 1017 l 1043 226 l 940 226 l 940 1017 z "},"俑":{"ha":1389,"x_min":18,"x_max":1274,"o":"m 442 1114 q 290 739 389 928 l 325 739 l 325 -86 l 218 -86 l 218 611 q 69 394 153 503 l 18 440 q 201 763 121 581 q 325 1133 282 946 l 442 1114 m 979 756 l 1274 756 l 1274 40 q 1244 -32 1274 -4 q 1167 -60 1214 -60 l 1043 -60 l 1022 28 l 1121 28 q 1154 40 1140 28 q 1168 69 1168 53 l 1168 236 l 924 236 l 924 -65 l 821 -65 l 821 236 l 585 236 l 585 -72 l 479 -72 l 479 756 l 910 756 q 643 922 801 842 l 674 968 q 921 857 794 929 q 1106 1013 1032 939 l 492 1013 l 492 1079 l 1215 1079 l 1269 1031 q 982 822 1206 956 l 1021 793 l 979 756 m 585 531 l 821 531 l 821 689 l 585 689 l 585 531 m 924 531 l 1168 531 l 1168 689 l 924 689 l 924 531 m 585 301 l 821 301 l 821 464 l 585 464 l 585 301 m 924 301 l 1168 301 l 1168 464 l 924 464 l 924 301 z "},"俗":{"ha":1389,"x_min":21,"x_max":1367,"o":"m 418 1113 q 279 733 372 925 l 306 733 l 306 -86 l 199 -86 l 199 581 q 74 393 133 469 l 21 438 q 188 760 108 569 q 304 1129 268 950 l 418 1113 m 1244 796 q 931 1065 1050 990 l 978 1113 q 1174 1001 1086 1060 q 1338 868 1261 942 l 1244 796 m 374 811 q 534 952 457 868 q 646 1107 611 1036 l 751 1068 q 603 900 690 979 q 415 764 515 821 l 374 811 m 896 833 q 1367 501 1019 650 l 1292 410 q 1041 569 1157 476 q 857 764 925 663 q 667 563 801 665 q 389 396 533 461 l 356 451 q 605 622 483 514 q 774 833 726 731 l 896 833 m 614 -71 l 506 -71 l 506 438 l 1204 438 l 1204 -71 l 1093 -71 l 1093 -19 l 614 -19 l 614 -71 m 1093 364 l 614 364 l 614 53 l 1093 53 l 1093 364 z "},"俘":{"ha":1389,"x_min":24,"x_max":1342,"o":"m 446 1117 q 294 739 392 926 l 326 739 l 326 -86 l 221 -86 l 221 608 q 75 396 156 501 l 24 440 q 209 768 126 579 q 329 1135 292 957 l 446 1117 m 442 1031 q 873 1063 621 1035 q 1204 1121 1125 1090 l 1258 1035 q 881 984 1131 1006 q 457 960 631 963 l 442 1031 m 1031 697 q 1158 964 1117 840 l 1272 926 q 1090 665 1194 779 l 1031 697 m 833 693 q 746 919 804 815 l 813 943 q 936 725 896 844 l 833 693 m 533 913 q 614 817 568 885 q 681 699 660 750 l 579 663 q 469 883 539 778 l 533 913 m 926 349 l 1342 349 l 1342 274 l 926 274 l 926 31 q 891 -44 926 -14 q 803 -75 856 -75 l 633 -75 l 611 22 l 757 22 q 796 36 779 22 q 813 69 813 50 l 813 274 l 407 274 l 407 349 l 813 349 l 813 449 l 889 449 q 1079 569 978 488 l 478 569 l 476 640 l 1194 640 l 1246 576 q 926 397 1096 456 l 926 349 z "},"保":{"ha":1389,"x_min":18,"x_max":1357,"o":"m 421 1113 q 281 735 369 915 l 314 735 l 314 -92 l 206 -92 l 206 594 q 69 393 142 485 l 18 439 q 191 770 110 575 q 306 1131 272 965 l 421 1113 m 485 1072 l 1232 1072 l 1232 661 l 485 661 l 485 1072 m 593 735 l 1124 735 l 1124 1000 l 593 1000 l 593 735 m 1078 246 q 1357 60 1203 132 l 1272 -36 q 1064 124 1153 40 q 911 311 975 208 l 911 -81 l 799 -81 l 799 278 q 678 156 751 219 q 394 -29 554 51 l 357 32 q 626 235 471 86 q 764 408 715 319 l 399 408 l 399 485 l 799 485 l 799 614 l 911 614 l 911 485 l 1315 485 l 1315 408 l 929 408 q 1078 246 968 346 z "},"俞":{"ha":1389,"x_min":22,"x_max":1368,"o":"m 22 736 q 368 910 201 800 q 610 1136 535 1019 l 747 1136 q 1008 929 840 1018 q 1368 788 1176 840 l 1283 693 q 958 852 1125 747 q 703 1071 790 957 q 426 847 599 946 q 54 678 254 747 l 22 736 m 1000 743 l 394 743 l 394 815 l 1000 815 l 1000 743 m 949 -69 l 931 21 l 1053 21 q 1090 36 1074 21 q 1107 72 1107 51 l 1107 654 l 1213 654 l 1213 21 q 1179 -45 1213 -21 q 1096 -69 1146 -69 l 949 -69 m 161 -79 l 161 631 l 690 631 l 690 17 q 662 -47 690 -22 q 593 -71 633 -71 l 461 -71 l 442 14 l 533 14 q 586 53 586 14 l 586 183 l 265 183 l 265 -79 l 161 -79 m 935 153 l 831 153 l 831 600 l 935 600 l 935 153 m 265 564 l 265 438 l 586 438 l 586 564 l 265 564 m 265 372 l 265 249 l 586 249 l 586 372 l 265 372 z "},"信":{"ha":1389,"x_min":36,"x_max":1329,"o":"m 436 1110 q 299 735 392 926 l 326 735 l 326 -87 l 221 -87 l 221 589 q 85 388 156 476 l 36 431 q 210 759 133 572 q 324 1128 286 946 l 436 1110 m 911 1122 l 911 971 l 1329 971 l 1329 901 l 436 901 l 436 971 l 804 971 l 804 1122 l 911 1122 m 503 753 l 1239 753 l 1239 682 l 503 682 l 503 753 m 1239 475 l 503 475 l 503 544 l 1239 544 l 1239 475 m 578 -78 l 468 -78 l 468 338 l 1274 338 l 1274 -74 l 1163 -74 l 1163 -21 l 578 -21 l 578 -78 m 1163 269 l 578 269 l 578 47 l 1163 47 l 1163 269 z "},"俩":{"ha":1389,"x_min":26,"x_max":1319,"o":"m 417 1117 q 282 736 372 929 l 311 736 l 311 -90 l 206 -90 l 206 590 q 76 397 147 489 l 26 440 q 192 763 111 568 q 307 1135 272 957 l 417 1117 m 1319 1001 l 1035 1001 l 1035 828 l 1271 828 l 1271 26 q 1240 -42 1271 -17 q 1163 -68 1210 -68 l 1046 -68 l 1026 18 l 1118 18 q 1152 32 1136 18 q 1168 65 1168 46 l 1168 233 l 1104 213 q 1061 359 1089 276 q 1006 508 1033 442 q 849 164 963 303 l 804 194 q 869 317 846 256 l 826 296 q 750 507 800 396 q 588 188 703 333 l 554 211 l 554 -89 l 454 -89 l 454 828 l 689 828 l 689 1001 l 451 1001 l 451 1071 l 1319 1071 l 1319 1001 m 788 828 l 936 828 l 936 1001 l 788 1001 l 788 828 m 554 242 q 690 758 681 447 l 554 758 l 554 242 m 767 578 q 886 365 835 475 q 924 551 914 454 q 936 758 935 647 l 786 758 q 767 578 782 654 m 1168 758 l 1033 758 q 1021 593 1031 674 q 1103 435 1061 519 q 1168 283 1144 350 l 1168 758 z "},"俭":{"ha":1389,"x_min":32,"x_max":1360,"o":"m 463 1110 q 311 742 419 946 l 336 742 l 336 -92 l 232 -92 l 232 603 q 83 396 160 486 l 32 439 q 222 770 133 578 q 347 1126 311 963 l 463 1110 m 889 1036 q 706 789 825 908 q 450 593 586 669 l 410 640 q 642 856 531 717 q 796 1124 753 994 l 926 1124 q 1097 886 974 1006 q 1360 689 1221 767 l 1272 607 q 1052 805 1153 690 q 889 1036 951 919 m 624 685 l 1126 685 l 1126 614 l 624 614 l 624 685 m 853 183 q 815 357 842 260 q 757 522 788 454 l 821 544 q 904 389 860 493 q 965 213 949 285 l 853 183 m 1296 497 q 1194 262 1256 386 q 1079 58 1133 138 l 1011 86 q 1104 295 1057 171 q 1181 532 1151 419 l 1296 497 m 549 467 q 642 315 593 415 q 710 142 690 215 l 600 107 q 553 283 582 194 q 490 438 525 371 l 549 467 m 1300 -56 l 449 -56 l 449 19 l 1300 19 l 1300 -56 z "},"修":{"ha":1389,"x_min":22,"x_max":1350,"o":"m 736 879 q 601 746 669 799 l 556 790 q 684 949 626 858 q 774 1136 742 1040 l 885 1119 q 826 1004 861 1061 l 1232 1004 l 1264 968 q 1049 699 1206 808 q 1350 621 1167 647 l 1283 525 q 968 647 1108 561 q 585 521 810 560 l 560 585 q 896 696 751 617 q 736 879 792 778 m 397 1118 q 347 939 382 1042 q 264 729 311 836 l 310 729 l 310 -82 l 207 -82 l 207 610 q 74 393 132 465 l 22 432 q 182 763 108 571 q 283 1133 256 954 l 397 1118 m 967 742 q 1133 933 1081 824 l 792 933 q 967 742 858 813 m 411 892 l 513 892 l 513 114 l 411 114 l 411 892 m 1035 496 q 824 392 947 439 q 601 321 722 351 l 574 381 q 789 461 657 401 q 961 556 913 515 l 1035 496 m 921 225 q 601 128 761 163 l 575 189 q 900 304 726 224 q 1122 428 1046 371 l 1201 364 q 921 225 1092 289 m 986 113 q 1257 260 1157 182 l 1336 188 q 1007 24 1244 114 q 524 -85 789 -57 l 503 -21 q 986 113 749 13 z "},"俯":{"ha":1389,"x_min":17,"x_max":1335,"o":"m 385 1103 q 264 732 344 908 l 289 732 l 289 -83 l 185 -83 l 185 576 q 69 390 140 497 l 17 432 q 178 766 111 585 q 276 1124 246 947 l 385 1103 m 1329 989 l 1329 919 l 544 919 l 544 674 q 513 272 544 456 q 406 -57 481 89 l 344 -24 q 420 276 397 96 q 443 653 443 457 l 443 989 l 821 989 l 821 1121 l 932 1121 l 932 989 l 1329 989 m 850 844 q 758 579 819 706 l 792 579 l 792 -79 l 692 -79 l 692 457 q 618 343 656 389 l 572 379 q 678 600 631 465 q 747 860 726 735 l 850 844 m 1221 654 l 1335 654 l 1335 586 l 1221 586 l 1221 26 q 1194 -40 1221 -14 q 1132 -67 1168 -67 l 983 -67 l 965 24 l 1067 24 q 1102 36 1088 24 q 1117 67 1117 49 l 1117 586 l 856 586 l 856 654 l 1117 654 l 1117 849 l 1221 849 l 1221 654 m 918 493 q 1051 233 1013 368 l 958 204 q 864 467 919 365 l 918 493 z "},"俱":{"ha":1389,"x_min":19,"x_max":1335,"o":"m 418 1119 q 278 733 369 921 l 308 733 l 308 -90 l 201 -90 l 201 590 q 69 393 140 485 l 19 439 q 191 762 114 579 q 306 1136 268 944 l 418 1119 m 1196 1090 l 1196 258 l 1335 258 l 1335 190 l 383 190 l 383 258 l 503 258 l 503 1090 l 1196 1090 m 608 882 l 1090 882 l 1090 1022 l 608 1022 l 608 882 m 608 679 l 1090 679 l 1090 821 l 608 821 l 608 679 m 608 475 l 1090 475 l 1090 618 l 608 618 l 608 475 m 608 258 l 1090 258 l 1090 413 l 608 413 l 608 258 m 992 175 q 1142 86 1043 135 q 1329 6 1242 38 l 1254 -81 q 929 126 1061 8 l 992 175 m 374 -26 q 544 62 453 6 q 686 171 635 118 l 771 107 q 605 -1 700 49 q 410 -85 510 -50 l 374 -26 z "},"俺":{"ha":1389,"x_min":26,"x_max":1351,"o":"m 1211 75 q 1217 186 1214 93 l 1303 172 l 1303 40 q 1269 -33 1303 -3 q 1182 -67 1235 -62 q 1038 -72 1121 -72 q 853 -64 943 -72 q 764 44 764 -54 l 764 183 l 574 183 l 574 114 l 472 114 l 472 614 q 374 550 447 596 l 338 599 q 519 747 431 658 q 660 924 608 835 l 410 924 l 410 994 l 696 994 q 750 1142 732 1079 l 864 1129 q 811 994 844 1061 l 1282 994 l 1282 924 l 981 924 q 1135 754 1046 828 q 1351 604 1225 681 l 1271 525 q 1163 610 1215 563 l 1163 183 l 868 183 l 868 69 q 919 15 868 24 q 1018 10 960 10 q 1157 17 1071 10 q 1211 75 1203 24 m 401 1114 q 269 732 367 947 l 303 732 l 303 -90 l 197 -90 l 197 585 q 76 390 138 474 l 26 433 q 190 774 114 575 q 290 1129 265 974 l 401 1114 m 765 807 l 868 807 l 868 672 l 1094 672 q 973 813 1014 760 q 901 924 932 867 l 772 924 q 551 672 683 776 l 765 672 l 765 807 m 576 467 l 764 467 l 764 604 l 576 604 l 576 467 m 868 467 l 1060 467 l 1060 604 l 868 604 l 868 467 m 576 251 l 764 251 l 764 404 l 576 404 l 576 251 m 868 251 l 1060 251 l 1060 404 l 868 404 l 868 251 z "},"個":{"ha":1389,"x_min":24,"x_max":1265,"o":"m 406 1115 q 272 736 374 954 l 311 736 l 311 -85 l 206 -85 l 206 603 q 74 396 144 489 l 24 440 q 188 772 104 563 q 297 1128 271 982 l 406 1115 m 440 -69 l 440 1075 l 1265 1075 l 1265 -69 l 1161 -69 l 1161 -10 l 543 -10 l 543 -69 l 440 -69 m 543 61 l 1161 61 l 1161 1007 l 543 1007 l 543 61 m 639 551 l 797 551 l 797 724 l 601 724 l 601 792 l 797 792 l 797 939 l 900 939 l 900 792 l 1103 792 l 1103 724 l 900 724 l 900 551 l 1061 551 l 1061 176 l 639 176 l 639 551 m 965 244 l 965 486 l 731 486 l 731 244 l 965 244 z "},"倍":{"ha":1389,"x_min":26,"x_max":1335,"o":"m 425 1117 q 285 732 379 925 l 315 732 l 315 -90 l 208 -90 l 208 588 q 76 393 142 475 l 26 439 q 196 761 115 569 q 313 1135 276 953 l 425 1117 m 907 982 l 1289 982 l 1289 911 l 439 911 l 439 982 l 800 982 l 800 1126 l 907 1126 l 907 982 m 1335 622 l 1333 549 l 393 549 l 393 622 l 632 622 q 535 863 592 765 l 599 889 q 683 771 639 847 q 753 622 728 694 l 957 622 q 1068 889 1026 763 l 1183 861 q 1042 622 1135 750 l 1335 622 m 600 -71 l 492 -71 l 492 424 l 1210 424 l 1210 -71 l 1100 -71 l 1100 -19 l 600 -19 l 600 -71 m 1100 351 l 600 351 l 600 51 l 1100 51 l 1100 351 z "},"們":{"ha":1389,"x_min":25,"x_max":1281,"o":"m 392 1108 q 269 733 354 921 l 296 733 l 296 -87 l 192 -87 l 192 578 q 78 394 144 492 l 25 435 q 183 765 114 575 q 278 1125 253 956 l 392 1108 m 549 -79 l 447 -79 l 447 1076 l 804 1076 l 804 604 l 549 604 l 549 -79 m 915 1076 l 1281 1076 l 1281 28 q 1249 -39 1281 -11 q 1181 -67 1218 -67 l 1019 -67 l 999 24 l 1131 24 q 1165 38 1150 24 q 1179 71 1179 51 l 1179 604 l 915 604 l 915 1076 m 708 1015 l 549 1015 l 549 876 l 708 876 l 708 1015 m 1011 876 l 1181 876 l 1181 1015 l 1011 1015 l 1011 876 m 708 815 l 549 815 l 549 668 l 708 668 l 708 815 m 1011 668 l 1181 668 l 1181 815 l 1011 815 l 1011 668 z "},"倒":{"ha":1389,"x_min":19,"x_max":1281,"o":"m 385 1117 q 263 735 354 939 l 293 735 l 293 -82 l 190 -82 l 190 589 q 67 392 126 472 l 19 433 q 179 769 103 564 q 279 1128 256 974 l 385 1117 m 1175 1117 l 1281 1117 l 1281 46 q 1246 -38 1281 -10 q 1143 -67 1211 -67 l 1018 -67 l 1000 22 l 1106 22 q 1175 76 1175 22 l 1175 1117 m 753 885 q 928 619 874 744 l 835 578 q 807 643 804 647 q 375 583 585 601 l 358 668 l 435 671 q 543 983 500 818 l 418 983 l 418 1053 l 906 1053 l 906 983 l 658 983 q 517 675 604 838 q 782 699 711 690 q 694 860 739 789 l 753 885 m 965 1007 l 1065 1007 l 1065 247 l 965 247 l 965 1007 m 690 97 q 908 132 826 114 l 910 61 q 378 -28 693 7 l 360 61 q 590 83 513 75 l 590 338 l 379 338 l 379 407 l 590 407 l 590 543 l 690 543 l 690 407 l 896 407 l 896 338 l 690 338 l 690 97 z "},"倔":{"ha":1389,"x_min":14,"x_max":1299,"o":"m 438 1108 q 285 732 386 925 l 324 732 l 324 -87 l 217 -87 l 215 608 q 65 390 143 489 l 14 435 q 192 746 107 560 q 322 1124 276 932 l 438 1108 m 1263 1076 l 1263 800 l 588 800 l 588 629 q 552 244 588 417 q 432 -58 517 72 l 372 -18 q 483 575 483 196 l 483 1076 l 1263 1076 m 588 865 l 1163 865 l 1163 1011 l 588 1011 l 588 865 m 1196 36 l 1196 326 l 1299 326 l 1299 -65 l 1196 -65 l 1196 -31 l 740 -31 l 740 -65 l 638 -65 l 638 322 l 740 322 l 740 36 l 915 36 l 915 401 l 676 401 l 676 693 l 771 693 l 771 469 l 915 469 l 915 760 l 1015 760 l 1015 469 l 1160 469 l 1160 697 l 1258 697 l 1258 401 l 1015 401 l 1015 36 l 1196 36 z "},"倘":{"ha":1389,"x_min":18,"x_max":1256,"o":"m 901 724 l 1256 724 l 1256 25 q 1223 -44 1256 -18 q 1147 -69 1190 -69 l 996 -69 l 976 22 l 1097 22 q 1138 35 1124 22 q 1153 72 1153 49 l 1153 654 l 542 654 l 542 -78 l 436 -78 l 436 724 l 792 724 l 792 1125 l 901 1125 l 901 724 m 404 1107 q 272 733 365 935 l 299 733 l 299 -86 l 196 -86 l 196 586 q 71 393 135 476 l 18 436 q 183 761 108 571 q 290 1122 258 951 l 404 1107 m 565 771 q 508 924 542 844 q 442 1058 474 1003 l 504 1090 q 597 960 551 1036 q 674 807 642 885 l 565 771 m 1253 1057 q 1083 769 1174 892 l 1019 799 q 1139 1090 1085 925 l 1253 1057 m 649 521 l 1043 521 l 1043 154 l 746 154 l 746 119 l 649 119 l 649 521 m 746 221 l 950 221 l 950 454 l 746 454 l 746 221 z "},"候":{"ha":1389,"x_min":22,"x_max":1325,"o":"m 393 1117 q 257 725 344 918 l 290 725 l 290 -82 l 189 -82 l 189 586 q 72 401 129 479 l 22 444 q 178 765 107 569 q 281 1135 250 961 l 393 1117 m 1169 854 l 1321 854 l 1321 785 l 560 785 l 560 854 l 1065 854 l 1065 1017 l 643 1017 l 643 1085 l 1169 1085 l 1169 854 m 500 86 l 403 86 l 403 922 l 500 922 l 500 86 m 992 292 q 1126 129 1036 203 q 1325 14 1215 56 l 1254 -71 q 944 238 1039 33 q 540 -83 853 -8 l 514 -29 q 735 94 638 7 q 856 292 832 182 l 578 292 l 578 364 l 875 364 l 875 560 l 743 560 q 619 415 686 476 l 569 453 q 664 594 622 515 q 728 753 706 674 l 828 731 q 783 628 813 682 l 1254 628 l 1254 560 l 979 560 l 979 364 l 1319 364 l 1319 292 l 992 292 z "},"倚":{"ha":1389,"x_min":14,"x_max":1332,"o":"m 436 1107 q 286 732 385 921 l 322 732 l 322 -87 l 215 -87 l 215 606 q 65 389 147 493 l 14 433 q 195 756 114 569 q 319 1128 276 943 l 436 1107 m 468 717 q 685 797 594 739 q 797 940 776 854 l 482 940 l 482 1007 l 806 1007 l 806 1119 l 913 1119 l 913 1007 l 1268 1007 l 1268 940 l 904 940 l 896 908 q 1271 733 1113 836 l 1204 660 q 999 787 1060 751 q 869 854 939 822 q 717 724 819 775 q 489 657 614 674 l 468 717 m 393 617 l 1332 617 l 1332 547 l 1204 547 l 1204 29 q 1169 -44 1204 -17 q 1083 -72 1135 -72 l 929 -72 l 910 19 l 1046 19 q 1082 33 1068 19 q 1096 64 1096 46 l 1096 547 l 393 547 l 393 617 m 503 439 l 964 439 l 964 115 l 600 115 l 600 76 l 503 76 l 503 439 m 601 179 l 864 179 l 864 375 l 601 375 l 601 179 z "},"借":{"ha":1389,"x_min":26,"x_max":1328,"o":"m 425 1111 q 290 739 382 929 l 315 739 l 315 -86 l 207 -86 l 207 582 q 76 388 140 471 l 26 432 q 197 754 118 568 q 314 1129 275 940 l 425 1111 m 1113 907 l 1113 717 l 1328 717 l 1328 643 l 399 643 l 399 717 l 614 717 l 614 907 l 446 907 l 446 981 l 614 981 l 614 1114 l 725 1114 l 725 981 l 1004 981 l 1004 1114 l 1113 1114 l 1113 981 l 1299 981 l 1299 907 l 1113 907 m 725 717 l 1004 717 l 1004 907 l 725 907 l 725 717 m 594 -75 l 485 -75 l 485 538 l 1238 538 l 1238 -75 l 1128 -75 l 1128 -21 l 594 -21 l 594 -75 m 1128 467 l 594 467 l 594 303 l 1128 303 l 1128 467 m 1128 235 l 594 235 l 594 50 l 1128 50 l 1128 235 z "},"倡":{"ha":1389,"x_min":14,"x_max":1281,"o":"m 442 1111 q 288 738 393 935 l 329 738 l 329 -86 l 221 -86 l 217 615 q 64 397 144 500 l 14 443 q 199 762 118 581 q 325 1131 281 943 l 442 1111 m 531 1082 l 1232 1082 l 1232 617 l 531 617 l 531 1082 m 636 886 l 1125 886 l 1125 1015 l 636 1015 l 636 886 m 636 685 l 1125 685 l 1125 824 l 636 824 l 636 685 m 478 -74 l 478 517 l 1281 517 l 1281 -74 l 1172 -74 l 1172 -15 l 586 -15 l 586 -74 l 478 -74 m 586 290 l 1172 290 l 1172 446 l 586 446 l 586 290 m 586 53 l 1172 53 l 1172 225 l 586 225 l 586 53 z "},"倦":{"ha":1389,"x_min":24,"x_max":1361,"o":"m 951 246 q 993 285 993 246 l 993 426 l 653 426 l 653 69 q 708 19 653 25 q 879 14 789 14 q 1086 25 1031 14 q 1144 83 1139 36 q 1149 185 1149 121 l 1233 171 l 1233 40 q 1121 -58 1233 -47 q 883 -67 1042 -67 q 636 -57 708 -67 q 547 38 547 -47 l 547 431 q 389 311 472 364 l 351 361 q 597 608 496 465 l 383 608 l 383 679 l 642 679 q 711 824 675 738 l 415 824 l 415 894 l 574 894 q 479 1085 546 986 l 528 1111 q 611 1023 568 1078 q 674 921 654 968 l 611 894 l 735 894 q 781 1135 771 1014 l 892 1128 q 840 894 876 1011 l 982 894 q 1083 1108 1044 1000 l 1189 1081 q 1058 894 1135 988 l 1288 894 l 1288 824 l 817 824 q 750 679 786 744 l 1314 679 l 1314 608 l 1086 608 q 1211 492 1144 543 q 1361 394 1278 440 l 1283 314 q 1093 486 1178 388 l 1093 257 q 1068 190 1093 215 q 1001 164 1043 164 l 851 164 l 835 246 l 951 246 m 419 1115 q 279 728 369 914 l 310 731 l 310 -85 l 203 -85 l 203 583 q 74 389 140 478 l 24 433 q 195 767 115 572 q 308 1128 275 963 l 419 1115 m 1086 494 q 1000 608 1036 553 l 706 608 q 613 494 664 547 l 1086 494 z "},"倩":{"ha":1389,"x_min":15,"x_max":1347,"o":"m 438 1114 q 288 739 385 926 l 328 739 l 328 -86 l 221 -86 l 221 621 q 67 394 147 496 l 15 440 q 195 755 110 567 q 322 1133 281 943 l 438 1114 m 929 810 l 929 713 l 1347 713 l 1347 643 l 413 643 l 413 713 l 819 713 l 819 810 l 503 810 l 503 876 l 819 876 l 819 974 l 475 974 l 475 1040 l 819 1040 l 819 1125 l 929 1125 l 929 1040 l 1311 1040 l 1311 974 l 929 974 l 929 876 l 1258 876 l 1258 810 l 929 810 m 515 -81 l 515 571 l 1236 571 l 1236 32 q 1205 -38 1236 -12 q 1128 -64 1174 -64 l 993 -64 l 971 26 l 1079 26 q 1115 40 1100 28 q 1129 69 1129 53 l 1129 169 l 624 169 l 624 -81 l 515 -81 m 1129 401 l 1129 503 l 624 503 l 624 401 l 1129 401 m 624 338 l 624 233 l 1129 233 l 1129 338 l 624 338 z "},"倪":{"ha":1389,"x_min":17,"x_max":1329,"o":"m 431 1111 q 285 732 378 915 l 321 732 l 321 -87 l 215 -87 l 215 607 q 68 389 149 493 l 17 433 q 196 757 117 571 q 317 1129 275 943 l 431 1111 m 1329 206 l 1329 51 q 1225 -61 1329 -50 q 1119 -65 1194 -65 q 1015 -61 1047 -65 q 931 51 931 -46 l 931 476 l 757 476 q 681 130 757 268 q 440 -85 604 -8 l 399 -28 q 590 168 531 46 q 650 476 650 290 l 475 476 l 475 1028 q 763 1107 656 1060 l 806 1033 q 581 988 761 1018 l 581 810 l 817 810 l 817 742 l 581 742 l 581 546 l 1161 546 l 1161 740 l 935 740 l 935 808 l 1161 808 l 1161 1004 l 933 1004 l 933 1074 l 1267 1074 l 1267 476 l 1036 476 l 1036 78 q 1078 29 1036 38 q 1142 24 1110 24 q 1192 29 1174 24 q 1235 79 1228 42 q 1242 226 1242 125 l 1329 206 z "},"倭":{"ha":1389,"x_min":19,"x_max":1332,"o":"m 422 1117 q 288 742 379 928 l 322 742 l 322 -87 l 215 -87 l 215 611 q 71 399 153 507 l 19 440 q 199 777 118 583 q 308 1129 281 971 l 422 1117 m 813 547 l 813 753 q 619 615 725 678 q 411 515 514 553 l 382 568 q 574 674 479 611 q 733 804 669 738 l 439 804 l 439 872 l 810 872 l 810 981 q 532 968 639 969 l 519 1033 q 856 1061 675 1040 q 1143 1113 1038 1082 l 1190 1038 q 914 990 1061 1006 l 914 872 l 1293 872 l 1293 804 l 965 804 q 1119 701 1026 750 q 1332 604 1211 653 l 1263 521 q 1060 635 1146 576 q 911 769 975 694 l 911 547 l 813 547 m 808 521 q 760 400 793 479 l 1313 400 l 1313 331 l 1167 331 q 1028 94 1129 193 q 1278 4 1185 43 l 1206 -85 q 949 33 1089 -22 q 457 -85 785 -68 l 440 -21 q 663 12 543 -14 q 850 71 782 38 q 700 113 797 90 q 564 138 603 136 q 551 147 558 139 q 544 164 544 154 l 547 175 q 624 331 574 224 l 414 331 l 414 400 l 656 400 q 700 531 686 479 l 808 521 m 733 331 q 665 186 703 263 q 924 125 764 168 q 1051 331 1017 206 l 733 331 z "},"债":{"ha":1389,"x_min":24,"x_max":1328,"o":"m 910 821 l 910 729 l 1328 729 l 1328 660 l 419 660 l 419 729 l 804 729 l 804 821 l 493 821 l 493 886 l 804 886 l 804 979 l 458 979 l 458 1047 l 804 1047 l 804 1135 l 910 1135 l 910 1047 l 1274 1047 l 1274 979 l 910 979 l 910 886 l 1233 886 l 1233 821 l 910 821 m 424 1106 q 282 728 375 914 l 307 728 l 307 -86 l 204 -86 l 204 583 q 74 390 144 483 l 24 433 q 197 763 118 572 q 307 1122 275 953 l 424 1106 m 1232 572 l 1232 138 l 1128 138 l 1128 503 l 589 503 l 589 136 l 488 136 l 488 572 l 1232 572 m 944 208 q 1318 3 1039 64 l 1268 -86 q 1090 -19 1175 -65 q 946 92 1004 28 q 872 197 893 147 q 771 69 833 122 q 614 -29 704 11 q 421 -87 524 -69 l 396 -29 q 615 55 521 0 q 757 188 708 110 q 803 354 803 261 l 803 442 l 903 442 l 903 376 q 912 282 903 322 q 944 208 921 242 z "},"值":{"ha":1389,"x_min":19,"x_max":1329,"o":"m 399 1114 q 272 738 358 928 l 300 738 l 300 -83 l 196 -83 l 196 588 q 68 396 133 479 l 19 439 q 181 768 107 574 q 286 1132 256 963 l 399 1114 m 1211 831 l 1211 -3 l 1329 -3 l 1329 -76 l 374 -76 l 374 -3 l 503 -3 l 503 831 l 799 831 l 811 951 l 432 951 l 432 1024 l 818 1024 l 828 1126 l 933 1126 l 922 1024 l 1304 1024 l 1304 951 l 914 951 l 901 831 l 1211 831 m 1106 621 l 1106 760 l 608 760 l 608 621 l 1106 621 m 608 414 l 1106 414 l 1106 554 l 608 554 l 608 414 m 1106 207 l 1106 347 l 608 347 l 608 207 l 1106 207 m 1106 139 l 608 139 l 608 -3 l 1106 -3 l 1106 139 z "},"倾":{"ha":1389,"x_min":21,"x_max":1342,"o":"m 376 1118 q 261 750 342 947 l 301 750 l 301 -82 l 201 -82 l 201 614 q 69 390 133 474 l 21 432 q 174 763 99 560 q 272 1131 250 967 l 376 1118 m 942 854 l 971 1013 l 736 1013 l 736 1083 l 1317 1083 l 1317 1013 l 1075 1013 l 1013 854 l 1275 854 l 1275 206 l 1178 206 l 1178 785 l 874 785 l 874 206 l 776 206 l 776 854 l 942 854 m 724 218 q 382 110 544 150 l 364 200 l 408 208 l 438 214 l 438 1024 l 535 1024 l 535 758 l 714 758 l 714 690 l 535 690 l 535 235 q 676 271 549 238 l 714 281 l 724 218 m 1104 267 q 1342 -4 1167 111 l 1267 -79 q 1069 182 1142 25 q 1039 261 1050 225 q 1008 183 1026 218 q 963 108 990 147 q 742 -86 871 -19 l 703 -39 q 826 60 778 10 q 908 174 875 111 q 958 294 942 235 q 974 435 974 354 l 974 699 l 1067 699 l 1067 460 l 1067 456 l 1067 457 q 1104 267 1068 360 z "},"偃":{"ha":1389,"x_min":22,"x_max":1325,"o":"m 389 1121 q 265 736 351 935 l 292 736 l 292 -87 l 192 -87 l 192 585 q 75 394 136 482 l 22 435 q 180 761 114 578 q 278 1133 246 944 l 389 1121 m 540 1015 l 540 18 l 1325 18 l 1325 -53 l 439 -53 l 439 1083 l 1313 1083 l 1313 1015 l 540 1015 m 1190 421 q 1149 312 1176 364 q 1086 224 1122 260 q 1254 153 1210 181 l 1197 82 q 1014 175 1115 132 q 628 76 875 93 l 611 132 q 924 208 786 146 q 707 253 835 236 q 699 263 704 253 q 699 282 692 274 q 756 421 722 322 l 599 421 l 599 485 l 778 485 q 810 575 789 513 l 660 575 l 660 935 l 1229 935 l 1229 575 l 911 575 q 893 524 903 554 l 879 485 l 1315 485 l 1315 421 l 1190 421 m 1131 872 l 757 872 l 757 783 l 1131 783 l 1131 872 m 757 729 l 757 636 l 1131 636 l 1131 729 l 757 729 m 996 253 q 1090 421 1054 306 l 853 421 q 803 299 824 340 q 996 253 942 268 z "},"假":{"ha":1389,"x_min":21,"x_max":1333,"o":"m 388 1118 q 263 735 342 918 l 293 735 l 293 -87 l 192 -87 l 192 586 q 72 394 139 488 l 21 436 q 173 756 100 563 q 278 1136 246 950 l 388 1118 m 914 754 l 1168 754 l 1168 1014 l 913 1014 l 913 1081 l 1272 1081 l 1272 688 l 914 688 l 914 754 m 539 246 l 833 246 l 833 176 l 539 176 l 539 -74 l 438 -74 l 438 1079 l 819 1079 l 819 682 l 539 682 l 539 497 l 799 497 l 799 426 l 539 426 l 539 246 m 718 1015 l 539 1015 l 539 747 l 718 747 l 718 1015 m 1133 154 q 1333 14 1203 86 l 1261 -71 q 1074 90 1158 -6 q 803 -78 954 -18 l 769 -22 q 1018 156 914 43 q 888 506 911 308 l 846 506 l 846 575 l 1278 575 q 1133 154 1261 307 m 1072 219 q 1136 348 1113 271 q 1167 506 1160 425 l 963 506 q 1072 219 981 336 z "},"偎":{"ha":1389,"x_min":25,"x_max":1335,"o":"m 422 1115 q 285 732 376 919 l 319 732 l 319 -83 l 213 -83 l 213 597 q 72 393 144 485 l 25 439 q 199 772 119 581 q 310 1131 278 964 l 422 1115 m 468 1081 l 1263 1081 l 1263 603 l 468 603 l 468 1081 m 576 876 l 815 876 l 815 1019 l 576 1019 l 576 876 m 917 876 l 1154 876 l 1154 1019 l 917 1019 l 917 876 m 576 667 l 815 667 l 815 817 l 576 817 l 576 667 m 917 667 l 1154 667 l 1154 817 l 917 817 l 917 667 m 1086 168 q 1335 18 1189 83 l 1247 -75 q 972 143 1085 13 q 811 435 860 274 l 656 435 l 656 32 q 965 71 844 50 l 967 7 q 732 -40 874 -18 q 439 -75 590 -61 l 418 15 q 546 22 460 17 l 546 435 l 393 435 l 393 506 l 1324 506 l 1324 435 l 890 435 q 1038 214 933 317 q 1207 365 1151 297 l 1294 307 q 1086 168 1229 247 z "},"偏":{"ha":1389,"x_min":17,"x_max":1283,"o":"m 396 1121 q 265 732 354 929 l 299 738 l 299 -87 l 194 -87 l 194 589 q 69 393 132 475 l 17 436 q 178 769 103 571 q 285 1135 253 967 l 396 1121 m 1283 572 l 1283 32 q 1183 -60 1283 -60 l 1113 -60 l 1097 17 l 1143 17 q 1185 57 1185 17 l 1185 232 l 1056 232 l 1056 -60 l 965 -60 l 965 232 l 851 232 l 851 -60 l 758 -60 l 758 232 l 642 232 l 642 -82 l 544 -82 l 544 419 q 486 194 524 303 q 397 4 449 86 l 344 43 q 460 633 460 308 l 460 1001 l 806 1001 l 806 1115 l 910 1115 l 910 1001 l 1269 1001 l 1269 704 l 565 704 l 565 640 q 563 572 565 619 l 1283 572 m 1167 775 l 1167 929 l 565 929 l 565 775 l 1167 775 m 642 301 l 758 301 l 758 501 l 642 501 l 642 301 m 851 301 l 965 301 l 965 501 l 851 501 l 851 301 m 1056 301 l 1185 301 l 1185 501 l 1056 501 l 1056 301 z "},"做":{"ha":1389,"x_min":19,"x_max":1340,"o":"m 392 1114 q 267 733 351 925 l 288 733 l 288 -87 l 186 -87 l 186 575 q 74 396 135 482 l 19 436 q 178 758 108 569 q 279 1131 247 947 l 392 1114 m 1138 244 q 1340 17 1210 125 l 1261 -69 q 1083 158 1161 28 q 854 -81 997 26 l 810 -33 q 1036 249 956 100 q 919 683 936 454 q 863 576 894 629 l 808 615 q 902 857 864 721 q 960 1131 940 993 l 1071 1115 q 1007 889 1056 1026 l 1324 889 l 1324 821 l 1258 821 q 1138 244 1257 489 m 831 796 l 651 796 l 651 542 l 790 542 l 790 13 l 504 13 l 504 -40 l 404 -40 l 404 542 l 549 542 l 549 796 l 371 796 l 371 865 l 549 865 l 549 1106 l 651 1106 l 651 865 l 831 865 l 831 796 m 1078 353 q 1156 821 1156 547 l 981 821 q 1078 353 983 565 m 689 79 l 689 471 l 504 471 l 504 79 l 689 79 z "},"停":{"ha":1389,"x_min":24,"x_max":1342,"o":"m 922 1131 l 922 1028 l 1342 1028 l 1342 958 l 418 958 l 418 1028 l 810 1028 l 810 1131 l 922 1131 m 404 1113 q 275 732 364 931 l 308 732 l 308 -85 l 201 -85 l 201 586 q 69 390 136 472 l 24 432 q 189 769 113 571 q 290 1126 265 968 l 404 1113 m 499 631 l 499 876 l 1228 876 l 1228 631 l 499 631 m 600 694 l 1124 694 l 1124 815 l 600 815 l 600 694 m 497 379 l 404 379 l 404 551 l 1325 551 l 1325 379 l 1233 379 l 1233 483 l 497 483 l 497 379 m 494 289 l 494 357 l 1240 357 l 1240 289 l 929 289 l 929 31 q 897 -48 929 -21 q 803 -75 864 -75 l 653 -75 l 635 15 l 767 15 q 803 29 788 15 q 819 64 819 43 l 819 289 l 494 289 z "},"健":{"ha":1389,"x_min":25,"x_max":1343,"o":"m 378 1111 q 257 726 336 913 l 282 726 l 282 -85 l 183 -85 l 183 574 q 72 392 135 481 l 25 433 q 180 763 111 571 q 274 1124 249 954 l 378 1111 m 728 669 l 904 669 l 904 788 l 665 788 l 665 854 l 904 854 l 904 963 l 735 963 l 735 1032 l 904 1032 l 904 1121 l 1007 1121 l 1007 1032 l 1240 1032 l 1240 854 l 1322 854 l 1322 788 l 1240 788 l 1240 603 l 1007 603 l 1007 494 l 1271 494 l 1271 425 l 1007 425 l 1007 313 l 1304 313 l 1304 244 l 1007 244 l 1007 93 l 904 93 l 904 244 l 671 244 l 671 313 l 904 313 l 904 425 l 710 425 l 710 494 l 904 494 l 904 603 l 726 603 l 728 669 m 929 33 q 1126 31 1000 31 q 1343 36 1261 31 l 1321 -54 q 1133 -58 1225 -58 q 865 -49 990 -58 q 528 117 665 -35 q 374 -68 464 14 l 326 -18 q 472 189 411 67 q 354 449 400 296 l 421 479 q 508 276 453 369 q 561 593 556 406 l 382 593 l 372 615 l 525 968 l 392 968 l 390 1032 l 635 1032 l 649 1014 l 488 657 l 664 657 q 569 189 661 375 q 929 33 696 42 m 1139 963 l 1007 963 l 1007 854 l 1139 854 l 1139 963 m 1139 788 l 1007 788 l 1007 669 l 1139 669 l 1139 788 z "},"偶":{"ha":1389,"x_min":18,"x_max":1289,"o":"m 414 1115 q 275 729 365 919 l 297 729 l 297 -96 l 194 -96 l 194 576 q 72 390 142 488 l 18 435 q 183 751 99 550 q 304 1129 268 951 l 414 1115 m 899 474 l 1289 474 l 1289 29 q 1256 -47 1289 -18 q 1178 -75 1222 -75 l 1029 -75 l 1011 17 l 1125 17 q 1170 30 1154 17 q 1186 69 1186 43 l 1186 404 l 896 404 l 896 224 q 1010 239 935 228 q 963 328 981 303 l 1014 351 q 1085 245 1043 317 q 1142 136 1128 174 l 1060 108 q 1033 183 1054 129 q 603 110 857 143 l 585 193 q 794 213 631 196 l 794 404 l 528 404 l 528 -82 l 422 -82 l 422 474 l 794 474 l 794 578 l 479 578 l 479 1086 l 1219 1086 l 1219 578 l 899 578 l 899 474 m 585 865 l 794 865 l 794 1018 l 585 1018 l 585 865 m 1114 1018 l 899 1018 l 899 865 l 1114 865 l 1114 1018 m 585 646 l 794 646 l 794 799 l 585 799 l 585 646 m 1114 799 l 899 799 l 899 646 l 1114 646 l 1114 799 z "},"偷":{"ha":1389,"x_min":18,"x_max":1371,"o":"m 892 1126 q 1090 933 953 1026 q 1371 786 1226 840 l 1294 696 q 1042 850 1171 750 q 846 1060 914 950 q 645 851 774 951 q 378 690 517 750 l 344 743 q 589 910 481 814 q 768 1126 697 1007 l 892 1126 m 411 1107 q 275 733 365 921 l 299 733 l 299 -86 l 196 -86 l 196 583 q 69 390 139 483 l 18 433 q 189 762 113 572 q 297 1122 265 951 l 411 1107 m 596 806 l 1088 806 l 1088 739 l 596 739 l 596 806 m 1167 651 l 1263 651 l 1263 21 q 1235 -43 1263 -18 q 1164 -68 1207 -68 l 1063 -68 l 1044 14 l 1121 14 q 1152 28 1138 14 q 1167 60 1167 42 l 1167 651 m 438 -79 l 438 632 l 824 632 l 824 15 q 726 -67 824 -67 l 633 -67 l 618 8 l 689 8 q 721 18 710 8 q 732 44 732 28 l 732 200 l 528 200 l 528 -79 l 438 -79 m 1029 138 l 939 138 l 939 601 l 1029 601 l 1029 138 m 732 446 l 732 571 l 528 571 l 528 446 l 732 446 m 528 388 l 528 260 l 732 260 l 732 388 l 528 388 z "},"偿":{"ha":1389,"x_min":29,"x_max":1322,"o":"m 418 913 l 581 913 q 513 1076 554 1006 l 572 1104 q 689 913 650 1022 l 814 913 l 814 1136 l 917 1136 l 917 913 l 1049 913 q 1115 1107 1083 1000 l 1218 1079 q 1124 913 1183 1004 l 1310 913 l 1310 679 l 1211 679 l 1211 843 l 514 843 l 514 679 l 418 679 l 418 913 m 424 1115 q 288 739 378 928 l 315 739 l 315 -83 l 208 -83 l 208 588 q 76 392 143 476 l 29 436 q 199 766 121 574 q 313 1131 276 958 l 424 1115 m 1176 660 l 1176 590 l 547 590 l 547 660 l 1176 660 m 796 321 q 646 38 725 167 q 1115 75 949 53 q 990 231 1058 156 l 1046 271 q 1192 133 1117 215 q 1313 -25 1267 50 l 1213 -78 q 1161 10 1179 -18 q 811 -37 1014 -15 q 443 -69 608 -60 l 428 28 q 557 33 515 31 q 678 321 622 160 l 404 321 l 404 392 l 1322 392 l 1322 321 l 796 321 z "},"傀":{"ha":1389,"x_min":24,"x_max":1351,"o":"m 1351 175 l 1351 53 q 1232 -56 1351 -47 q 1089 -61 1160 -61 q 925 -53 1017 -61 q 858 -21 881 -50 q 835 60 835 8 l 835 446 q 651 122 772 254 q 378 -83 529 -11 l 343 -25 q 592 185 492 56 q 743 482 693 315 l 461 482 l 461 1001 l 711 1001 q 763 1144 754 1106 l 878 1124 q 797 1001 854 1079 l 1224 1001 l 1224 482 l 936 482 l 936 82 q 986 22 936 31 q 1103 17 1075 17 q 1217 24 1151 17 q 1250 40 1236 26 q 1269 78 1264 54 q 1275 189 1275 107 l 1351 175 m 422 1111 q 281 733 376 929 l 306 733 l 306 -87 l 200 -87 l 200 585 q 75 399 147 493 l 24 442 q 188 749 104 554 q 308 1129 258 908 l 422 1111 m 563 933 l 563 771 l 788 771 q 789 818 789 786 l 789 933 l 563 933 m 1115 771 l 1115 933 l 892 933 l 890 817 q 889 771 890 786 l 1115 771 m 563 551 l 761 551 q 785 707 775 614 l 563 707 l 563 551 m 1115 551 l 1115 707 l 886 707 q 864 551 881 635 l 1115 551 m 1128 419 q 1051 196 1099 307 q 1181 213 1124 203 q 1142 314 1167 258 l 1181 329 q 1265 153 1240 239 l 1206 133 l 1194 175 q 985 129 1106 149 l 971 190 l 999 192 q 1054 431 1038 321 l 1128 419 z "},"傅":{"ha":1389,"x_min":18,"x_max":1335,"o":"m 418 1108 q 275 735 367 917 l 300 735 l 300 -89 l 196 -89 l 196 589 q 69 400 139 493 l 18 443 q 190 760 114 576 q 306 1126 265 943 l 418 1108 m 797 853 l 797 935 l 424 935 l 424 1001 l 797 1001 l 797 1119 l 904 1119 l 904 1001 l 1100 1001 q 1000 1086 1061 1044 l 1038 1118 q 1206 1031 1143 1086 l 1164 1001 l 1322 1001 l 1322 935 l 904 935 l 904 853 l 1243 853 l 1243 356 l 1138 356 l 1138 483 l 904 483 l 904 350 l 797 350 l 797 483 l 574 483 l 574 354 l 471 354 l 471 853 l 797 853 m 574 699 l 797 699 l 797 786 l 574 786 l 574 699 m 1138 786 l 904 786 l 904 699 l 1138 699 l 1138 786 m 574 544 l 797 544 l 797 639 l 574 639 l 574 544 m 1138 639 l 904 639 l 904 544 l 1138 544 l 1138 639 m 1133 275 l 1335 275 l 1335 207 l 1133 207 l 1133 29 q 1099 -44 1133 -18 q 1010 -69 1065 -69 l 871 -69 l 850 17 l 972 17 q 1010 30 994 17 q 1026 64 1026 43 l 1026 207 l 365 207 l 365 275 l 1026 275 l 1026 363 l 1133 363 l 1133 275 m 546 182 q 747 19 671 117 l 657 -39 q 499 140 590 60 l 546 182 z "},"傈":{"ha":1389,"x_min":18,"x_max":1368,"o":"m 418 1108 q 276 735 364 913 l 300 735 l 300 -89 l 196 -89 l 196 588 q 69 400 135 486 l 18 443 q 190 760 114 578 q 306 1126 265 942 l 418 1108 m 942 318 q 1131 169 1019 236 q 1368 56 1242 103 l 1294 -39 q 1088 83 1190 7 q 914 246 986 160 l 914 -87 l 803 -87 l 803 219 q 388 -29 613 51 l 353 26 q 574 152 460 69 q 753 318 689 235 l 404 318 l 404 392 l 801 392 l 801 525 l 475 525 l 475 867 l 708 867 l 708 997 l 446 997 l 446 1068 l 1326 1068 l 1326 997 l 1033 997 l 1033 867 l 1265 867 l 1265 525 l 914 525 l 914 392 l 1315 392 l 1315 318 l 942 318 m 939 997 l 803 997 l 803 867 l 939 867 l 939 997 m 569 596 l 708 596 l 708 799 l 569 799 l 569 596 m 939 799 l 803 799 l 803 596 l 939 596 l 939 799 m 1169 799 l 1033 799 l 1033 596 l 1169 596 l 1169 799 z "},"傍":{"ha":1389,"x_min":22,"x_max":1324,"o":"m 414 1114 q 278 733 371 922 l 310 733 l 310 -85 l 207 -85 l 207 599 q 69 397 147 494 l 22 436 q 188 760 106 561 q 304 1129 269 958 l 414 1114 m 643 774 q 557 949 611 864 l 442 949 l 442 1018 l 807 1018 l 807 1129 l 914 1129 l 914 1018 l 1303 1018 l 1303 949 l 1157 949 q 1040 774 1093 839 l 1292 774 l 1292 600 l 1196 600 l 1196 707 l 507 707 l 507 597 l 414 597 l 414 774 l 643 774 m 643 949 q 754 774 715 872 l 960 774 q 1042 949 999 843 l 643 949 m 1324 456 l 772 456 q 768 338 772 379 l 1201 338 l 1199 175 q 1167 18 1197 81 q 990 -71 1122 -71 l 868 -71 l 850 17 l 965 17 q 1086 113 1064 17 q 1094 268 1094 157 l 756 268 q 651 63 725 143 q 446 -79 578 -18 l 408 -24 q 608 161 542 46 q 651 290 640 219 q 663 456 663 360 l 408 456 l 408 526 l 801 526 l 801 639 l 908 639 l 908 526 l 1324 526 l 1324 456 z "},"傣":{"ha":1389,"x_min":13,"x_max":1363,"o":"m 407 1118 q 269 738 363 933 l 300 738 l 300 -92 l 193 -92 l 193 590 q 63 396 122 471 l 13 442 q 182 771 106 579 q 292 1133 258 963 l 407 1118 m 601 256 q 519 399 571 329 q 388 313 469 361 l 350 368 q 606 594 503 458 l 376 594 l 376 668 l 654 668 q 711 783 689 724 l 446 783 l 446 854 l 738 854 q 764 963 753 901 l 428 963 l 428 1033 l 775 1033 q 783 1132 781 1081 l 896 1128 q 886 1033 890 1064 l 1289 1033 l 1289 963 l 874 963 q 847 854 865 921 l 1242 854 l 1242 783 l 822 783 q 765 668 793 714 l 1322 668 l 1322 594 l 1076 594 q 1200 490 1129 536 q 1363 397 1271 443 l 1278 321 q 1169 396 1219 357 q 1013 282 1124 360 l 963 311 q 1096 464 1043 394 q 990 594 1040 524 l 718 594 q 571 439 656 511 q 699 308 665 358 l 601 256 m 782 522 l 888 522 l 888 18 q 858 -45 888 -19 q 789 -71 828 -71 l 663 -71 l 643 18 l 732 18 q 767 31 751 18 q 782 63 782 44 l 782 522 m 738 174 q 432 32 625 107 l 397 119 q 726 236 588 169 l 738 174 m 963 233 q 1120 163 1026 210 q 1288 68 1214 117 l 1213 -7 q 1076 88 1161 35 q 925 175 992 142 l 963 233 z "},"储":{"ha":1389,"x_min":32,"x_max":1336,"o":"m 401 1124 q 278 738 365 931 l 313 738 l 313 -90 l 214 -90 l 214 606 q 85 399 149 483 l 32 440 q 198 778 129 597 q 294 1136 267 958 l 401 1124 m 1336 1051 q 1142 742 1250 876 l 1328 742 l 1328 669 l 1078 669 q 942 542 1022 608 l 1253 542 l 1253 -74 l 1150 -74 l 1150 -18 l 882 -18 l 882 -74 l 783 -74 l 783 431 q 643 354 724 393 l 614 404 q 965 669 810 507 l 663 669 l 663 742 l 875 742 l 875 911 l 697 911 l 697 981 l 875 981 l 875 1125 l 975 1125 l 975 981 l 1115 981 l 1115 911 l 975 911 l 975 742 l 1029 742 q 1238 1083 1165 906 l 1336 1051 m 529 796 q 469 955 497 892 q 407 1064 442 1018 l 457 1097 q 557 981 503 1057 q 639 842 611 906 l 529 796 m 594 143 q 731 193 654 161 l 733 121 q 610 60 667 82 q 426 0 553 39 l 396 96 l 493 118 l 493 635 l 357 635 l 357 706 l 594 706 l 594 143 m 882 296 l 1150 296 l 1150 475 l 882 475 l 882 296 m 882 47 l 1150 47 l 1150 232 l 882 232 l 882 47 z "},"催":{"ha":1389,"x_min":26,"x_max":1322,"o":"m 407 1124 q 271 719 363 917 l 303 728 l 303 -96 l 200 -96 l 200 578 q 75 386 138 467 l 26 426 q 187 748 114 560 q 294 1132 260 936 l 407 1124 m 1163 1083 l 1264 1083 l 1264 858 l 468 858 l 468 1081 l 568 1081 l 568 928 l 815 928 l 815 1125 l 918 1125 l 918 928 l 1163 928 l 1163 1083 m 983 49 l 1322 49 l 1322 -24 l 601 -24 l 601 -76 l 496 -76 l 496 497 q 378 382 447 443 l 338 428 q 493 622 417 508 q 600 824 569 735 l 707 797 q 625 667 678 739 l 892 667 q 839 803 869 753 l 897 821 q 1006 667 971 753 l 1288 667 l 1288 594 l 983 594 l 983 464 l 1247 464 l 1247 396 l 983 396 l 983 268 l 1247 268 l 1247 201 l 983 201 l 983 49 m 601 464 l 878 464 l 878 594 l 601 594 l 601 464 m 601 268 l 878 268 l 878 396 l 601 396 l 601 268 m 601 49 l 878 49 l 878 201 l 601 201 l 601 49 z "},"傲":{"ha":1389,"x_min":22,"x_max":1354,"o":"m 1151 244 q 1354 17 1224 125 l 1275 -69 q 1099 158 1175 28 q 869 -81 1006 18 l 824 -35 q 1051 249 967 93 q 935 704 944 469 q 881 607 914 660 l 833 640 q 918 871 878 728 q 971 1125 958 1014 l 1081 1110 q 1019 889 1069 1039 l 1339 889 l 1339 819 l 1272 819 q 1151 244 1271 489 m 389 1111 q 264 733 350 925 l 293 733 l 293 -87 l 192 -87 l 192 588 q 74 396 135 483 l 22 436 q 174 744 97 553 q 279 1124 253 953 l 389 1111 m 829 415 q 825 153 828 221 q 808 38 822 86 q 676 -72 779 -72 l 572 -72 l 553 13 l 638 13 q 715 67 699 13 q 728 174 724 92 q 733 349 733 256 l 593 349 q 530 108 579 211 q 385 -82 481 4 l 339 -33 q 463 185 425 65 q 501 463 501 306 l 500 517 l 357 517 l 357 588 l 556 588 l 556 724 l 396 724 l 396 792 l 556 792 l 556 925 l 388 925 l 388 993 l 556 993 l 556 1114 l 657 1114 l 657 993 l 835 993 l 835 925 l 657 925 l 657 792 l 814 792 l 814 724 l 657 724 l 657 588 l 863 588 l 863 517 l 600 517 q 599 415 600 447 l 829 415 m 1092 354 q 1169 819 1172 551 l 997 819 q 1092 354 1001 567 z "},"傻":{"ha":1389,"x_min":19,"x_max":1346,"o":"m 840 1039 l 1279 1039 l 1279 601 l 481 601 l 481 1039 l 771 1039 l 801 1136 l 903 1118 l 840 1039 m 447 1107 q 293 739 394 929 l 329 739 l 329 -86 l 225 -86 l 225 622 q 65 406 144 494 l 19 450 q 205 773 115 579 q 335 1129 294 967 l 447 1107 m 575 669 l 1186 669 l 1186 975 l 575 975 l 575 669 m 617 735 q 844 817 738 768 q 671 889 790 840 l 694 929 q 918 854 786 904 q 1057 954 1007 904 l 1122 906 q 1001 821 1075 863 q 1140 753 1096 779 l 1083 693 q 924 782 1026 733 q 638 693 796 724 l 617 735 m 1056 586 q 1208 516 1143 553 q 1335 425 1274 479 l 1264 363 q 1155 458 1211 417 q 1018 544 1099 499 l 1056 586 m 401 399 q 525 481 471 438 q 629 585 579 525 l 717 547 q 586 433 651 476 q 438 354 521 389 l 401 399 m 1278 -74 q 903 49 1060 -31 q 396 -86 697 -50 l 374 -25 q 606 21 492 -10 q 817 97 721 51 q 632 267 706 169 q 439 135 544 190 l 403 182 q 588 333 503 243 q 707 497 672 422 l 807 476 q 746 383 785 433 l 1194 383 l 1221 357 q 999 103 1157 207 q 1346 21 1139 51 l 1278 -74 m 683 314 q 903 143 767 210 q 1079 317 1028 218 l 686 317 l 683 314 z "},"像":{"ha":1389,"x_min":25,"x_max":1347,"o":"m 1251 -57 q 1036 369 1094 113 q 971 347 1007 358 q 999 143 999 244 q 942 -31 999 26 q 819 -81 896 -81 l 699 -79 l 679 11 l 782 11 q 892 160 890 11 q 892 226 894 192 q 424 -4 686 81 l 396 54 q 660 177 526 101 q 876 332 793 253 q 856 413 867 375 q 411 201 690 293 l 385 258 q 621 358 486 289 q 826 492 756 428 q 789 568 811 531 q 415 399 664 458 l 390 454 q 725 618 617 518 l 508 618 l 508 843 q 425 781 469 810 l 383 826 q 535 976 453 878 q 661 1156 618 1074 l 767 1138 l 743 1099 l 728 1072 l 1081 1072 l 1103 1047 q 969 894 1064 989 l 1268 894 l 1268 618 l 843 618 q 951 407 914 515 q 1112 488 1031 440 q 1258 585 1193 535 l 1326 511 q 1100 393 1229 447 q 1347 14 1168 165 l 1251 -57 m 413 1113 q 286 750 379 950 l 328 750 l 328 -90 l 225 -90 l 225 628 q 75 393 149 489 l 25 432 q 195 767 117 571 q 304 1129 274 964 l 413 1113 m 679 1010 q 568 894 629 949 l 876 894 q 963 1010 929 958 l 679 1010 m 604 831 l 604 683 l 781 683 q 836 831 822 746 l 604 831 m 1167 683 l 1167 831 l 931 831 q 885 683 919 747 l 1167 683 z "},"僚":{"ha":1389,"x_min":21,"x_max":1361,"o":"m 1160 304 l 886 304 l 886 15 q 853 -53 886 -28 q 775 -78 821 -78 l 646 -78 l 628 14 l 725 14 q 763 28 747 14 q 779 61 779 42 l 779 304 l 485 304 l 485 650 l 372 582 l 338 631 q 510 754 425 681 q 389 875 460 817 l 426 913 q 575 815 499 878 q 690 963 643 886 l 428 963 l 428 1032 l 724 1032 q 760 1140 747 1082 l 872 1128 q 838 1032 858 1082 l 1311 1032 l 1311 963 l 960 963 q 1108 803 1017 881 q 1242 918 1193 868 l 1315 865 q 1161 764 1263 822 q 1361 658 1254 701 l 1290 576 q 1160 654 1233 603 l 1160 304 m 401 1121 q 271 732 363 939 l 293 732 l 293 -93 l 190 -93 l 190 568 q 74 390 133 465 l 21 432 q 176 747 100 551 q 286 1136 253 940 l 401 1121 m 1071 728 q 878 963 936 851 l 801 963 q 593 728 725 838 l 1071 728 m 590 553 l 1054 553 l 1054 660 l 590 660 l 590 553 m 590 368 l 1054 368 l 1054 489 l 590 489 l 590 368 m 676 207 q 552 81 635 149 q 393 -28 469 14 l 350 18 q 579 249 507 132 l 676 207 m 1036 249 q 1325 32 1210 151 l 1231 -33 q 985 206 1088 128 l 1036 249 z "},"僧":{"ha":1389,"x_min":18,"x_max":1263,"o":"m 1263 951 l 1263 514 l 440 514 l 440 951 l 622 951 q 539 1108 589 1040 l 593 1133 q 736 951 679 1069 l 964 951 q 1056 1142 1025 1060 l 1165 1117 q 1044 951 1121 1039 l 1263 951 m 419 1117 q 278 733 371 921 l 310 733 l 310 -87 l 201 -87 l 201 590 q 67 393 140 486 l 18 436 q 188 762 106 567 q 307 1132 271 957 l 419 1117 m 540 583 l 799 583 l 799 883 l 540 883 l 540 583 m 897 583 l 1160 583 l 1160 883 l 897 883 l 897 583 m 664 632 q 597 811 618 769 l 647 833 q 739 658 713 733 l 664 632 m 1022 831 l 1103 813 l 1017 636 l 958 647 l 1022 831 m 592 -78 l 483 -78 l 483 429 l 1213 429 l 1213 -78 l 1103 -78 l 1103 -24 l 592 -24 l 592 -78 m 1103 361 l 592 361 l 592 236 l 1103 236 l 1103 361 m 1103 175 l 592 175 l 592 43 l 1103 43 l 1103 175 z "},"僵":{"ha":1389,"x_min":18,"x_max":1339,"o":"m 406 1113 q 279 744 360 919 l 301 744 l 301 -90 l 199 -90 l 199 590 q 69 392 144 494 l 18 433 q 179 743 100 554 q 297 1126 264 946 l 406 1113 m 435 1081 l 1317 1081 l 1317 1014 l 435 1014 l 435 1081 m 1235 956 l 1235 625 l 488 625 l 488 956 l 1235 956 m 814 900 l 586 900 l 586 817 l 814 817 l 814 900 m 1135 900 l 907 900 l 907 817 l 1135 817 l 1135 900 m 814 767 l 586 767 l 586 681 l 814 681 l 814 767 m 1135 767 l 907 767 l 907 681 l 1135 681 l 1135 767 m 417 556 l 1317 556 l 1317 490 l 417 490 l 417 556 m 1261 421 l 1261 72 l 461 72 l 461 421 l 1261 421 m 814 364 l 561 364 l 561 274 l 814 274 l 814 364 m 1160 364 l 910 364 l 910 274 l 1160 274 l 1160 364 m 814 224 l 561 224 l 561 131 l 814 131 l 814 224 m 1160 224 l 910 224 l 910 131 l 1160 131 l 1160 224 m 382 -67 l 382 1 l 1339 1 l 1339 -67 l 382 -67 z "},"僻":{"ha":1389,"x_min":18,"x_max":1335,"o":"m 382 1117 q 258 739 353 953 l 286 739 l 286 -92 l 182 -92 l 182 579 q 67 390 125 471 l 18 433 q 172 761 90 549 q 275 1128 242 939 l 382 1117 m 1132 972 l 1328 972 l 1328 901 l 835 901 l 835 972 l 1024 972 l 1024 1125 l 1132 1125 l 1132 972 m 514 661 q 504 504 514 563 l 800 504 l 800 19 l 576 19 l 576 -42 l 482 -42 l 482 385 q 367 97 451 235 l 314 129 q 418 656 418 363 l 418 1075 l 774 1075 l 774 661 l 514 661 m 671 1007 l 518 1007 l 518 733 l 671 733 l 671 1007 m 1335 526 l 1132 526 l 1132 350 l 1321 350 l 1321 278 l 1132 278 l 1132 -71 l 1022 -71 l 1022 278 l 857 278 l 857 350 l 1022 350 l 1022 526 l 817 526 l 817 597 l 1100 597 q 1192 876 1168 768 l 1292 854 q 1174 597 1244 717 l 1335 597 l 1335 526 m 943 611 q 910 734 935 663 q 865 844 886 806 l 922 867 q 1038 635 1003 769 l 943 611 m 701 436 l 576 436 l 576 90 l 701 90 l 701 436 z "},"儋":{"ha":1389,"x_min":19,"x_max":1336,"o":"m 1336 907 l 1336 843 l 581 843 l 581 563 q 542 215 581 369 q 413 -60 503 60 l 358 -21 q 483 543 483 185 l 483 811 q 400 738 446 775 l 361 785 q 512 946 439 849 q 618 1133 585 1043 l 728 1118 q 697 1060 724 1110 l 1081 1060 l 1101 1040 q 997 907 1071 985 l 1336 907 m 403 1108 q 271 731 361 925 l 299 731 l 299 -86 l 197 -86 l 197 586 q 72 392 136 482 l 19 433 q 185 758 113 572 q 289 1124 257 944 l 403 1108 m 917 907 q 972 1003 953 958 l 660 1003 q 585 907 626 951 l 917 907 m 929 760 q 643 638 819 685 l 615 685 q 865 811 776 739 l 929 760 m 1018 810 q 1160 766 1085 796 q 1307 696 1236 736 l 1263 626 q 990 769 1142 711 l 1018 810 m 906 667 l 1006 667 l 1006 571 l 1304 571 l 1304 514 l 625 514 l 625 571 l 906 571 l 906 667 m 660 428 l 1244 428 l 1244 374 l 660 374 l 660 428 m 1244 242 l 660 242 l 660 296 l 1244 296 l 1244 242 m 725 -81 l 629 -81 l 629 165 l 1282 165 l 1282 -81 l 1186 -81 l 1186 -44 l 725 -44 l 725 -81 m 1186 114 l 725 114 l 725 8 l 1186 8 l 1186 114 z "},"儒":{"ha":1389,"x_min":21,"x_max":1325,"o":"m 389 1108 q 271 743 357 947 l 296 743 l 296 -96 l 194 -96 l 194 578 q 79 385 133 460 l 21 426 q 172 760 90 536 q 274 1124 253 985 l 389 1108 m 383 936 l 781 936 l 781 1019 l 460 1019 l 460 1088 l 1232 1088 l 1232 1019 l 881 1019 l 881 936 l 1292 936 l 1292 676 l 1206 676 l 1206 874 l 881 874 l 881 596 l 781 596 l 781 874 l 469 874 l 469 676 l 383 676 l 383 936 m 521 799 l 732 799 l 732 747 l 521 747 l 521 799 m 933 799 l 1149 799 l 1149 747 l 933 747 l 933 799 m 731 621 l 510 621 l 510 674 l 731 674 l 731 621 m 935 674 l 1160 674 l 1160 621 l 935 621 l 935 674 m 1325 465 l 869 465 l 800 356 l 1281 356 l 1281 25 q 1251 -40 1281 -17 q 1179 -64 1221 -64 l 1089 -64 l 1072 22 l 1131 22 q 1179 65 1179 22 l 1179 288 l 1015 288 l 1015 -64 l 921 -64 l 921 288 l 767 288 l 767 -64 l 674 -64 l 674 288 l 514 288 l 514 -86 l 414 -86 l 414 356 l 721 356 l 760 465 l 361 465 l 361 536 l 1325 536 l 1325 465 z "},"儡":{"ha":1389,"x_min":13,"x_max":1307,"o":"m 393 1111 q 269 740 349 921 l 292 740 l 292 -90 l 193 -90 l 193 590 q 63 390 139 490 l 13 433 q 176 758 106 572 q 279 1126 246 943 l 393 1111 m 450 1079 l 1229 1079 l 1229 622 l 450 622 l 450 1079 m 553 882 l 785 882 l 785 1014 l 553 1014 l 553 882 m 886 882 l 1122 882 l 1122 1014 l 886 1014 l 886 882 m 553 686 l 785 686 l 785 824 l 553 824 l 553 686 m 886 686 l 1122 686 l 1122 824 l 886 824 l 886 686 m 464 -71 l 383 -71 l 383 522 l 790 522 l 790 -71 l 711 -71 l 711 -29 l 464 -29 l 464 -71 m 879 -71 l 879 522 l 1307 522 l 1307 -71 l 1221 -71 l 1221 -29 l 961 -29 l 961 -71 l 879 -71 m 557 460 l 464 460 l 464 289 l 557 289 l 557 460 m 711 460 l 622 460 l 622 289 l 711 289 l 711 460 m 961 289 l 1056 289 l 1056 460 l 961 460 l 961 289 m 1124 289 l 1221 289 l 1221 460 l 1124 460 l 1124 289 m 557 229 l 464 229 l 464 33 l 557 33 l 557 229 m 711 229 l 622 229 l 622 33 l 711 33 l 711 229 m 961 33 l 1056 33 l 1056 229 l 961 229 l 961 33 m 1124 33 l 1221 33 l 1221 229 l 1124 229 l 1124 33 z "},"優":{"ha":1389,"x_min":32,"x_max":1346,"o":"m 396 1117 q 274 738 360 932 l 304 738 l 304 -87 l 201 -87 l 201 589 q 81 393 151 494 l 32 436 q 189 772 114 571 q 290 1129 264 972 l 396 1117 m 499 953 l 768 953 l 790 1026 l 436 1026 l 436 1090 l 1314 1090 l 1314 1026 l 892 1026 l 842 953 l 1213 953 l 1213 629 l 1314 629 l 1314 474 l 1229 474 l 1229 575 l 469 575 l 469 474 l 386 474 l 386 629 l 499 629 l 499 953 m 1117 838 l 1117 903 l 596 903 l 596 838 l 1117 838 m 596 735 l 1117 735 l 1117 797 l 596 797 l 596 735 m 596 628 l 1117 628 l 1117 696 l 596 696 l 596 628 m 860 447 q 782 539 824 500 l 811 558 q 921 478 888 517 l 860 447 m 651 528 l 728 528 l 728 443 q 764 410 728 410 q 874 407 844 407 q 963 410 910 407 q 1000 440 994 413 q 1006 499 1003 451 l 1068 489 l 1068 428 q 972 349 1068 353 q 850 346 886 346 q 724 350 782 346 q 651 417 651 354 l 651 528 m 410 338 q 539 500 497 413 l 594 485 q 485 296 560 364 l 410 338 m 1150 499 q 1338 331 1263 436 l 1263 286 q 1111 467 1183 403 l 1150 499 m 992 50 q 1346 10 1158 14 l 1301 -79 q 881 1 1051 -57 q 389 -79 696 -69 l 374 -24 q 774 47 607 -8 q 592 175 657 104 q 406 94 493 121 l 375 142 q 538 222 457 171 q 683 336 619 274 l 775 310 q 735 269 764 296 l 1179 269 l 1221 229 q 992 50 1150 132 m 868 83 q 1075 213 999 138 l 657 213 l 644 206 q 868 83 725 131 z "},"儿":{"ha":1389,"x_min":53,"x_max":1325,"o":"m 1192 -49 q 1033 -56 1106 -56 q 868 -49 963 -56 q 792 -14 821 -44 q 763 63 763 17 l 763 1093 l 875 1093 l 875 104 q 929 43 875 50 q 1040 38 975 38 q 1158 43 1107 38 q 1222 100 1211 50 q 1232 288 1231 154 l 1325 271 l 1325 64 q 1192 -49 1325 -39 m 53 -7 q 333 271 243 94 q 433 768 433 463 l 433 1085 l 546 1085 l 546 829 q 517 467 546 617 q 407 199 488 318 q 89 -65 296 25 l 53 -7 z "},"允":{"ha":1389,"x_min":63,"x_max":1310,"o":"m 63 -14 q 431 411 403 101 q 438 615 439 518 q 106 597 182 599 l 90 696 q 282 699 196 696 q 525 1135 436 917 l 647 1113 q 372 701 511 867 q 1092 736 850 717 q 989 872 1021 833 q 906 965 957 911 l 963 1001 q 1145 837 1044 946 q 1303 633 1246 728 l 1193 578 q 1135 672 1165 626 q 883 650 1035 661 l 883 93 q 942 35 883 43 q 1032 28 983 28 q 1142 33 1058 28 q 1187 51 1171 36 q 1208 92 1203 65 q 1217 257 1213 108 l 1310 242 l 1310 61 q 1276 -23 1310 7 q 1176 -56 1242 -53 q 1039 -60 1104 -60 q 876 -53 963 -60 q 801 -19 826 -49 q 775 60 775 10 l 775 640 q 546 622 696 633 q 533 375 544 453 q 483 222 522 297 q 97 -78 386 4 l 63 -14 z "},"元":{"ha":1389,"x_min":75,"x_max":1301,"o":"m 1199 922 l 189 922 l 189 996 l 1199 996 l 1199 922 m 75 -11 q 401 279 314 81 q 451 560 451 390 l 107 560 l 107 636 l 1288 636 l 1288 560 l 893 560 l 893 89 q 949 33 893 39 q 1049 26 1008 26 q 1139 35 1101 26 q 1203 89 1190 44 q 1213 249 1208 121 l 1301 231 l 1301 57 q 1172 -56 1301 -44 q 1049 -61 1089 -61 q 879 -50 968 -61 q 783 65 783 -37 l 783 560 l 563 560 q 499 243 556 360 q 107 -75 394 24 l 75 -11 z "},"兄":{"ha":1389,"x_min":54,"x_max":1317,"o":"m 54 -18 q 435 360 389 74 q 444 506 444 428 l 189 506 l 189 1064 l 1163 1064 l 1163 506 l 881 506 l 881 92 q 938 35 881 42 q 1044 31 996 31 q 1150 38 1099 31 q 1217 100 1206 46 q 1225 261 1222 135 l 1317 243 l 1317 58 q 1185 -50 1317 -42 q 1031 -57 1092 -57 q 869 -47 957 -57 q 769 69 769 -37 l 769 506 l 556 506 q 542 343 553 408 q 81 -82 479 0 l 54 -18 m 297 992 l 297 581 l 1053 581 l 1053 992 l 297 992 z "},"充":{"ha":1389,"x_min":64,"x_max":1307,"o":"m 64 -19 q 342 171 254 39 q 433 510 431 303 q 310 503 333 504 q 117 492 168 493 l 99 583 q 290 586 206 583 q 471 885 388 715 l 75 885 l 75 960 l 628 960 l 628 1124 l 738 1124 l 738 960 l 1307 960 l 1307 885 l 603 885 q 486 713 539 785 q 382 589 433 642 q 1057 621 778 601 q 868 786 949 721 l 925 829 q 1113 701 1006 788 q 1283 542 1221 614 l 1185 479 q 1118 557 1144 526 q 879 539 1054 550 l 879 90 q 915 38 879 49 q 1022 29 968 29 q 1128 35 1050 29 q 1196 92 1185 39 q 1204 249 1201 125 l 1297 236 l 1297 56 q 1161 -57 1297 -49 q 1021 -61 1086 -61 q 872 -54 949 -61 q 798 -18 825 -49 q 771 61 771 13 l 771 531 q 542 517 700 525 q 429 121 536 267 q 90 -81 322 -25 l 64 -19 z "},"兆":{"ha":1389,"x_min":50,"x_max":1306,"o":"m 1156 -50 q 1038 -53 1117 -53 q 871 -47 944 -53 q 794 -10 824 -44 q 764 79 764 24 l 764 1113 l 872 1113 l 872 106 q 931 44 872 51 q 1044 39 1003 39 q 1133 43 1090 39 q 1207 117 1199 50 q 1211 236 1211 183 l 1306 221 l 1306 69 q 1156 -50 1306 -42 m 106 -25 q 397 221 304 63 q 465 435 457 321 q 83 278 281 342 l 50 374 q 468 510 247 415 l 468 1106 l 576 1106 l 576 503 q 504 208 576 335 q 142 -86 396 18 l 106 -25 m 903 739 q 1160 1006 1071 876 l 1257 938 q 946 690 1101 782 l 903 739 m 261 619 q 186 790 229 701 q 104 933 143 878 l 169 967 q 288 818 235 897 q 372 661 340 739 l 261 619 m 1215 306 q 928 553 1097 435 l 971 603 q 1154 495 1057 560 q 1300 381 1251 431 l 1215 306 z "},"先":{"ha":1389,"x_min":58,"x_max":1313,"o":"m 58 -31 q 350 164 256 28 q 419 312 400 232 q 440 507 438 392 l 71 507 l 71 583 l 633 583 l 633 846 l 319 846 q 161 646 251 732 l 106 688 q 231 888 172 772 q 318 1101 290 1003 l 435 1081 q 363 921 417 1021 l 633 921 l 633 1128 l 746 1128 l 746 921 l 1231 921 l 1231 846 l 746 846 l 746 583 l 1313 583 l 1313 507 l 897 507 l 897 85 q 954 31 897 38 q 1039 26 996 26 q 1124 31 1082 26 q 1189 92 1179 39 q 1196 244 1196 144 l 1289 228 l 1289 50 q 1256 -26 1289 1 q 1160 -60 1222 -54 q 1022 -67 1079 -67 q 892 -58 954 -67 q 785 49 785 -46 l 785 507 l 553 507 q 522 276 553 378 q 419 96 490 175 q 86 -94 301 -44 l 58 -31 z "},"光":{"ha":1389,"x_min":64,"x_max":1322,"o":"m 79 -17 q 396 238 313 64 q 441 376 429 306 q 453 544 453 447 l 64 544 l 64 621 l 628 621 l 628 1126 l 740 1126 l 740 621 l 1322 621 l 1322 544 l 893 544 l 893 88 q 944 31 893 36 q 1042 25 989 25 q 1122 29 1085 25 q 1186 85 1176 36 q 1196 249 1199 131 l 1290 232 l 1290 50 q 1158 -61 1290 -53 q 1040 -64 1117 -64 q 883 -58 954 -64 q 783 56 783 -50 l 783 544 l 564 544 q 544 328 564 419 q 471 158 524 236 q 322 13 414 74 q 111 -81 231 -49 l 79 -17 m 911 706 q 1003 869 946 754 q 1076 1039 1060 985 l 1194 1006 q 1091 830 1167 944 q 974 671 1015 715 l 911 706 m 356 681 q 204 1000 300 853 l 268 1036 q 383 888 331 969 q 472 722 436 807 l 356 681 z "},"克":{"ha":1389,"x_min":68,"x_max":1300,"o":"m 68 -22 q 365 131 261 19 q 460 372 451 221 l 210 372 l 210 779 l 626 779 l 626 924 l 81 924 l 81 999 l 626 999 l 626 1132 l 736 1132 l 736 999 l 1300 999 l 1300 924 l 736 924 l 736 779 l 1164 779 l 1164 372 l 881 372 l 881 82 q 936 26 881 35 q 1044 21 990 21 q 1135 28 1104 21 q 1197 82 1188 39 q 1204 217 1203 104 l 1296 200 l 1296 50 q 1263 -28 1296 0 q 1168 -61 1231 -57 q 1035 -68 1092 -68 q 869 -57 958 -68 q 774 57 774 -44 l 774 372 l 568 372 q 479 117 556 213 q 93 -87 357 -43 l 68 -22 m 314 708 l 314 443 l 1056 443 l 1056 708 l 314 708 z "},"免":{"ha":1389,"x_min":31,"x_max":1299,"o":"m 1299 214 l 1299 49 q 1168 -61 1299 -53 q 1044 -64 1131 -64 q 869 -58 938 -64 q 769 54 769 -50 l 769 389 l 700 389 q 476 77 625 196 q 107 -79 328 -42 l 79 -17 q 586 389 453 79 l 235 389 l 235 757 q 67 646 151 693 l 31 701 q 279 908 163 785 q 450 1154 396 1031 l 569 1138 q 518 1044 543 1078 l 965 1044 l 1006 1004 q 818 792 949 915 l 1215 792 l 1215 389 l 876 389 l 876 85 q 928 26 876 32 q 1026 22 972 22 q 1136 28 1093 22 q 1201 81 1189 35 q 1210 232 1206 106 l 1299 214 m 464 972 q 279 792 390 883 l 724 792 q 851 972 794 874 l 464 972 m 340 460 l 614 460 q 663 722 653 582 l 340 722 l 340 460 m 1108 460 l 1108 722 l 768 722 q 724 460 760 583 l 1108 460 z "},"兑":{"ha":1389,"x_min":56,"x_max":1321,"o":"m 443 896 q 300 1101 379 1014 l 357 1139 q 547 946 474 1056 l 443 896 m 1321 226 l 1321 47 q 1193 -58 1321 -51 q 1035 -64 1117 -64 q 858 -56 944 -64 q 790 -21 817 -53 q 763 57 763 11 l 763 419 l 551 419 q 540 340 547 379 q 388 66 507 179 q 83 -83 269 -47 l 56 -19 q 310 117 210 17 q 433 363 410 218 q 438 392 436 378 q 440 419 439 407 l 197 419 l 197 890 l 786 890 q 938 1136 865 1003 l 1061 1097 q 879 890 954 967 l 1163 890 l 1163 419 l 871 419 l 871 89 q 932 29 871 36 q 1035 24 981 24 q 1154 31 1088 24 q 1224 90 1214 39 q 1232 242 1228 115 l 1321 226 m 1054 821 l 306 821 l 306 490 l 1054 490 l 1054 821 z "},"兔":{"ha":1389,"x_min":39,"x_max":1326,"o":"m 79 -17 q 408 147 292 36 q 588 421 538 260 l 250 421 l 250 757 q 75 640 163 690 l 39 697 q 290 906 181 786 q 457 1149 400 1026 l 571 1128 q 524 1049 556 1092 l 946 1049 l 979 1015 q 801 799 910 896 l 1188 799 l 1188 421 l 868 421 l 868 97 q 922 33 868 40 q 1046 26 988 26 q 1157 32 1106 26 q 1225 85 1214 38 q 1233 219 1232 110 l 1326 201 l 1326 58 q 1292 -25 1326 4 q 1192 -57 1258 -54 q 1008 -62 1099 -62 q 861 -56 911 -62 q 760 51 760 -43 l 760 421 l 700 421 q 472 81 626 192 q 300 -21 394 21 q 107 -79 206 -62 l 79 -17 m 713 799 q 835 982 785 886 l 478 982 q 303 799 410 888 l 713 799 m 608 490 q 629 597 617 518 q 647 732 642 676 l 356 732 l 356 490 l 608 490 m 1081 490 l 1081 732 l 756 732 q 718 490 747 624 l 1081 490 m 1082 136 q 936 325 1039 211 l 982 358 q 1085 281 1026 332 q 1174 189 1143 229 l 1082 136 z "},"兖":{"ha":1389,"x_min":79,"x_max":1311,"o":"m 1304 943 l 82 943 l 82 1017 l 631 1017 l 631 1125 l 742 1125 l 742 1017 l 1304 1017 l 1304 943 m 1224 592 q 1032 733 1142 663 q 810 860 922 804 l 856 907 q 1093 801 947 878 q 1310 668 1239 724 l 1224 592 m 79 660 q 292 769 175 696 q 468 903 410 842 l 561 854 q 351 712 478 781 q 111 606 225 643 l 79 660 m 1132 419 q 1064 485 1110 444 q 179 435 600 444 l 165 518 l 376 519 q 575 768 510 660 l 683 746 q 468 519 588 625 q 1003 533 761 525 q 840 650 933 590 l 890 693 q 1066 591 969 654 q 1226 471 1163 528 l 1132 419 m 1182 -49 q 1038 -53 1107 -53 q 867 -46 957 -53 q 801 -14 829 -44 q 769 69 769 18 l 769 389 l 878 389 l 878 103 q 938 43 878 51 q 1026 39 974 39 q 1158 44 1093 39 q 1215 104 1206 49 q 1224 253 1219 126 l 1311 236 l 1311 61 q 1182 -49 1311 -40 m 79 -17 q 278 67 190 10 q 417 208 367 125 q 468 388 468 290 l 579 388 q 519 172 579 269 q 351 10 458 75 q 107 -82 244 -56 l 79 -17 z "},"党":{"ha":1389,"x_min":69,"x_max":1301,"o":"m 83 664 l 83 883 l 326 883 q 228 1071 296 990 l 289 1103 q 376 1006 328 1075 q 447 883 425 938 l 638 883 l 638 1138 l 744 1138 l 744 883 l 950 883 q 1047 1104 997 975 l 1164 1074 q 1036 883 1108 976 l 1301 883 l 1301 664 l 1204 664 l 1204 813 l 178 813 l 178 664 l 83 664 m 69 -21 q 367 132 264 22 q 463 338 444 215 l 268 338 l 268 697 l 1117 697 l 1117 338 l 868 338 l 868 78 q 922 25 868 32 q 1035 18 989 18 q 1128 26 1089 18 q 1189 79 1181 38 q 1197 211 1196 115 l 1288 196 l 1288 50 q 1161 -62 1288 -51 q 1024 -69 1082 -69 q 857 -58 943 -69 q 760 56 760 -46 l 760 338 l 575 338 q 486 121 554 210 q 94 -86 363 -39 l 69 -21 m 376 628 l 376 410 l 1007 410 l 1007 628 l 376 628 z "},"兜":{"ha":1389,"x_min":60,"x_max":1308,"o":"m 914 975 l 914 433 l 463 433 l 463 975 l 600 975 q 647 1142 640 1108 l 764 1124 q 676 975 708 1025 l 914 975 m 410 471 q 254 433 347 451 q 75 400 161 414 l 60 483 l 136 490 l 136 958 q 354 1061 247 990 l 403 982 q 238 926 311 946 l 238 501 q 403 526 342 517 l 410 471 m 1157 504 l 1157 922 l 985 922 l 983 990 l 1261 990 l 1261 397 l 1157 397 l 1157 435 l 985 435 l 985 504 l 1157 504 m 564 750 l 808 750 l 808 910 l 564 910 l 564 750 m 564 500 l 808 500 l 808 686 l 564 686 l 564 500 m 404 151 q 479 350 463 226 l 586 340 q 482 90 567 186 q 99 -87 358 -56 l 76 -25 q 404 151 303 13 m 1308 207 l 1308 47 q 1178 -61 1308 -49 q 1044 -69 1114 -69 q 882 -60 982 -69 q 778 50 778 -50 l 778 349 l 885 349 l 885 83 q 940 26 885 32 q 1047 21 1015 21 q 1153 28 1097 21 q 1210 76 1199 35 q 1218 222 1218 114 l 1308 207 z "},"兢":{"ha":1389,"x_min":29,"x_max":1346,"o":"m 608 -28 q 778 149 726 39 q 831 433 831 258 l 728 433 l 728 774 l 946 774 l 946 922 l 697 922 l 697 990 l 946 990 l 946 1122 l 1049 1122 l 1049 990 l 1328 990 l 1328 922 l 1049 922 l 1049 774 l 1274 774 l 1274 433 l 1128 433 l 1128 65 q 1171 24 1128 24 l 1215 24 q 1263 74 1257 24 q 1268 217 1265 107 l 1346 200 l 1346 51 q 1250 -57 1346 -47 q 1194 -61 1225 -61 q 1108 -56 1169 -61 q 1031 50 1031 -49 l 1031 433 l 932 433 q 919 266 933 336 q 872 132 904 196 q 643 -81 796 -15 l 608 -28 m 29 -33 q 171 167 125 46 q 215 436 217 289 l 92 436 l 92 775 l 299 775 l 299 922 l 50 922 l 50 990 l 299 990 l 299 1117 l 404 1117 l 404 990 l 628 990 l 628 922 l 404 922 l 404 775 l 615 775 l 615 436 l 499 436 l 499 119 q 671 213 608 172 l 688 151 q 397 -19 571 58 l 365 61 l 403 78 l 403 436 l 317 436 q 253 131 310 258 q 69 -81 196 4 l 29 -33 m 190 708 l 190 503 l 515 503 l 515 708 l 190 708 m 828 707 l 828 500 l 1169 500 l 1169 707 l 828 707 z "},"入":{"ha":1389,"x_min":82,"x_max":1315,"o":"m 686 1108 q 781 650 711 849 q 982 296 851 451 q 1315 19 1113 140 l 1222 -69 q 911 210 1038 56 q 707 572 785 365 q 484 193 639 361 q 121 -75 329 25 l 82 -18 q 349 177 231 54 q 544 453 468 300 q 649 768 621 606 q 594 1097 611 918 l 686 1108 z "},"全":{"ha":1389,"x_min":29,"x_max":1363,"o":"m 29 635 q 258 768 139 685 q 475 947 378 851 q 618 1129 572 1043 l 746 1129 q 901 961 797 1047 q 1129 803 1006 875 q 1363 693 1253 732 l 1281 599 q 968 790 1129 661 q 706 1054 807 919 q 540 876 644 969 q 310 704 436 783 q 60 579 183 625 l 29 635 m 1306 -50 l 92 -50 l 92 24 l 632 24 l 632 322 l 190 322 l 190 396 l 632 396 l 632 628 l 338 628 l 338 703 l 1046 703 l 1046 628 l 743 628 l 743 396 l 1199 396 l 1199 322 l 743 322 l 743 24 l 1306 24 l 1306 -50 z "},"兩":{"ha":1389,"x_min":60,"x_max":1326,"o":"m 1326 994 l 740 994 l 740 822 l 1256 822 l 1256 35 q 1219 -36 1256 -7 q 1133 -65 1183 -65 l 986 -65 l 965 28 l 1097 28 q 1133 41 1117 28 q 1149 78 1149 54 l 1149 753 l 740 753 l 740 -65 l 636 -65 l 636 753 l 243 753 l 243 -83 l 138 -83 l 138 822 l 636 822 l 636 994 l 60 994 l 60 1068 l 1326 1068 l 1326 994 m 461 643 q 499 399 464 497 q 617 218 535 301 l 554 147 q 444 343 486 229 q 314 140 406 226 l 275 176 q 358 309 324 226 q 406 490 393 392 q 390 640 392 568 l 461 643 m 1075 147 q 956 346 999 236 q 819 140 917 235 l 779 176 q 866 311 829 228 q 915 492 903 394 q 901 640 904 556 l 971 643 q 1010 397 972 490 q 1136 218 1047 304 l 1075 147 z "},"八":{"ha":1389,"x_min":50,"x_max":1347,"o":"m 1243 -54 q 1019 278 1101 110 q 901 638 938 447 q 860 1075 864 829 l 954 1078 l 954 1032 q 1046 485 954 724 q 1347 26 1138 246 l 1243 -54 m 50 0 q 327 442 247 172 q 415 1064 407 713 l 533 1058 q 480 602 521 801 q 346 235 439 403 q 93 -54 253 68 l 50 0 z "},"公":{"ha":1389,"x_min":46,"x_max":1333,"o":"m 1236 479 q 976 756 1093 600 q 800 1067 858 913 l 879 1093 q 1064 803 946 940 q 1333 561 1182 667 l 1236 479 m 46 517 q 285 770 178 621 q 451 1083 392 919 l 569 1056 q 374 730 510 897 q 89 464 238 563 l 46 517 m 99 35 q 232 39 150 35 l 275 40 q 456 392 378 218 q 578 718 533 567 l 697 693 q 551 360 649 554 q 369 44 454 167 q 1061 97 858 67 q 963 252 1029 154 q 854 404 897 350 l 917 442 q 1117 213 1011 353 q 1265 -26 1222 72 l 1144 -68 q 1099 28 1124 -19 q 117 -67 765 -24 l 99 35 z "},"六":{"ha":1389,"x_min":68,"x_max":1304,"o":"m 1300 718 l 82 718 l 82 794 l 635 794 l 635 1064 l 749 1064 l 749 794 l 1300 794 l 1300 718 m 1188 -43 q 994 283 1092 131 q 808 553 897 431 l 874 590 q 1086 335 975 479 q 1304 17 1225 151 l 1188 -43 m 68 -7 q 304 290 201 117 q 433 574 396 442 l 554 546 q 363 197 488 369 q 115 -56 256 51 l 68 -7 z "},"兮":{"ha":1389,"x_min":18,"x_max":1375,"o":"m 1110 693 l 504 693 l 446 456 l 1139 456 q 1093 36 1135 136 q 925 -79 1047 -79 l 742 -79 l 719 15 l 872 15 q 1001 118 981 15 q 1026 386 1025 244 l 319 386 l 394 693 l 281 693 l 281 751 q 56 619 165 671 l 18 674 q 288 865 149 744 q 508 1114 428 986 l 611 1064 q 299 764 492 900 l 1093 764 q 801 1088 915 911 l 865 1119 q 1101 885 967 990 q 1375 713 1235 781 l 1292 628 q 1110 750 1207 672 l 1110 693 z "},"兰":{"ha":1389,"x_min":72,"x_max":1314,"o":"m 1243 824 l 1243 747 l 136 747 l 136 824 l 429 824 q 308 1090 388 982 l 369 1121 q 482 990 428 1076 q 556 824 536 904 l 794 824 q 944 1126 896 990 l 1067 1093 q 879 824 982 940 l 1243 824 m 1185 451 l 1185 374 l 194 374 l 194 451 l 1185 451 m 72 -37 l 72 40 l 1314 40 l 1314 -37 l 72 -37 z "},"共":{"ha":1389,"x_min":67,"x_max":1321,"o":"m 1321 346 l 68 346 l 68 422 l 379 422 l 379 786 l 117 786 l 117 861 l 379 861 l 379 1113 l 492 1113 l 492 861 l 872 861 l 872 1115 l 985 1115 l 985 861 l 1264 861 l 1264 786 l 985 786 l 985 422 l 1321 422 l 1321 346 m 492 786 l 492 422 l 872 422 l 872 786 l 492 786 m 1225 -75 q 1003 79 1124 -19 q 814 263 883 178 l 885 306 q 1074 152 951 233 q 1311 17 1197 71 l 1225 -75 m 67 -7 q 301 131 183 44 q 476 300 418 218 l 576 244 q 360 58 494 146 q 104 -72 226 -31 l 67 -7 z "},"关":{"ha":1389,"x_min":57,"x_max":1317,"o":"m 946 236 q 1317 29 1096 97 l 1231 -72 q 889 154 1036 7 q 703 408 765 278 q 451 92 635 232 q 85 -81 288 -32 l 57 -17 q 414 182 264 49 q 593 453 551 306 l 86 453 l 86 532 l 626 532 l 626 807 l 136 807 l 136 885 l 415 885 q 311 1090 371 1013 l 375 1122 q 467 1019 419 1088 q 542 885 514 951 l 825 885 q 940 1126 899 1011 l 1061 1094 q 917 885 1008 996 l 1242 885 l 1242 807 l 740 807 l 740 532 l 1303 532 l 1303 453 l 768 453 q 946 236 819 356 z "},"兴":{"ha":1389,"x_min":42,"x_max":1336,"o":"m 660 711 q 601 876 639 788 q 519 1039 564 965 l 585 1068 q 695 919 642 1007 q 778 753 749 832 l 660 711 m 917 604 q 1044 815 988 704 q 1154 1057 1101 925 l 1276 1010 q 981 567 1150 754 l 917 604 m 278 629 q 103 963 206 825 l 169 996 q 290 855 228 943 q 396 675 353 767 l 278 629 m 1321 424 l 68 424 l 68 500 l 1321 500 l 1321 424 m 1251 -71 q 1037 85 1160 -26 q 826 296 914 196 l 894 344 q 1108 165 981 260 q 1336 24 1236 69 l 1251 -71 m 42 -8 q 272 146 157 47 q 457 342 388 244 l 571 285 q 336 74 467 172 q 79 -71 206 -24 l 42 -8 z "},"兵":{"ha":1389,"x_min":49,"x_max":1328,"o":"m 64 274 l 64 349 l 240 349 l 240 1008 q 663 1053 394 1014 q 1056 1129 932 1092 l 1113 1044 q 750 984 996 1014 q 351 947 504 954 l 351 810 l 1267 810 l 1267 733 l 1047 733 l 1047 349 l 1317 349 l 1317 274 l 64 274 m 351 733 l 351 349 l 935 349 l 935 733 l 351 733 m 1251 -86 q 1016 31 1154 -51 q 799 183 878 113 l 860 238 q 1079 111 950 174 q 1328 11 1208 49 l 1251 -86 m 49 -18 q 290 94 174 25 q 474 232 407 164 l 568 165 q 342 17 479 86 q 82 -82 206 -53 l 49 -18 z "},"其":{"ha":1389,"x_min":58,"x_max":1328,"o":"m 1328 242 l 58 242 l 58 315 l 279 315 l 279 917 l 100 917 l 100 990 l 279 990 l 279 1119 l 390 1119 l 390 990 l 982 990 l 982 1119 l 1093 1119 l 1093 990 l 1288 990 l 1288 917 l 1093 917 l 1093 315 l 1328 315 l 1328 242 m 390 917 l 390 767 l 982 767 l 982 917 l 390 917 m 390 697 l 390 547 l 982 547 l 982 697 l 390 697 m 390 479 l 390 315 l 982 315 l 982 479 l 390 479 m 1225 -76 q 1002 26 1129 -46 q 794 167 875 99 l 854 218 q 1055 109 926 164 q 1299 21 1183 54 l 1225 -76 m 71 -12 q 293 89 169 21 q 482 217 417 157 l 572 147 q 355 15 496 83 q 107 -79 214 -53 l 71 -12 z "},"具":{"ha":1389,"x_min":64,"x_max":1318,"o":"m 1151 1085 l 1151 274 l 1318 274 l 1318 197 l 64 197 l 64 274 l 228 274 l 228 1085 l 1151 1085 m 1043 881 l 1043 1015 l 336 1015 l 336 881 l 1043 881 m 336 681 l 1043 681 l 1043 814 l 336 814 l 336 681 m 1043 478 l 1043 613 l 336 613 l 336 478 l 1043 478 m 1043 408 l 336 408 l 336 274 l 1043 274 l 1043 408 m 72 -21 q 285 63 168 7 q 478 174 401 118 l 558 106 q 344 -7 467 43 q 103 -85 221 -57 l 72 -21 m 865 169 q 1062 85 922 135 q 1296 15 1201 36 l 1232 -76 q 1019 2 1146 -56 q 810 113 892 60 l 865 169 z "},"典":{"ha":1389,"x_min":56,"x_max":1333,"o":"m 1333 242 l 58 242 l 58 315 l 168 315 l 168 958 l 478 958 l 478 1118 l 582 1118 l 582 958 l 786 958 l 786 1118 l 890 1118 l 890 958 l 1206 958 l 1206 315 l 1333 315 l 1333 242 m 274 888 l 274 650 l 478 650 l 478 888 l 274 888 m 582 888 l 582 650 l 788 650 l 788 888 l 582 888 m 890 888 l 890 650 l 1099 650 l 1099 888 l 890 888 m 274 578 l 274 315 l 478 315 l 478 578 l 274 578 m 582 578 l 582 315 l 788 315 l 788 578 l 582 578 m 890 578 l 890 315 l 1099 315 l 1099 578 l 890 578 m 1226 -72 q 986 35 1113 -36 q 793 161 867 104 l 853 213 q 1054 108 901 178 q 1299 21 1175 53 l 1226 -72 m 56 -14 q 272 82 157 21 q 475 208 400 150 l 563 140 q 338 17 492 86 q 88 -76 183 -51 l 56 -14 z "},"兹":{"ha":1389,"x_min":74,"x_max":1303,"o":"m 1303 925 l 1303 851 l 83 851 l 83 925 l 431 925 q 333 1096 378 1040 l 392 1128 q 557 925 486 1057 l 832 925 q 942 1131 901 1033 l 1057 1101 q 919 925 989 1000 l 1303 925 m 544 265 q 683 -56 628 143 l 581 -79 l 561 1 q 89 -76 394 -35 l 74 14 l 167 22 q 290 189 218 85 q 429 400 363 293 q 115 347 315 375 l 99 438 q 178 443 125 440 q 353 832 285 638 l 461 803 q 267 451 382 624 q 475 474 392 460 q 558 629 532 571 l 667 590 q 483 315 601 475 q 260 31 365 154 q 544 61 438 46 q 481 242 513 172 l 544 265 m 1149 265 q 1289 -56 1229 147 l 1185 -79 q 1165 0 1169 -12 q 715 -76 965 -42 l 700 14 l 769 19 q 891 188 821 83 q 1025 399 961 292 q 704 347 904 374 l 689 438 l 769 444 q 956 832 867 600 l 1064 801 q 863 451 972 604 q 1069 472 983 460 q 1153 629 1126 572 l 1261 590 q 1078 313 1196 478 q 863 29 961 149 q 1149 60 982 39 q 1085 242 1115 178 l 1149 265 z "},"养":{"ha":1389,"x_min":39,"x_max":1343,"o":"m 972 535 q 1144 412 1043 469 q 1343 317 1246 354 l 1264 231 q 1057 363 1156 285 q 878 535 958 440 l 538 535 q 72 225 374 360 l 39 282 q 417 535 268 382 l 72 535 l 72 606 l 479 606 q 557 728 522 660 l 144 728 l 144 797 l 589 797 q 621 913 611 858 l 93 913 l 93 985 l 431 985 q 344 1113 401 1049 l 401 1144 q 549 985 493 1078 l 844 985 q 933 1143 899 1074 l 1046 1114 q 994 1052 1025 1085 q 931 985 964 1019 l 1303 985 l 1303 913 l 732 913 q 700 797 719 856 l 1236 797 l 1236 728 l 669 728 q 596 606 636 660 l 1313 606 l 1313 535 l 972 535 m 1006 -82 l 897 -82 l 897 388 l 1006 388 l 1006 -82 m 383 379 l 489 379 l 489 293 q 404 60 489 167 q 176 -99 319 -46 l 138 -40 q 320 108 257 19 q 383 307 383 196 l 383 379 z "},"兼":{"ha":1389,"x_min":43,"x_max":1331,"o":"m 486 235 q 75 -47 304 51 l 43 7 q 266 153 157 65 q 431 319 375 240 l 171 319 l 171 390 l 482 390 l 482 511 l 75 511 l 75 582 l 482 582 l 482 701 l 171 701 l 171 768 l 482 768 l 482 882 l 99 882 l 99 956 l 428 956 q 340 1106 382 1061 l 396 1135 q 547 956 469 1089 l 825 956 q 904 1104 857 1011 q 919 1133 908 1114 l 1029 1108 q 911 956 983 1038 l 1285 956 l 1285 882 l 874 882 l 874 768 l 1190 768 l 1190 582 l 1322 582 l 1322 511 l 1190 511 l 1190 319 l 913 319 q 1108 151 990 232 q 1331 29 1225 69 l 1253 -61 q 1047 77 1149 -10 q 871 263 944 164 l 871 -85 l 767 -85 l 767 319 l 589 319 l 589 -85 l 486 -85 l 486 235 m 589 882 l 589 768 l 767 768 l 767 882 l 589 882 m 589 701 l 589 582 l 767 582 l 767 701 l 589 701 m 874 701 l 874 582 l 1081 582 l 1081 701 l 874 701 m 589 511 l 589 390 l 767 390 l 767 511 l 589 511 m 874 511 l 874 390 l 1081 390 l 1081 511 l 874 511 z "},"兽":{"ha":1389,"x_min":64,"x_max":1322,"o":"m 1233 976 l 1233 542 l 147 542 l 147 976 l 433 976 q 347 1118 403 1047 l 407 1147 q 489 1072 449 1118 q 554 976 529 1025 l 838 976 q 932 1149 894 1061 l 1049 1117 q 931 976 994 1042 l 1233 976 m 256 790 l 639 790 l 639 910 l 256 910 l 256 790 m 742 790 l 1124 790 l 1124 910 l 742 910 l 742 790 m 256 608 l 639 608 l 639 726 l 256 726 l 256 608 m 742 608 l 1124 608 l 1124 726 l 742 726 l 742 608 m 64 379 l 64 453 l 1322 453 l 1322 379 l 64 379 m 308 -76 l 197 -76 l 197 289 l 1181 289 l 1181 -74 l 1069 -74 l 1069 -21 l 308 -21 l 308 -76 m 1069 219 l 308 219 l 308 51 l 1069 51 l 1069 219 z "}}}
